<?xml version="1.0" encoding="utf-8" standalone="no"?>
<!DOCTYPE svg PUBLIC "-//W3C//DTD SVG 1.1//EN"
  "http://www.w3.org/Graphics/SVG/1.1/DTD/svg11.dtd">
<svg xmlns:xlink="http://www.w3.org/1999/xlink" width="720pt" height="432pt" viewBox="0 0 720 432" xmlns="http://www.w3.org/2000/svg" version="1.1">
 <metadata>
  <rdf:RDF xmlns:dc="http://purl.org/dc/elements/1.1/" xmlns:cc="http://creativecommons.org/ns#" xmlns:rdf="http://www.w3.org/1999/02/22-rdf-syntax-ns#">
   <cc:Work>
    <dc:type rdf:resource="http://purl.org/dc/dcmitype/StillImage"/>
    <dc:date>2025-07-21T10:38:05.872494</dc:date>
    <dc:format>image/svg+xml</dc:format>
    <dc:creator>
     <cc:Agent>
      <dc:title>Matplotlib v3.10.1, https://matplotlib.org/</dc:title>
     </cc:Agent>
    </dc:creator>
   </cc:Work>
  </rdf:RDF>
 </metadata>
 <defs>
  <style type="text/css">*{stroke-linejoin: round; stroke-linecap: butt}</style>
 </defs>
 <g id="figure_1">
  <g id="patch_1">
   <path d="M 0 432 
L 720 432 
L 720 0 
L 0 0 
z
" style="fill: #ffffff"/>
  </g>
  <g id="axes_1">
   <g id="patch_2">
    <path d="M 90.562693 370.348299 
L 709.2 370.348299 
L 709.2 33.404405 
L 90.562693 33.404405 
z
" style="fill: #ffffff"/>
   </g>
   <g id="matplotlib.axis_1">
    <g id="xtick_1">
     <g id="line2d_1">
      <path d="M 118.682571 370.348299 
L 118.682571 33.404405 
" clip-path="url(#p0d3f7786c9)" style="fill: none; stroke: #b0b0b0; stroke-width: 0.8; stroke-linecap: square"/>
     </g>
     <g id="line2d_2">
      <defs>
       <path id="mbf5281945d" d="M 0 0 
L 0 3.5 
" style="stroke: #000000; stroke-width: 0.8"/>
      </defs>
      <g>
       <use xlink:href="#mbf5281945d" x="118.682571" y="370.348299" style="stroke: #000000; stroke-width: 0.8"/>
      </g>
     </g>
     <g id="text_1">
      <!-- $\mathdefault{−1000}$ -->
      <g transform="translate(95.260128 389.8016) scale(0.18 -0.18)">
       <defs>
        <path id="CMSY10-0" d="M 4218 1472 
C 4326 1472 4442 1472 4442 1600 
C 4442 1728 4326 1728 4218 1728 
L 755 1728 
C 646 1728 531 1728 531 1600 
C 531 1472 646 1472 755 1472 
L 4218 1472 
z
" transform="scale(0.015625)"/>
        <path id="CMR17-31" d="M 1702 4058 
C 1702 4192 1696 4192 1606 4192 
C 1357 3916 979 3827 621 3827 
C 602 3827 570 3827 563 3808 
C 557 3795 557 3782 557 3648 
C 755 3648 1088 3686 1344 3839 
L 1344 461 
C 1344 236 1331 160 781 160 
L 589 160 
L 589 0 
C 896 0 1216 0 1523 0 
C 1830 0 2150 0 2458 0 
L 2458 160 
L 2266 160 
C 1715 160 1702 230 1702 458 
L 1702 4058 
z
" transform="scale(0.015625)"/>
        <path id="CMR17-30" d="M 2688 2025 
C 2688 2416 2682 3080 2413 3591 
C 2176 4039 1798 4198 1466 4198 
C 1158 4198 768 4058 525 3597 
C 269 3118 243 2524 243 2025 
C 243 1661 250 1106 448 619 
C 723 -39 1216 -128 1466 -128 
C 1760 -128 2208 -7 2470 600 
C 2662 1042 2688 1559 2688 2025 
z
M 1466 -26 
C 1056 -26 813 325 723 812 
C 653 1188 653 1738 653 2096 
C 653 2588 653 2997 736 3387 
C 858 3929 1216 4096 1466 4096 
C 1728 4096 2067 3923 2189 3400 
C 2272 3036 2278 2607 2278 2096 
C 2278 1680 2278 1169 2202 792 
C 2067 95 1690 -26 1466 -26 
z
" transform="scale(0.015625)"/>
       </defs>
       <use xlink:href="#CMSY10-0" transform="scale(0.996264)"/>
       <use xlink:href="#CMR17-31" transform="translate(77.487468 0) scale(0.996264)"/>
       <use xlink:href="#CMR17-30" transform="translate(123.177945 0) scale(0.996264)"/>
       <use xlink:href="#CMR17-30" transform="translate(168.868422 0) scale(0.996264)"/>
       <use xlink:href="#CMR17-30" transform="translate(214.558899 0) scale(0.996264)"/>
      </g>
     </g>
    </g>
    <g id="xtick_2">
     <g id="line2d_3">
      <path d="M 188.982265 370.348299 
L 188.982265 33.404405 
" clip-path="url(#p0d3f7786c9)" style="fill: none; stroke: #b0b0b0; stroke-width: 0.8; stroke-linecap: square"/>
     </g>
     <g id="line2d_4">
      <g>
       <use xlink:href="#mbf5281945d" x="188.982265" y="370.348299" style="stroke: #000000; stroke-width: 0.8"/>
      </g>
     </g>
     <g id="text_2">
      <!-- $\mathdefault{−750}$ -->
      <g transform="translate(169.671965 389.8016) scale(0.18 -0.18)">
       <defs>
        <path id="CMR17-37" d="M 2886 3941 
L 2886 4081 
L 1382 4081 
C 634 4081 621 4165 595 4288 
L 480 4288 
L 294 3094 
L 410 3094 
C 429 3215 474 3540 550 3661 
C 589 3712 1062 3712 1171 3712 
L 2579 3712 
L 1869 2661 
C 1395 1954 1069 999 1069 165 
C 1069 89 1069 -128 1299 -128 
C 1530 -128 1530 89 1530 171 
L 1530 465 
C 1530 1508 1709 2196 2003 2636 
L 2886 3941 
z
" transform="scale(0.015625)"/>
        <path id="CMR17-35" d="M 730 3692 
C 794 3666 1056 3584 1325 3584 
C 1920 3584 2246 3911 2432 4100 
C 2432 4157 2432 4192 2394 4192 
C 2387 4192 2374 4192 2323 4163 
C 2099 4058 1837 3973 1517 3973 
C 1325 3973 1037 3999 723 4139 
C 653 4171 640 4171 634 4171 
C 602 4171 595 4164 595 4037 
L 595 2203 
C 595 2089 595 2057 659 2057 
C 691 2057 704 2070 736 2114 
C 941 2401 1222 2522 1542 2522 
C 1766 2522 2246 2382 2246 1289 
C 2246 1085 2246 715 2054 421 
C 1894 159 1645 25 1370 25 
C 947 25 518 320 403 814 
C 429 807 480 795 506 795 
C 589 795 749 840 749 1038 
C 749 1210 627 1280 506 1280 
C 358 1280 262 1190 262 1011 
C 262 454 704 -128 1382 -128 
C 2042 -128 2669 440 2669 1264 
C 2669 2030 2170 2624 1549 2624 
C 1222 2624 947 2503 730 2274 
L 730 3692 
z
" transform="scale(0.015625)"/>
       </defs>
       <use xlink:href="#CMSY10-0" transform="scale(0.996264)"/>
       <use xlink:href="#CMR17-37" transform="translate(77.487468 0) scale(0.996264)"/>
       <use xlink:href="#CMR17-35" transform="translate(123.177945 0) scale(0.996264)"/>
       <use xlink:href="#CMR17-30" transform="translate(168.868422 0) scale(0.996264)"/>
      </g>
     </g>
    </g>
    <g id="xtick_3">
     <g id="line2d_5">
      <path d="M 259.281959 370.348299 
L 259.281959 33.404405 
" clip-path="url(#p0d3f7786c9)" style="fill: none; stroke: #b0b0b0; stroke-width: 0.8; stroke-linecap: square"/>
     </g>
     <g id="line2d_6">
      <g>
       <use xlink:href="#mbf5281945d" x="259.281959" y="370.348299" style="stroke: #000000; stroke-width: 0.8"/>
      </g>
     </g>
     <g id="text_3">
      <!-- $\mathdefault{−500}$ -->
      <g transform="translate(239.971659 389.8016) scale(0.18 -0.18)">
       <use xlink:href="#CMSY10-0" transform="scale(0.996264)"/>
       <use xlink:href="#CMR17-35" transform="translate(77.487468 0) scale(0.996264)"/>
       <use xlink:href="#CMR17-30" transform="translate(123.177945 0) scale(0.996264)"/>
       <use xlink:href="#CMR17-30" transform="translate(168.868422 0) scale(0.996264)"/>
      </g>
     </g>
    </g>
    <g id="xtick_4">
     <g id="line2d_7">
      <path d="M 329.581653 370.348299 
L 329.581653 33.404405 
" clip-path="url(#p0d3f7786c9)" style="fill: none; stroke: #b0b0b0; stroke-width: 0.8; stroke-linecap: square"/>
     </g>
     <g id="line2d_8">
      <g>
       <use xlink:href="#mbf5281945d" x="329.581653" y="370.348299" style="stroke: #000000; stroke-width: 0.8"/>
      </g>
     </g>
     <g id="text_4">
      <!-- $\mathdefault{−250}$ -->
      <g transform="translate(310.271353 389.8016) scale(0.18 -0.18)">
       <defs>
        <path id="CMR17-32" d="M 2669 989 
L 2554 989 
C 2490 536 2438 459 2413 420 
C 2381 369 1920 369 1830 369 
L 602 369 
C 832 619 1280 1072 1824 1597 
C 2214 1967 2669 2402 2669 3035 
C 2669 3790 2067 4224 1395 4224 
C 691 4224 262 3604 262 3030 
C 262 2780 448 2748 525 2748 
C 589 2748 781 2787 781 3010 
C 781 3207 614 3264 525 3264 
C 486 3264 448 3258 422 3245 
C 544 3790 915 4058 1306 4058 
C 1862 4058 2227 3617 2227 3035 
C 2227 2479 1901 2000 1536 1584 
L 262 146 
L 262 0 
L 2515 0 
L 2669 989 
z
" transform="scale(0.015625)"/>
       </defs>
       <use xlink:href="#CMSY10-0" transform="scale(0.996264)"/>
       <use xlink:href="#CMR17-32" transform="translate(77.487468 0) scale(0.996264)"/>
       <use xlink:href="#CMR17-35" transform="translate(123.177945 0) scale(0.996264)"/>
       <use xlink:href="#CMR17-30" transform="translate(168.868422 0) scale(0.996264)"/>
      </g>
     </g>
    </g>
    <g id="xtick_5">
     <g id="line2d_9">
      <path d="M 399.881347 370.348299 
L 399.881347 33.404405 
" clip-path="url(#p0d3f7786c9)" style="fill: none; stroke: #b0b0b0; stroke-width: 0.8; stroke-linecap: square"/>
     </g>
     <g id="line2d_10">
      <g>
       <use xlink:href="#mbf5281945d" x="399.881347" y="370.348299" style="stroke: #000000; stroke-width: 0.8"/>
      </g>
     </g>
     <g id="text_5">
      <!-- $\mathdefault{0}$ -->
      <g transform="translate(395.769204 389.8016) scale(0.18 -0.18)">
       <use xlink:href="#CMR17-30" transform="scale(0.996264)"/>
      </g>
     </g>
    </g>
    <g id="xtick_6">
     <g id="line2d_11">
      <path d="M 470.181041 370.348299 
L 470.181041 33.404405 
" clip-path="url(#p0d3f7786c9)" style="fill: none; stroke: #b0b0b0; stroke-width: 0.8; stroke-linecap: square"/>
     </g>
     <g id="line2d_12">
      <g>
       <use xlink:href="#mbf5281945d" x="470.181041" y="370.348299" style="stroke: #000000; stroke-width: 0.8"/>
      </g>
     </g>
     <g id="text_6">
      <!-- $\mathdefault{250}$ -->
      <g transform="translate(457.844612 389.8016) scale(0.18 -0.18)">
       <use xlink:href="#CMR17-32" transform="scale(0.996264)"/>
       <use xlink:href="#CMR17-35" transform="translate(45.690477 0) scale(0.996264)"/>
       <use xlink:href="#CMR17-30" transform="translate(91.380954 0) scale(0.996264)"/>
      </g>
     </g>
    </g>
    <g id="xtick_7">
     <g id="line2d_13">
      <path d="M 540.480735 370.348299 
L 540.480735 33.404405 
" clip-path="url(#p0d3f7786c9)" style="fill: none; stroke: #b0b0b0; stroke-width: 0.8; stroke-linecap: square"/>
     </g>
     <g id="line2d_14">
      <g>
       <use xlink:href="#mbf5281945d" x="540.480735" y="370.348299" style="stroke: #000000; stroke-width: 0.8"/>
      </g>
     </g>
     <g id="text_7">
      <!-- $\mathdefault{500}$ -->
      <g transform="translate(528.144306 389.8016) scale(0.18 -0.18)">
       <use xlink:href="#CMR17-35" transform="scale(0.996264)"/>
       <use xlink:href="#CMR17-30" transform="translate(45.690477 0) scale(0.996264)"/>
       <use xlink:href="#CMR17-30" transform="translate(91.380954 0) scale(0.996264)"/>
      </g>
     </g>
    </g>
    <g id="xtick_8">
     <g id="line2d_15">
      <path d="M 610.780429 370.348299 
L 610.780429 33.404405 
" clip-path="url(#p0d3f7786c9)" style="fill: none; stroke: #b0b0b0; stroke-width: 0.8; stroke-linecap: square"/>
     </g>
     <g id="line2d_16">
      <g>
       <use xlink:href="#mbf5281945d" x="610.780429" y="370.348299" style="stroke: #000000; stroke-width: 0.8"/>
      </g>
     </g>
     <g id="text_8">
      <!-- $\mathdefault{750}$ -->
      <g transform="translate(598.444 389.8016) scale(0.18 -0.18)">
       <use xlink:href="#CMR17-37" transform="scale(0.996264)"/>
       <use xlink:href="#CMR17-35" transform="translate(45.690477 0) scale(0.996264)"/>
       <use xlink:href="#CMR17-30" transform="translate(91.380954 0) scale(0.996264)"/>
      </g>
     </g>
    </g>
    <g id="xtick_9">
     <g id="line2d_17">
      <path d="M 681.080122 370.348299 
L 681.080122 33.404405 
" clip-path="url(#p0d3f7786c9)" style="fill: none; stroke: #b0b0b0; stroke-width: 0.8; stroke-linecap: square"/>
     </g>
     <g id="line2d_18">
      <g>
       <use xlink:href="#mbf5281945d" x="681.080122" y="370.348299" style="stroke: #000000; stroke-width: 0.8"/>
      </g>
     </g>
     <g id="text_9">
      <!-- $\mathdefault{1000}$ -->
      <g transform="translate(664.631551 389.8016) scale(0.18 -0.18)">
       <use xlink:href="#CMR17-31" transform="scale(0.996264)"/>
       <use xlink:href="#CMR17-30" transform="translate(45.690477 0) scale(0.996264)"/>
       <use xlink:href="#CMR17-30" transform="translate(91.380954 0) scale(0.996264)"/>
       <use xlink:href="#CMR17-30" transform="translate(137.071431 0) scale(0.996264)"/>
      </g>
     </g>
    </g>
    <g id="text_10">
     <!-- \textbf{Experimental Detuning / Hz} -->
     <g transform="translate(229.575513 415.222416) scale(0.24 -0.24)">
      <defs>
       <path id="CMBX12-45" d="M 4518 1722 
L 4250 1722 
C 4115 771 3878 273 2765 273 
L 1766 273 
L 1766 2112 
L 2144 2112 
C 2758 2112 2822 1853 2822 1375 
L 3091 1375 
L 3091 3136 
L 2822 3136 
C 2822 2655 2758 2385 2144 2385 
L 1766 2385 
L 1766 4078 
L 2765 4078 
C 3744 4078 3955 3659 4051 2828 
L 4320 2828 
L 4134 4352 
L 243 4352 
L 243 4078 
L 922 4078 
L 922 273 
L 243 273 
L 243 0 
L 4243 0 
L 4518 1722 
z
" transform="scale(0.015625)"/>
       <path id="CMBX12-78" d="M 2157 1567 
L 2899 2415 
C 2970 2498 3027 2549 3558 2549 
L 3558 2816 
C 3200 2816 3187 2816 2970 2816 
C 2784 2816 2509 2816 2330 2822 
L 2330 2549 
C 2451 2549 2586 2517 2586 2472 
C 2586 2460 2554 2415 2541 2402 
L 1984 1778 
L 1350 2549 
L 1619 2549 
L 1619 2822 
C 1472 2816 1037 2816 864 2816 
C 672 2816 326 2816 147 2822 
L 147 2549 
L 602 2549 
L 1600 1338 
L 768 401 
C 691 312 646 267 115 267 
L 115 0 
C 499 0 512 0 710 0 
C 896 0 1165 0 1344 -6 
L 1344 267 
C 1222 267 1088 299 1088 344 
C 1088 350 1088 356 1133 407 
L 1773 1128 
L 2483 267 
L 2214 267 
L 2214 -6 
C 2368 0 2797 0 2976 0 
C 3168 0 3507 0 3686 -6 
L 3686 267 
L 3238 267 
L 2157 1567 
z
" transform="scale(0.015625)"/>
       <path id="CMBX12-70" d="M 1805 -955 
L 1363 -955 
L 1363 268 
C 1523 128 1805 -32 2189 -32 
C 3066 -32 3750 493 3750 1417 
C 3750 2290 3155 2853 2291 2853 
C 1914 2853 1587 2738 1331 2554 
L 1331 2859 
L 224 2859 
L 224 2560 
C 621 2560 666 2560 666 2310 
L 666 -955 
L 224 -955 
L 224 -1228 
C 371 -1216 832 -1216 1011 -1216 
C 1190 -1216 1658 -1216 1805 -1228 
L 1805 -955 
z
M 1363 2246 
C 1600 2530 1939 2624 2189 2624 
C 2605 2624 2982 2251 2982 1417 
C 2982 500 2522 178 2112 178 
C 1837 178 1562 319 1363 620 
L 1363 2246 
z
" transform="scale(0.015625)"/>
       <path id="CMBX12-65" d="M 2893 1408 
C 3040 1408 3078 1408 3078 1567 
C 3078 1758 3034 2233 2739 2532 
C 2470 2798 2112 2880 1741 2880 
C 742 2880 198 2233 198 1434 
C 198 545 858 -32 1824 -32 
C 2790 -32 3078 640 3078 748 
C 3078 843 2982 843 2944 843 
C 2842 843 2835 824 2797 742 
C 2630 330 2208 197 1901 197 
C 973 197 966 1053 966 1408 
L 2893 1408 
z
M 966 1593 
C 979 1852 986 2100 1120 2328 
C 1242 2531 1466 2670 1741 2670 
C 2426 2670 2483 1909 2490 1593 
L 966 1593 
z
" transform="scale(0.015625)"/>
       <path id="CMBX12-72" d="M 1331 1411 
C 1331 1619 1376 2624 2125 2624 
C 2035 2555 1990 2448 1990 2336 
C 1990 2079 2202 1972 2362 1972 
C 2522 1972 2733 2079 2733 2337 
C 2733 2658 2400 2834 2093 2834 
C 1587 2834 1370 2401 1280 2137 
L 1274 2137 
L 1274 2816 
L 224 2816 
L 224 2517 
C 621 2517 666 2517 666 2270 
L 666 260 
L 224 260 
L 224 -13 
C 371 0 851 0 1030 0 
C 1216 0 1734 0 1888 -13 
L 1888 260 
L 1331 260 
L 1331 1411 
z
" transform="scale(0.015625)"/>
       <path id="CMBX12-69" d="M 1427 3958 
C 1427 4219 1216 4416 966 4416 
C 704 4416 506 4200 506 3958 
C 506 3716 704 3500 966 3500 
C 1216 3500 1427 3697 1427 3958 
z
M 301 2816 
L 301 2517 
C 678 2517 723 2517 723 2270 
L 723 260 
L 282 260 
L 282 -13 
C 429 0 870 0 1043 0 
C 1222 0 1632 0 1786 -13 
L 1786 260 
L 1389 260 
L 1389 2816 
L 301 2816 
z
" transform="scale(0.015625)"/>
       <path id="CMBX12-6d" d="M 5402 1924 
C 5402 2506 5152 2834 4435 2834 
C 3789 2834 3488 2407 3386 2206 
C 3283 2740 2848 2834 2438 2834 
C 1824 2834 1491 2445 1357 2143 
L 1350 2143 
L 1350 2816 
L 269 2816 
L 269 2517 
C 666 2517 710 2517 710 2270 
L 710 260 
L 269 260 
L 269 -13 
C 416 0 877 0 1056 0 
C 1235 0 1702 0 1850 -13 
L 1850 260 
L 1408 260 
L 1408 1607 
C 1408 2296 1926 2624 2330 2624 
C 2566 2624 2707 2485 2707 1993 
L 2707 260 
L 2266 260 
L 2266 -13 
C 2413 0 2874 0 3053 0 
C 3232 0 3699 0 3846 -13 
L 3846 260 
L 3405 260 
L 3405 1607 
C 3405 2296 3923 2624 4326 2624 
C 4563 2624 4704 2485 4704 1993 
L 4704 260 
L 4262 260 
L 4262 -13 
C 4410 0 4870 0 5050 0 
C 5229 0 5696 0 5843 -13 
L 5843 260 
L 5402 260 
L 5402 1924 
z
" transform="scale(0.015625)"/>
       <path id="CMBX12-6e" d="M 3398 1924 
C 3398 2525 3136 2834 2432 2834 
C 1971 2834 1574 2615 1357 2143 
L 1350 2143 
L 1350 2816 
L 269 2816 
L 269 2517 
C 666 2517 710 2517 710 2270 
L 710 260 
L 269 260 
L 269 -13 
C 416 0 877 0 1056 0 
C 1235 0 1702 0 1850 -13 
L 1850 260 
L 1408 260 
L 1408 1607 
C 1408 2289 1920 2624 2330 2624 
C 2566 2624 2701 2473 2701 1993 
L 2701 260 
L 2259 260 
L 2259 -13 
C 2406 0 2867 0 3046 0 
C 3226 0 3693 0 3840 -13 
L 3840 260 
L 3398 260 
L 3398 1924 
z
" transform="scale(0.015625)"/>
       <path id="CMBX12-74" d="M 1350 2560 
L 2272 2560 
L 2272 2833 
L 1350 2833 
L 1350 4032 
L 1082 4032 
C 1075 3405 768 2776 134 2776 
L 134 2560 
L 653 2560 
L 653 789 
C 653 114 1178 -32 1638 -32 
C 2112 -32 2394 325 2394 795 
L 2394 1133 
L 2125 1133 
L 2125 802 
C 2125 381 1933 197 1734 197 
C 1350 197 1350 624 1350 770 
L 1350 2560 
z
" transform="scale(0.015625)"/>
       <path id="CMBX12-61" d="M 2944 1898 
C 2944 2484 2477 2879 1574 2879 
C 1216 2879 461 2879 461 2334 
C 461 2061 666 1945 838 1945 
C 1030 1945 1216 2079 1216 2323 
C 1216 2445 1171 2559 1062 2630 
C 1274 2688 1427 2688 1549 2688 
C 1984 2688 2246 2445 2246 1919 
L 2246 1663 
C 1235 1663 218 1382 218 676 
C 218 95 960 -32 1402 -32 
C 1894 -32 2208 233 2336 510 
C 2336 274 2336 0 2982 0 
L 3309 0 
C 3443 0 3494 0 3494 145 
C 3494 273 3437 273 3347 273 
C 2944 273 2944 374 2944 522 
L 2944 1898 
z
M 2246 882 
C 2246 291 1709 178 1504 178 
C 1190 178 928 390 928 686 
C 928 1273 1619 1472 2246 1472 
L 2246 882 
z
" transform="scale(0.015625)"/>
       <path id="CMBX12-6c" d="M 1389 4416 
L 282 4416 
L 282 4117 
C 678 4117 723 4117 723 3866 
L 723 260 
L 282 260 
L 282 -13 
C 429 0 883 0 1056 0 
C 1229 0 1683 0 1830 -13 
L 1830 260 
L 1389 260 
L 1389 4416 
z
" transform="scale(0.015625)"/>
       <path id="CMBX12-44" d="M 243 4370 
L 243 4096 
L 922 4096 
L 922 273 
L 243 273 
L 243 0 
L 2938 0 
C 4166 0 5114 783 5114 2147 
C 5114 3587 4141 4370 2938 4370 
L 243 4370 
z
M 1734 273 
L 1734 4096 
L 2694 4096 
C 3251 4096 3699 3880 3936 3548 
C 4122 3287 4243 2975 4243 2153 
C 4243 1407 4147 1077 3923 777 
C 3699 483 3270 273 2694 273 
L 1734 273 
z
" transform="scale(0.015625)"/>
       <path id="CMBX12-75" d="M 2259 2859 
L 2259 2560 
C 2656 2560 2701 2560 2701 2312 
L 2701 1056 
C 2701 569 2413 178 1914 178 
C 1434 178 1408 337 1408 684 
L 1408 2859 
L 269 2859 
L 269 2560 
C 666 2560 710 2560 710 2312 
L 710 794 
C 710 153 1139 -32 1824 -32 
C 1978 -32 2451 -32 2726 496 
L 2733 496 
L 2733 0 
L 3840 0 
L 3840 292 
C 3443 292 3398 292 3398 540 
L 3398 2859 
L 2259 2859 
z
" transform="scale(0.015625)"/>
       <path id="CMBX12-67" d="M 832 1189 
C 1139 1024 1498 1024 1594 1024 
C 2477 1024 2829 1514 2829 1960 
C 2829 2285 2643 2515 2566 2578 
C 2752 2676 2906 2700 3014 2713 
C 2995 2682 2976 2658 2976 2578 
C 2976 2450 3066 2334 3232 2334 
C 3398 2334 3488 2455 3488 2588 
C 3488 2741 3373 2944 3104 2944 
C 2829 2944 2566 2803 2432 2682 
C 2170 2834 1920 2891 1594 2891 
C 710 2891 358 2403 358 1957 
C 358 1760 422 1501 691 1285 
C 582 1161 467 933 467 699 
C 467 420 614 180 749 76 
C 595 39 198 -105 198 -461 
C 198 -830 614 -1248 1792 -1248 
C 2854 -1248 3392 -910 3392 -439 
C 3392 114 3021 295 2861 370 
C 2554 521 2144 521 1581 521 
C 1421 521 1139 521 1107 527 
C 832 575 755 829 755 957 
C 755 1010 762 1107 832 1189 
z
M 1594 1227 
C 1037 1227 1037 1665 1037 1957 
C 1037 2250 1037 2688 1594 2688 
C 2150 2688 2150 2250 2150 1957 
C 2150 1665 2150 1227 1594 1227 
z
M 1952 -64 
C 2419 -64 2867 -145 2867 -467 
C 2867 -685 2643 -1045 1798 -1045 
C 954 -1045 723 -697 723 -461 
C 723 -64 1126 -64 1222 -64 
L 1952 -64 
z
" transform="scale(0.015625)"/>
       <path id="CMBX12-2f" d="M 3162 4475 
C 3194 4551 3194 4577 3194 4590 
C 3194 4704 3104 4768 3021 4768 
C 2899 4768 2874 4691 2835 4602 
L 429 -1307 
C 397 -1383 397 -1409 397 -1421 
C 397 -1536 486 -1600 570 -1600 
C 691 -1600 717 -1530 755 -1434 
L 3162 4475 
z
" transform="scale(0.015625)"/>
       <path id="CMBX12-48" d="M 4704 4085 
L 5382 4085 
L 5382 4352 
C 5197 4352 4512 4352 4282 4352 
C 4051 4352 3366 4352 3181 4352 
L 3181 4085 
L 3859 4085 
L 3859 2385 
L 1766 2385 
L 1766 4085 
L 2445 4085 
L 2445 4352 
C 2259 4352 1574 4352 1344 4352 
C 1114 4352 429 4352 243 4352 
L 243 4085 
L 922 4085 
L 922 267 
L 243 267 
L 243 0 
C 429 0 1114 0 1344 0 
C 1574 0 2259 0 2445 0 
L 2445 267 
L 1766 267 
L 1766 2112 
L 3859 2112 
L 3859 267 
L 3181 267 
L 3181 0 
C 3366 0 4051 0 4282 0 
C 4512 0 5197 0 5382 0 
L 5382 267 
L 4704 267 
L 4704 4085 
z
" transform="scale(0.015625)"/>
       <path id="CMBX12-7a" d="M 2816 2575 
C 2874 2644 2874 2657 2874 2695 
C 2874 2816 2810 2816 2688 2816 
L 371 2816 
L 301 1725 
L 570 1725 
C 608 2327 749 2606 1459 2606 
L 2035 2606 
L 256 253 
C 198 184 198 172 198 127 
C 198 0 256 0 384 0 
L 2784 0 
L 2893 1256 
L 2624 1256 
C 2573 584 2432 229 1626 229 
L 1043 229 
L 2816 2575 
z
" transform="scale(0.015625)"/>
      </defs>
      <use xlink:href="#CMBX12-45" transform="scale(0.996264)"/>
      <use xlink:href="#CMBX12-78" transform="translate(73.566746 0) scale(0.996264)"/>
      <use xlink:href="#CMBX12-70" transform="translate(132.719921 0) scale(0.996264)"/>
      <use xlink:href="#CMBX12-65" transform="translate(198.099747 0) scale(0.996264)"/>
      <use xlink:href="#CMBX12-72" transform="translate(249.239014 0) scale(0.996264)"/>
      <use xlink:href="#CMBX12-69" transform="translate(295.016521 0) scale(0.996264)"/>
      <use xlink:href="#CMBX12-6d" transform="translate(326.149772 0) scale(0.996264)"/>
      <use xlink:href="#CMBX12-65" transform="translate(419.549523 0) scale(0.996264)"/>
      <use xlink:href="#CMBX12-6e" transform="translate(470.68879 0) scale(0.996264)"/>
      <use xlink:href="#CMBX12-74" transform="translate(529.841965 0) scale(0.996264)"/>
      <use xlink:href="#CMBX12-61" transform="translate(573.428516 0) scale(0.996264)"/>
      <use xlink:href="#CMBX12-6c" transform="translate(627.911704 0) scale(0.996264)"/>
      <use xlink:href="#CMBX12-44" transform="translate(696.404854 0) scale(0.996264)"/>
      <use xlink:href="#CMBX12-65" transform="translate(782.30964 0) scale(0.996264)"/>
      <use xlink:href="#CMBX12-74" transform="translate(833.448907 0) scale(0.996264)"/>
      <use xlink:href="#CMBX12-75" transform="translate(877.035458 0) scale(0.996264)"/>
      <use xlink:href="#CMBX12-6e" transform="translate(939.301958 0) scale(0.996264)"/>
      <use xlink:href="#CMBX12-69" transform="translate(1001.568459 0) scale(0.996264)"/>
      <use xlink:href="#CMBX12-6e" transform="translate(1032.701709 0) scale(0.996264)"/>
      <use xlink:href="#CMBX12-67" transform="translate(1094.96821 0) scale(0.996264)"/>
      <use xlink:href="#CMBX12-2f" transform="translate(1188.367961 0) scale(0.996264)"/>
      <use xlink:href="#CMBX12-48" transform="translate(1281.767712 0) scale(0.996264)"/>
      <use xlink:href="#CMBX12-7a" transform="translate(1369.402187 0) scale(0.996264)"/>
     </g>
    </g>
   </g>
   <g id="matplotlib.axis_2">
    <g id="ytick_1">
     <g id="line2d_19">
      <path d="M 90.562693 348.710981 
L 709.2 348.710981 
" clip-path="url(#p0d3f7786c9)" style="fill: none; stroke: #b0b0b0; stroke-width: 0.8; stroke-linecap: square"/>
     </g>
     <g id="line2d_20">
      <defs>
       <path id="mfbd45dc16a" d="M 0 0 
L -3.5 0 
" style="stroke: #000000; stroke-width: 0.8"/>
      </defs>
      <g>
       <use xlink:href="#mfbd45dc16a" x="90.562693" y="348.710981" style="stroke: #000000; stroke-width: 0.8"/>
      </g>
     </g>
     <g id="text_11">
      <!-- $\mathdefault{−1000}$ -->
      <g transform="translate(36.717808 354.937631) scale(0.18 -0.18)">
       <use xlink:href="#CMSY10-0" transform="scale(0.996264)"/>
       <use xlink:href="#CMR17-31" transform="translate(77.487468 0) scale(0.996264)"/>
       <use xlink:href="#CMR17-30" transform="translate(123.177945 0) scale(0.996264)"/>
       <use xlink:href="#CMR17-30" transform="translate(168.868422 0) scale(0.996264)"/>
       <use xlink:href="#CMR17-30" transform="translate(214.558899 0) scale(0.996264)"/>
      </g>
     </g>
    </g>
    <g id="ytick_2">
     <g id="line2d_21">
      <path d="M 90.562693 275.457534 
L 709.2 275.457534 
" clip-path="url(#p0d3f7786c9)" style="fill: none; stroke: #b0b0b0; stroke-width: 0.8; stroke-linecap: square"/>
     </g>
     <g id="line2d_22">
      <g>
       <use xlink:href="#mfbd45dc16a" x="90.562693" y="275.457534" style="stroke: #000000; stroke-width: 0.8"/>
      </g>
     </g>
     <g id="text_12">
      <!-- $\mathdefault{−500}$ -->
      <g transform="translate(44.942094 281.684184) scale(0.18 -0.18)">
       <use xlink:href="#CMSY10-0" transform="scale(0.996264)"/>
       <use xlink:href="#CMR17-35" transform="translate(77.487468 0) scale(0.996264)"/>
       <use xlink:href="#CMR17-30" transform="translate(123.177945 0) scale(0.996264)"/>
       <use xlink:href="#CMR17-30" transform="translate(168.868422 0) scale(0.996264)"/>
      </g>
     </g>
    </g>
    <g id="ytick_3">
     <g id="line2d_23">
      <path d="M 90.562693 202.204087 
L 709.2 202.204087 
" clip-path="url(#p0d3f7786c9)" style="fill: none; stroke: #b0b0b0; stroke-width: 0.8; stroke-linecap: square"/>
     </g>
     <g id="line2d_24">
      <g>
       <use xlink:href="#mfbd45dc16a" x="90.562693" y="202.204087" style="stroke: #000000; stroke-width: 0.8"/>
      </g>
     </g>
     <g id="text_13">
      <!-- $\mathdefault{0}$ -->
      <g transform="translate(75.338408 208.430737) scale(0.18 -0.18)">
       <use xlink:href="#CMR17-30" transform="scale(0.996264)"/>
      </g>
     </g>
    </g>
    <g id="ytick_4">
     <g id="line2d_25">
      <path d="M 90.562693 128.95064 
L 709.2 128.95064 
" clip-path="url(#p0d3f7786c9)" style="fill: none; stroke: #b0b0b0; stroke-width: 0.8; stroke-linecap: square"/>
     </g>
     <g id="line2d_26">
      <g>
       <use xlink:href="#mfbd45dc16a" x="90.562693" y="128.95064" style="stroke: #000000; stroke-width: 0.8"/>
      </g>
     </g>
     <g id="text_14">
      <!-- $\mathdefault{500}$ -->
      <g transform="translate(58.889836 135.17729) scale(0.18 -0.18)">
       <use xlink:href="#CMR17-35" transform="scale(0.996264)"/>
       <use xlink:href="#CMR17-30" transform="translate(45.690477 0) scale(0.996264)"/>
       <use xlink:href="#CMR17-30" transform="translate(91.380954 0) scale(0.996264)"/>
      </g>
     </g>
    </g>
    <g id="ytick_5">
     <g id="line2d_27">
      <path d="M 90.562693 55.697193 
L 709.2 55.697193 
" clip-path="url(#p0d3f7786c9)" style="fill: none; stroke: #b0b0b0; stroke-width: 0.8; stroke-linecap: square"/>
     </g>
     <g id="line2d_28">
      <g>
       <use xlink:href="#mfbd45dc16a" x="90.562693" y="55.697193" style="stroke: #000000; stroke-width: 0.8"/>
      </g>
     </g>
     <g id="text_15">
      <!-- $\mathdefault{1000}$ -->
      <g transform="translate(50.66555 61.923843) scale(0.18 -0.18)">
       <use xlink:href="#CMR17-31" transform="scale(0.996264)"/>
       <use xlink:href="#CMR17-30" transform="translate(45.690477 0) scale(0.996264)"/>
       <use xlink:href="#CMR17-30" transform="translate(91.380954 0) scale(0.996264)"/>
       <use xlink:href="#CMR17-30" transform="translate(137.071431 0) scale(0.996264)"/>
      </g>
     </g>
    </g>
    <g id="text_16">
     <!-- \textbf{Fitted Detuning / Hz} -->
     <g transform="translate(27.238356 318.733297) rotate(-90) scale(0.22 -0.22)">
      <defs>
       <path id="CMBX12-46" d="M 4032 4306 
L 243 4306 
L 243 4032 
L 922 4032 
L 922 267 
L 243 267 
L 243 0 
C 429 0 1158 0 1395 0 
C 1734 0 2304 0 2618 0 
L 2618 267 
L 1766 267 
L 1766 2030 
L 2118 2030 
C 2733 2030 2784 1748 2784 1280 
L 3053 1280 
L 3053 3042 
L 2784 3042 
C 2784 2581 2733 2304 2118 2304 
L 1766 2304 
L 1766 4032 
L 2682 4032 
C 3699 4032 3859 3576 3949 2821 
L 4218 2821 
L 4032 4306 
z
" transform="scale(0.015625)"/>
       <path id="CMBX12-64" d="M 2221 4416 
L 2221 4117 
C 2618 4117 2662 4117 2662 3867 
L 2662 2575 
C 2522 2696 2240 2880 1798 2880 
C 890 2880 243 2318 243 1424 
C 243 510 877 -32 1728 -32 
C 2080 -32 2381 94 2630 311 
L 2630 0 
L 3770 0 
L 3770 292 
C 3373 292 3328 292 3328 540 
L 3328 4416 
L 2221 4416 
z
M 2630 661 
C 2362 262 2035 178 1805 178 
C 1011 178 1011 989 1011 1411 
C 1011 1712 1011 2032 1152 2274 
C 1350 2632 1728 2670 1875 2670 
C 2138 2670 2419 2556 2630 2276 
L 2630 661 
z
" transform="scale(0.015625)"/>
      </defs>
      <use xlink:href="#CMBX12-46" transform="scale(0.996264)"/>
      <use xlink:href="#CMBX12-69" transform="translate(70.453421 0) scale(0.996264)"/>
      <use xlink:href="#CMBX12-74" transform="translate(101.586671 0) scale(0.996264)"/>
      <use xlink:href="#CMBX12-74" transform="translate(145.173221 0) scale(0.996264)"/>
      <use xlink:href="#CMBX12-65" transform="translate(188.759772 0) scale(0.996264)"/>
      <use xlink:href="#CMBX12-64" transform="translate(239.899039 0) scale(0.996264)"/>
      <use xlink:href="#CMBX12-44" transform="translate(339.52544 0) scale(0.996264)"/>
      <use xlink:href="#CMBX12-65" transform="translate(425.430226 0) scale(0.996264)"/>
      <use xlink:href="#CMBX12-74" transform="translate(476.569493 0) scale(0.996264)"/>
      <use xlink:href="#CMBX12-75" transform="translate(520.156043 0) scale(0.996264)"/>
      <use xlink:href="#CMBX12-6e" transform="translate(582.422544 0) scale(0.996264)"/>
      <use xlink:href="#CMBX12-69" transform="translate(644.689045 0) scale(0.996264)"/>
      <use xlink:href="#CMBX12-6e" transform="translate(675.822295 0) scale(0.996264)"/>
      <use xlink:href="#CMBX12-67" transform="translate(738.088795 0) scale(0.996264)"/>
      <use xlink:href="#CMBX12-2f" transform="translate(831.488546 0) scale(0.996264)"/>
      <use xlink:href="#CMBX12-48" transform="translate(924.888297 0) scale(0.996264)"/>
      <use xlink:href="#CMBX12-7a" transform="translate(1012.522772 0) scale(0.996264)"/>
     </g>
    </g>
   </g>
   <g id="LineCollection_1">
    <path d="M 118.682571 355.032668 
L 118.682571 343.510623 
" clip-path="url(#p0d3f7786c9)" style="fill: none; stroke: #1f77b4; stroke-width: 1.5"/>
    <path d="M 181.171188 315.816229 
L 181.171188 304.313321 
" clip-path="url(#p0d3f7786c9)" style="fill: none; stroke: #1f77b4; stroke-width: 1.5"/>
    <path d="M 243.659805 286.997973 
L 243.659805 275.53735 
" clip-path="url(#p0d3f7786c9)" style="fill: none; stroke: #1f77b4; stroke-width: 1.5"/>
    <path d="M 306.148422 252.540638 
L 306.148422 241.061561 
" clip-path="url(#p0d3f7786c9)" style="fill: none; stroke: #1f77b4; stroke-width: 1.5"/>
    <path d="M 368.637038 223.66272 
L 368.637038 212.185773 
" clip-path="url(#p0d3f7786c9)" style="fill: none; stroke: #1f77b4; stroke-width: 1.5"/>
    <path d="M 431.125655 199.855707 
L 431.125655 188.353516 
" clip-path="url(#p0d3f7786c9)" style="fill: none; stroke: #1f77b4; stroke-width: 1.5"/>
    <path d="M 493.614272 157.067359 
L 493.614272 145.587106 
" clip-path="url(#p0d3f7786c9)" style="fill: none; stroke: #1f77b4; stroke-width: 1.5"/>
    <path d="M 556.102889 131.85859 
L 556.102889 120.310994 
" clip-path="url(#p0d3f7786c9)" style="fill: none; stroke: #1f77b4; stroke-width: 1.5"/>
    <path d="M 618.591506 101.996559 
L 618.591506 90.407267 
" clip-path="url(#p0d3f7786c9)" style="fill: none; stroke: #1f77b4; stroke-width: 1.5"/>
    <path d="M 681.080122 133.115443 
L 681.080122 48.720037 
" clip-path="url(#p0d3f7786c9)" style="fill: none; stroke: #1f77b4; stroke-width: 1.5"/>
   </g>
   <g id="line2d_29">
    <defs>
     <path id="mef93f89091" d="M 4 0 
L -4 -0 
" style="stroke: #1f77b4"/>
    </defs>
    <g clip-path="url(#p0d3f7786c9)">
     <use xlink:href="#mef93f89091" x="118.682571" y="355.032668" style="fill: #1f77b4; stroke: #1f77b4"/>
     <use xlink:href="#mef93f89091" x="181.171188" y="315.816229" style="fill: #1f77b4; stroke: #1f77b4"/>
     <use xlink:href="#mef93f89091" x="243.659805" y="286.997973" style="fill: #1f77b4; stroke: #1f77b4"/>
     <use xlink:href="#mef93f89091" x="306.148422" y="252.540638" style="fill: #1f77b4; stroke: #1f77b4"/>
     <use xlink:href="#mef93f89091" x="368.637038" y="223.66272" style="fill: #1f77b4; stroke: #1f77b4"/>
     <use xlink:href="#mef93f89091" x="431.125655" y="199.855707" style="fill: #1f77b4; stroke: #1f77b4"/>
     <use xlink:href="#mef93f89091" x="493.614272" y="157.067359" style="fill: #1f77b4; stroke: #1f77b4"/>
     <use xlink:href="#mef93f89091" x="556.102889" y="131.85859" style="fill: #1f77b4; stroke: #1f77b4"/>
     <use xlink:href="#mef93f89091" x="618.591506" y="101.996559" style="fill: #1f77b4; stroke: #1f77b4"/>
     <use xlink:href="#mef93f89091" x="681.080122" y="133.115443" style="fill: #1f77b4; stroke: #1f77b4"/>
    </g>
   </g>
   <g id="line2d_30">
    <g clip-path="url(#p0d3f7786c9)">
     <use xlink:href="#mef93f89091" x="118.682571" y="343.510623" style="fill: #1f77b4; stroke: #1f77b4"/>
     <use xlink:href="#mef93f89091" x="181.171188" y="304.313321" style="fill: #1f77b4; stroke: #1f77b4"/>
     <use xlink:href="#mef93f89091" x="243.659805" y="275.53735" style="fill: #1f77b4; stroke: #1f77b4"/>
     <use xlink:href="#mef93f89091" x="306.148422" y="241.061561" style="fill: #1f77b4; stroke: #1f77b4"/>
     <use xlink:href="#mef93f89091" x="368.637038" y="212.185773" style="fill: #1f77b4; stroke: #1f77b4"/>
     <use xlink:href="#mef93f89091" x="431.125655" y="188.353516" style="fill: #1f77b4; stroke: #1f77b4"/>
     <use xlink:href="#mef93f89091" x="493.614272" y="145.587106" style="fill: #1f77b4; stroke: #1f77b4"/>
     <use xlink:href="#mef93f89091" x="556.102889" y="120.310994" style="fill: #1f77b4; stroke: #1f77b4"/>
     <use xlink:href="#mef93f89091" x="618.591506" y="90.407267" style="fill: #1f77b4; stroke: #1f77b4"/>
     <use xlink:href="#mef93f89091" x="681.080122" y="48.720037" style="fill: #1f77b4; stroke: #1f77b4"/>
    </g>
   </g>
   <g id="line2d_31">
    <path d="M 118.682571 348.710981 
L 181.171188 316.153894 
L 243.659805 283.596806 
L 306.148422 251.039719 
L 368.637038 218.482631 
L 431.125655 185.925543 
L 493.614272 153.368456 
L 556.102889 120.811368 
L 618.591506 88.254281 
L 681.080122 55.697193 
" clip-path="url(#p0d3f7786c9)" style="fill: none; stroke-dasharray: 7.4,3.2; stroke-dashoffset: 0; stroke: #808080; stroke-width: 2"/>
   </g>
   <g id="line2d_32">
    <defs>
     <path id="mdd66ecde30" d="M 0 3 
C 0.795609 3 1.55874 2.683901 2.12132 2.12132 
C 2.683901 1.55874 3 0.795609 3 0 
C 3 -0.795609 2.683901 -1.55874 2.12132 -2.12132 
C 1.55874 -2.683901 0.795609 -3 0 -3 
C -0.795609 -3 -1.55874 -2.683901 -2.12132 -2.12132 
C -2.683901 -1.55874 -3 -0.795609 -3 0 
C -3 0.795609 -2.683901 1.55874 -2.12132 2.12132 
C -1.55874 2.683901 -0.795609 3 0 3 
z
" style="stroke: #1f77b4"/>
    </defs>
    <g clip-path="url(#p0d3f7786c9)">
     <use xlink:href="#mdd66ecde30" x="118.682571" y="349.271646" style="fill: #1f77b4; stroke: #1f77b4"/>
     <use xlink:href="#mdd66ecde30" x="181.171188" y="310.064775" style="fill: #1f77b4; stroke: #1f77b4"/>
     <use xlink:href="#mdd66ecde30" x="243.659805" y="281.267662" style="fill: #1f77b4; stroke: #1f77b4"/>
     <use xlink:href="#mdd66ecde30" x="306.148422" y="246.801099" style="fill: #1f77b4; stroke: #1f77b4"/>
     <use xlink:href="#mdd66ecde30" x="368.637038" y="217.924247" style="fill: #1f77b4; stroke: #1f77b4"/>
     <use xlink:href="#mdd66ecde30" x="431.125655" y="194.104611" style="fill: #1f77b4; stroke: #1f77b4"/>
     <use xlink:href="#mdd66ecde30" x="493.614272" y="151.327233" style="fill: #1f77b4; stroke: #1f77b4"/>
     <use xlink:href="#mdd66ecde30" x="556.102889" y="126.084792" style="fill: #1f77b4; stroke: #1f77b4"/>
     <use xlink:href="#mdd66ecde30" x="618.591506" y="96.201913" style="fill: #1f77b4; stroke: #1f77b4"/>
     <use xlink:href="#mdd66ecde30" x="681.080122" y="90.91774" style="fill: #1f77b4; stroke: #1f77b4"/>
    </g>
   </g>
   <g id="patch_3">
    <path d="M 90.562693 370.348299 
L 90.562693 33.404405 
" style="fill: none; stroke: #000000; stroke-width: 0.8; stroke-linejoin: miter; stroke-linecap: square"/>
   </g>
   <g id="patch_4">
    <path d="M 709.2 370.348299 
L 709.2 33.404405 
" style="fill: none; stroke: #000000; stroke-width: 0.8; stroke-linejoin: miter; stroke-linecap: square"/>
   </g>
   <g id="patch_5">
    <path d="M 90.562693 370.348299 
L 709.2 370.348299 
" style="fill: none; stroke: #000000; stroke-width: 0.8; stroke-linejoin: miter; stroke-linecap: square"/>
   </g>
   <g id="patch_6">
    <path d="M 90.562693 33.404405 
L 709.2 33.404405 
" style="fill: none; stroke: #000000; stroke-width: 0.8; stroke-linejoin: miter; stroke-linecap: square"/>
   </g>
   <g id="text_17">
    <!-- \textbf{Detuning Sweep} -->
    <g transform="translate(304.288427 27.404405) scale(0.24 -0.24)">
     <defs>
      <path id="CMBX12-53" d="M 1626 2782 
C 992 2920 973 3376 973 3465 
C 973 3787 1184 4162 1805 4162 
C 2426 4162 2982 3863 3117 3030 
C 3136 2896 3136 2896 3258 2896 
C 3392 2896 3392 2915 3392 3060 
L 3392 4252 
C 3392 4372 3392 4417 3296 4417 
C 3251 4417 3232 4411 3174 4347 
L 2899 4035 
C 2739 4169 2419 4416 1798 4416 
C 883 4416 397 3846 397 3156 
C 397 2732 627 2434 717 2345 
C 1050 2016 1229 1978 1894 1832 
C 2534 1693 2611 1680 2752 1548 
C 2835 1465 3021 1288 3021 965 
C 3021 692 2886 192 2170 192 
C 1606 192 717 382 666 1307 
C 659 1421 659 1440 531 1440 
C 397 1440 397 1421 397 1275 
L 397 83 
C 397 -38 397 -82 493 -82 
C 538 -82 544 -76 608 -19 
C 678 51 736 134 896 293 
C 1267 1 1792 -81 2176 -81 
C 3174 -81 3597 590 3597 1262 
C 3597 1856 3200 2426 2502 2584 
L 1626 2782 
z
" transform="scale(0.015625)"/>
      <path id="CMBX12-77" d="M 4608 2396 
C 4653 2504 4672 2549 5043 2549 
L 5043 2816 
C 4858 2816 4774 2816 4544 2816 
C 4282 2816 4198 2816 3968 2816 
L 3968 2549 
C 4026 2549 4339 2549 4339 2466 
C 4339 2460 4339 2453 4314 2390 
L 3642 737 
L 2906 2549 
L 3270 2549 
L 3270 2822 
C 3117 2816 2739 2816 2566 2816 
C 2240 2816 2227 2816 1907 2816 
L 1907 2549 
L 2285 2549 
C 2304 2498 2336 2415 2362 2358 
C 2381 2320 2445 2167 2445 2135 
C 2445 2123 2426 2078 2419 2059 
L 1933 858 
L 1242 2549 
L 1606 2549 
L 1606 2822 
C 1459 2816 1024 2816 851 2816 
C 646 2816 339 2816 147 2816 
L 147 2549 
L 525 2549 
L 1504 127 
C 1549 13 1574 -32 1715 -32 
C 1786 -32 1862 -32 1914 95 
L 2592 1780 
L 3270 108 
C 3328 -32 3398 -32 3475 -32 
C 3616 -32 3635 6 3680 121 
L 4608 2396 
z
" transform="scale(0.015625)"/>
     </defs>
     <use xlink:href="#CMBX12-44" transform="scale(0.996264)"/>
     <use xlink:href="#CMBX12-65" transform="translate(85.904786 0) scale(0.996264)"/>
     <use xlink:href="#CMBX12-74" transform="translate(137.044053 0) scale(0.996264)"/>
     <use xlink:href="#CMBX12-75" transform="translate(180.630603 0) scale(0.996264)"/>
     <use xlink:href="#CMBX12-6e" transform="translate(242.897104 0) scale(0.996264)"/>
     <use xlink:href="#CMBX12-69" transform="translate(305.163605 0) scale(0.996264)"/>
     <use xlink:href="#CMBX12-6e" transform="translate(336.296855 0) scale(0.996264)"/>
     <use xlink:href="#CMBX12-67" transform="translate(398.563356 0) scale(0.996264)"/>
     <use xlink:href="#CMBX12-53" transform="translate(491.963106 0) scale(0.996264)"/>
     <use xlink:href="#CMBX12-77" transform="translate(554.229607 0) scale(0.996264)"/>
     <use xlink:href="#CMBX12-65" transform="translate(632.062733 0) scale(0.996264)"/>
     <use xlink:href="#CMBX12-65" transform="translate(683.202 0) scale(0.996264)"/>
     <use xlink:href="#CMBX12-70" transform="translate(734.341267 0) scale(0.996264)"/>
    </g>
   </g>
   <g id="legend_1">
    <g id="patch_7">
     <path d="M 103.162693 97.980534 
L 311.288949 97.980534 
Q 314.888949 97.980534 314.888949 94.380534 
L 314.888949 46.004405 
Q 314.888949 42.404405 311.288949 42.404405 
L 103.162693 42.404405 
Q 99.562693 42.404405 99.562693 46.004405 
L 99.562693 94.380534 
Q 99.562693 97.980534 103.162693 97.980534 
z
" style="fill: #ffffff; opacity: 0.8; stroke: #cccccc; stroke-linejoin: miter"/>
    </g>
    <g id="line2d_33">
     <path d="M 106.762693 55.904405 
L 124.762693 55.904405 
L 142.762693 55.904405 
" style="fill: none; stroke-dasharray: 7.4,3.2; stroke-dashoffset: 0; stroke: #808080; stroke-width: 2"/>
    </g>
    <g id="text_18">
     <!-- Expected detunings -->
     <g transform="translate(157.162693 62.204405) scale(0.18 -0.18)">
      <defs>
       <path id="CMR17-45" d="M 3885 1615 
L 3770 1615 
C 3629 676 3546 166 2419 166 
L 1530 166 
C 1274 166 1261 197 1261 414 
L 1261 2176 
L 1862 2176 
C 2464 2176 2522 1960 2522 1430 
L 2637 1430 
L 2637 3081 
L 2522 3081 
C 2522 2557 2464 2342 1862 2342 
L 1261 2342 
L 1261 3913 
C 1261 4128 1274 4160 1530 4160 
L 2406 4160 
C 3398 4160 3514 3769 3603 2929 
L 3718 2929 
L 3565 4325 
L 326 4325 
L 326 4160 
C 768 4160 838 4160 838 3874 
L 838 451 
C 838 166 768 166 326 166 
L 326 0 
L 3654 0 
L 3885 1615 
z
" transform="scale(0.015625)"/>
       <path id="CMR17-78" d="M 1664 1477 
C 1856 1726 2074 2006 2253 2216 
C 2464 2458 2707 2560 2989 2560 
L 2989 2726 
C 2880 2726 2656 2726 2541 2726 
C 2368 2726 2170 2726 2022 2732 
L 2022 2566 
C 2112 2553 2163 2489 2163 2400 
C 2163 2285 2099 2215 2067 2171 
L 1594 1573 
L 1030 2306 
C 973 2376 973 2388 973 2420 
C 973 2497 1037 2560 1146 2560 
L 1146 2732 
C 992 2726 717 2726 557 2726 
C 384 2726 179 2726 38 2732 
L 38 2560 
C 384 2560 461 2534 614 2343 
L 1350 1395 
C 1363 1382 1395 1344 1395 1325 
C 1395 1299 838 619 768 530 
C 480 185 179 160 6 160 
L 6 0 
C 115 0 339 0 454 0 
C 582 0 864 0 979 -6 
L 979 160 
C 941 166 838 179 838 325 
C 838 440 890 510 947 586 
L 1478 1236 
L 2035 512 
C 2086 442 2163 346 2163 301 
C 2163 211 2086 160 1984 160 
L 1984 -6 
C 2138 0 2413 0 2573 0 
C 2746 0 2950 0 3091 -6 
L 3091 160 
C 2771 160 2675 172 2522 370 
L 1664 1477 
z
" transform="scale(0.015625)"/>
       <path id="CMR17-70" d="M 1408 -1063 
C 998 -1063 973 -1037 973 -789 
L 973 402 
C 1158 134 1427 -38 1766 -38 
C 2406 -38 3053 523 3053 1388 
C 3053 2191 2496 2802 1837 2802 
C 1453 2802 1139 2592 960 2338 
L 960 2802 
L 198 2732 
L 198 2567 
C 576 2567 634 2528 634 2223 
L 634 -789 
C 634 -1031 608 -1063 198 -1063 
L 198 -1228 
C 352 -1216 634 -1216 800 -1216 
C 966 -1216 1254 -1216 1408 -1228 
L 1408 -1063 
z
M 973 2012 
C 973 2102 973 2235 1222 2471 
C 1254 2497 1472 2688 1792 2688 
C 2259 2688 2643 2108 2643 1382 
C 2643 656 2234 64 1728 64 
C 1498 64 1248 172 1056 472 
C 973 612 973 650 973 752 
L 973 2012 
z
" transform="scale(0.015625)"/>
       <path id="CMR17-65" d="M 2438 1472 
C 2464 1498 2464 1511 2464 1576 
C 2464 2238 2118 2816 1389 2816 
C 710 2816 173 2169 173 1383 
C 173 551 781 -64 1459 -64 
C 2176 -64 2458 607 2458 740 
C 2458 784 2419 784 2406 784 
C 2362 784 2355 771 2330 696 
C 2189 265 1837 51 1504 51 
C 1229 51 954 203 781 480 
C 582 803 582 1176 582 1472 
L 2438 1472 
z
M 589 1568 
C 634 2505 1126 2714 1382 2714 
C 1818 2714 2112 2297 2118 1568 
L 589 1568 
z
" transform="scale(0.015625)"/>
       <path id="CMR17-63" d="M 2234 2240 
C 2112 2240 1933 2240 1933 2017 
C 1933 1838 2080 1787 2163 1787 
C 2208 1787 2394 1807 2394 2024 
C 2394 2467 1958 2803 1466 2803 
C 787 2803 211 2178 211 1363 
C 211 516 813 -64 1466 -64 
C 2259 -64 2458 677 2458 748 
C 2458 774 2451 793 2406 793 
C 2362 793 2355 787 2330 703 
C 2163 180 1798 51 1523 51 
C 1114 51 621 427 621 1369 
C 621 2338 1094 2688 1472 2688 
C 1722 2688 2093 2573 2234 2240 
z
" transform="scale(0.015625)"/>
       <path id="CMR17-74" d="M 966 2560 
L 1862 2560 
L 1862 2725 
L 966 2725 
L 966 3904 
L 851 3904 
C 838 3245 614 2668 70 2668 
L 70 2560 
L 627 2560 
L 627 771 
C 627 650 627 -64 1370 -64 
C 1747 -64 1965 306 1965 777 
L 1965 1140 
L 1850 1140 
L 1850 783 
C 1850 344 1677 51 1408 51 
C 1222 51 966 178 966 758 
L 966 2560 
z
" transform="scale(0.015625)"/>
       <path id="CMR17-64" d="M 1869 4326 
L 1869 4160 
C 2246 4160 2304 4122 2304 3820 
L 2304 2345 
C 2278 2377 2016 2790 1498 2790 
C 845 2790 211 2208 211 1364 
C 211 525 806 -64 1434 -64 
C 1978 -64 2259 337 2291 380 
L 2291 -63 
L 3066 -63 
L 3066 128 
C 2688 128 2630 166 2630 473 
L 2630 4396 
L 1869 4326 
z
M 2291 755 
C 2291 563 2176 390 2029 262 
C 1811 70 1594 38 1472 38 
C 1286 38 621 134 621 1356 
C 621 2612 1363 2688 1530 2688 
C 1824 2688 2061 2522 2208 2291 
C 2291 2157 2291 2138 2291 2023 
L 2291 755 
z
" transform="scale(0.015625)"/>
       <path id="CMR17-75" d="M 1882 2693 
L 1882 2528 
C 2259 2528 2317 2489 2317 2186 
L 2317 1032 
C 2317 500 2029 38 1555 38 
C 1030 38 986 348 986 678 
L 986 2763 
L 211 2693 
L 211 2528 
C 467 2528 640 2528 646 2274 
L 646 1058 
C 646 633 646 361 813 183 
C 896 101 1056 -64 1517 -64 
C 2061 -64 2272 377 2323 506 
L 2330 506 
L 2330 -63 
L 3091 -63 
L 3091 128 
C 2714 128 2656 166 2656 473 
L 2656 2763 
L 1882 2693 
z
" transform="scale(0.015625)"/>
       <path id="CMR17-6e" d="M 2656 1933 
C 2656 2259 2592 2790 1837 2790 
C 1331 2790 1069 2400 973 2144 
L 966 2144 
L 966 2790 
L 211 2720 
L 211 2554 
C 589 2554 646 2515 646 2208 
L 646 428 
C 646 184 621 153 211 153 
L 211 -13 
C 365 0 646 0 813 0 
C 979 0 1267 0 1421 -13 
L 1421 153 
C 1011 153 986 178 986 428 
L 986 1658 
C 986 2247 1344 2688 1792 2688 
C 2266 2688 2317 2266 2317 1958 
L 2317 428 
C 2317 184 2291 153 1882 153 
L 1882 -13 
C 2035 0 2317 0 2483 0 
C 2650 0 2938 0 3091 -13 
L 3091 153 
C 2682 153 2656 178 2656 428 
L 2656 1933 
z
" transform="scale(0.015625)"/>
       <path id="CMR17-69" d="M 992 3909 
C 992 4049 877 4170 730 4170 
C 589 4170 467 4056 467 3909 
C 467 3769 582 3648 730 3648 
C 870 3648 992 3763 992 3909 
z
M 243 2706 
L 243 2541 
C 602 2541 653 2502 653 2197 
L 653 427 
C 653 184 627 153 218 153 
L 218 -13 
C 371 0 646 0 806 0 
C 960 0 1222 0 1370 -13 
L 1370 153 
C 992 153 979 191 979 420 
L 979 2776 
L 243 2706 
z
" transform="scale(0.015625)"/>
       <path id="CMR17-67" d="M 710 1164 
C 832 1068 1043 960 1299 960 
C 1805 960 2240 1357 2240 1888 
C 2240 2054 2189 2310 1997 2509 
C 2176 2692 2438 2752 2586 2752 
C 2611 2752 2650 2752 2682 2734 
C 2656 2728 2598 2703 2598 2605 
C 2598 2527 2656 2471 2739 2471 
C 2835 2471 2886 2533 2886 2614 
C 2886 2731 2790 2854 2586 2854 
C 2330 2854 2106 2738 1926 2580 
C 1734 2753 1504 2816 1299 2816 
C 794 2816 358 2419 358 1888 
C 358 1522 570 1292 634 1228 
C 442 1004 442 743 442 711 
C 442 545 506 302 723 168 
C 390 85 128 -169 128 -486 
C 128 -943 736 -1280 1466 -1280 
C 2170 -1280 2803 -956 2803 -479 
C 2803 384 1856 384 1363 384 
C 1216 384 954 384 922 391 
C 723 423 589 602 589 826 
C 589 883 589 1024 710 1164 
z
M 1299 1068 
C 736 1068 736 1760 736 1889 
C 736 2016 736 2708 1299 2708 
C 1862 2708 1862 2016 1862 1889 
C 1862 1760 1862 1068 1299 1068 
z
M 1466 -1171 
C 826 -1171 384 -835 384 -486 
C 384 -289 493 -105 634 -4 
C 794 104 858 104 1293 104 
C 1818 104 2547 104 2547 -486 
C 2547 -835 2106 -1171 1466 -1171 
z
" transform="scale(0.015625)"/>
       <path id="CMR17-73" d="M 1978 2697 
C 1978 2813 1971 2819 1933 2819 
C 1907 2819 1901 2813 1824 2717 
C 1805 2691 1747 2626 1728 2601 
C 1523 2819 1235 2819 1126 2819 
C 416 2819 160 2447 160 2076 
C 160 1498 813 1365 998 1325 
C 1402 1243 1542 1217 1677 1101 
C 1760 1025 1901 884 1901 654 
C 1901 384 1747 38 1158 38 
C 602 38 403 460 288 1021 
C 269 1110 269 1117 218 1117 
C 166 1117 160 1110 160 983 
L 160 63 
C 160 -51 166 -58 205 -58 
C 237 -58 243 -51 275 0 
C 314 57 410 211 448 276 
C 576 103 800 -64 1158 -64 
C 1792 -64 2131 283 2131 784 
C 2131 1112 1958 1285 1875 1362 
C 1683 1561 1459 1606 1190 1657 
C 838 1735 390 1825 390 2217 
C 390 2383 480 2737 1126 2737 
C 1811 2737 1850 2094 1862 1888 
C 1869 1856 1901 1849 1920 1849 
C 1978 1849 1978 1869 1978 1978 
L 1978 2697 
z
" transform="scale(0.015625)"/>
      </defs>
      <use xlink:href="#CMR17-45" transform="scale(0.996264)"/>
      <use xlink:href="#CMR17-78" transform="translate(62.586301 0) scale(0.996264)"/>
      <use xlink:href="#CMR17-70" transform="translate(110.879216 0) scale(0.996264)"/>
      <use xlink:href="#CMR17-65" transform="translate(164.377025 0) scale(0.996264)"/>
      <use xlink:href="#CMR17-63" transform="translate(204.862685 0) scale(0.996264)"/>
      <use xlink:href="#CMR17-74" transform="translate(245.348346 0) scale(0.996264)"/>
      <use xlink:href="#CMR17-65" transform="translate(280.629114 0) scale(0.996264)"/>
      <use xlink:href="#CMR17-64" transform="translate(321.114774 0) scale(0.996264)"/>
      <use xlink:href="#CMR17-64" transform="translate(402.08611 0) scale(0.996264)"/>
      <use xlink:href="#CMR17-65" transform="translate(452.98148 0) scale(0.996264)"/>
      <use xlink:href="#CMR17-74" transform="translate(493.46714 0) scale(0.996264)"/>
      <use xlink:href="#CMR17-75" transform="translate(528.747908 0) scale(0.996264)"/>
      <use xlink:href="#CMR17-6e" transform="translate(579.643278 0) scale(0.996264)"/>
      <use xlink:href="#CMR17-69" transform="translate(630.538648 0) scale(0.996264)"/>
      <use xlink:href="#CMR17-6e" transform="translate(655.409706 0) scale(0.996264)"/>
      <use xlink:href="#CMR17-67" transform="translate(706.305076 0) scale(0.996264)"/>
      <use xlink:href="#CMR17-73" transform="translate(751.995553 0) scale(0.996264)"/>
     </g>
    </g>
    <g id="LineCollection_2">
     <path d="M 124.762693 89.992469 
L 124.762693 71.992469 
" style="fill: none; stroke: #1f77b4; stroke-width: 1.5"/>
    </g>
    <g id="line2d_34">
     <g>
      <use xlink:href="#mef93f89091" x="124.762693" y="89.992469" style="fill: #1f77b4; stroke: #1f77b4"/>
     </g>
    </g>
    <g id="line2d_35">
     <g>
      <use xlink:href="#mef93f89091" x="124.762693" y="71.992469" style="fill: #1f77b4; stroke: #1f77b4"/>
     </g>
    </g>
    <g id="line2d_36"/>
    <g id="line2d_37">
     <g>
      <use xlink:href="#mdd66ecde30" x="124.762693" y="80.992469" style="fill: #1f77b4; stroke: #1f77b4"/>
     </g>
    </g>
    <g id="text_19">
     <!-- Calibrated detunings -->
     <g transform="translate(157.162693 87.292469) scale(0.18 -0.18)">
      <defs>
       <path id="CMR17-43" d="M 3974 4289 
C 3974 4403 3968 4410 3930 4410 
C 3904 4410 3898 4403 3853 4327 
L 3571 3792 
C 3258 4187 2874 4416 2381 4416 
C 1286 4416 294 3456 294 2148 
C 294 826 1286 -128 2387 -128 
C 3366 -128 3974 730 3974 1461 
C 3974 1524 3974 1550 3917 1550 
C 3866 1550 3866 1531 3859 1474 
C 3808 585 3168 38 2477 38 
C 1824 38 781 495 781 2147 
C 781 3805 1843 4250 2464 4250 
C 3187 4250 3712 3628 3834 2745 
C 3846 2668 3846 2655 3904 2655 
C 3974 2655 3974 2668 3974 2783 
L 3974 4289 
z
" transform="scale(0.015625)"/>
       <path id="CMR17-61" d="M 2304 1653 
C 2304 2072 2304 2294 2035 2543 
C 1798 2752 1523 2816 1306 2816 
C 800 2816 435 2407 435 1971 
C 435 1728 627 1728 666 1728 
C 749 1728 896 1778 896 1954 
C 896 2112 774 2181 666 2181 
C 640 2181 608 2174 589 2168 
C 723 2592 1069 2714 1293 2714 
C 1613 2714 1965 2429 1965 1885 
L 1965 1600 
C 1587 1600 1133 1549 774 1357 
C 371 1133 256 813 256 570 
C 256 77 832 -64 1171 -64 
C 1523 -64 1850 139 1990 511 
C 2003 233 2182 -18 2464 -18 
C 2598 -18 2938 70 2938 567 
L 2938 920 
L 2822 920 
L 2822 562 
C 2822 178 2650 128 2566 128 
C 2304 128 2304 458 2304 738 
L 2304 1653 
z
M 1965 870 
C 1965 317 1568 38 1216 38 
C 896 38 646 275 646 570 
C 646 761 730 1100 1101 1305 
C 1408 1478 1760 1504 1965 1504 
L 1965 870 
z
" transform="scale(0.015625)"/>
       <path id="CMR17-6c" d="M 979 4396 
L 218 4326 
L 218 4160 
C 595 4160 653 4122 653 3817 
L 653 426 
C 653 184 627 153 218 153 
L 218 -13 
C 371 0 653 0 813 0 
C 979 0 1261 0 1414 -13 
L 1414 153 
C 1005 153 979 178 979 426 
L 979 4396 
z
" transform="scale(0.015625)"/>
       <path id="CMR17-62" d="M 960 4396 
L 198 4326 
L 198 4160 
C 576 4160 634 4122 634 3817 
L 634 -13 
L 749 -13 
L 934 441 
C 1120 141 1395 -64 1766 -64 
C 2406 -64 3053 500 3053 1370 
C 3053 2188 2477 2790 1830 2790 
C 1434 2790 1152 2579 960 2330 
L 960 4396 
z
M 973 2004 
C 973 2118 973 2138 1062 2272 
C 1312 2657 1670 2688 1792 2688 
C 1984 2688 2643 2585 2643 1376 
C 2643 108 1888 38 1734 38 
C 1536 38 1248 114 1043 486 
C 973 608 973 621 973 735 
L 973 2004 
z
" transform="scale(0.015625)"/>
       <path id="CMR17-72" d="M 960 1497 
C 960 2112 1222 2688 1702 2688 
C 1747 2688 1792 2682 1837 2662 
C 1837 2662 1696 2617 1696 2452 
C 1696 2298 1818 2234 1914 2234 
C 1990 2234 2131 2279 2131 2458 
C 2131 2663 1926 2790 1709 2790 
C 1222 2790 1011 2317 947 2093 
L 941 2093 
L 941 2790 
L 198 2720 
L 198 2554 
C 576 2554 634 2515 634 2208 
L 634 428 
C 634 184 608 153 198 153 
L 198 -13 
C 352 0 646 0 813 0 
C 998 0 1325 0 1498 -13 
L 1498 153 
C 1037 153 960 153 960 440 
L 960 1497 
z
" transform="scale(0.015625)"/>
      </defs>
      <use xlink:href="#CMR17-43" transform="scale(0.996264)"/>
      <use xlink:href="#CMR17-61" transform="translate(66.509881 0) scale(0.996264)"/>
      <use xlink:href="#CMR17-6c" transform="translate(112.200358 0) scale(0.996264)"/>
      <use xlink:href="#CMR17-69" transform="translate(137.071416 0) scale(0.996264)"/>
      <use xlink:href="#CMR17-62" transform="translate(161.942475 0) scale(0.996264)"/>
      <use xlink:href="#CMR17-72" transform="translate(212.837844 0) scale(0.996264)"/>
      <use xlink:href="#CMR17-61" transform="translate(248.118612 0) scale(0.996264)"/>
      <use xlink:href="#CMR17-74" transform="translate(293.809089 0) scale(0.996264)"/>
      <use xlink:href="#CMR17-65" transform="translate(329.089857 0) scale(0.996264)"/>
      <use xlink:href="#CMR17-64" transform="translate(369.575518 0) scale(0.996264)"/>
      <use xlink:href="#CMR17-64" transform="translate(450.546854 0) scale(0.996264)"/>
      <use xlink:href="#CMR17-65" transform="translate(501.442223 0) scale(0.996264)"/>
      <use xlink:href="#CMR17-74" transform="translate(541.927884 0) scale(0.996264)"/>
      <use xlink:href="#CMR17-75" transform="translate(577.208652 0) scale(0.996264)"/>
      <use xlink:href="#CMR17-6e" transform="translate(628.104022 0) scale(0.996264)"/>
      <use xlink:href="#CMR17-69" transform="translate(678.999391 0) scale(0.996264)"/>
      <use xlink:href="#CMR17-6e" transform="translate(703.87045 0) scale(0.996264)"/>
      <use xlink:href="#CMR17-67" transform="translate(754.76582 0) scale(0.996264)"/>
      <use xlink:href="#CMR17-73" transform="translate(800.456297 0) scale(0.996264)"/>
     </g>
    </g>
   </g>
  </g>
 </g>
 <defs>
  <clipPath id="p0d3f7786c9">
   <rect x="90.562693" y="33.404405" width="618.637307" height="336.943894"/>
  </clipPath>
 </defs>
</svg>
