<?xml version="1.0" encoding="utf-8" standalone="no"?>
<!DOCTYPE svg PUBLIC "-//W3C//DTD SVG 1.1//EN"
  "http://www.w3.org/Graphics/SVG/1.1/DTD/svg11.dtd">
<svg xmlns:xlink="http://www.w3.org/1999/xlink" width="864pt" height="432pt" viewBox="0 0 864 432" xmlns="http://www.w3.org/2000/svg" version="1.1">
 <metadata>
  <rdf:RDF xmlns:dc="http://purl.org/dc/elements/1.1/" xmlns:cc="http://creativecommons.org/ns#" xmlns:rdf="http://www.w3.org/1999/02/22-rdf-syntax-ns#">
   <cc:Work>
    <dc:type rdf:resource="http://purl.org/dc/dcmitype/StillImage"/>
    <dc:date>2025-07-08T03:02:00.649632</dc:date>
    <dc:format>image/svg+xml</dc:format>
    <dc:creator>
     <cc:Agent>
      <dc:title>Matplotlib v3.10.1, https://matplotlib.org/</dc:title>
     </cc:Agent>
    </dc:creator>
   </cc:Work>
  </rdf:RDF>
 </metadata>
 <defs>
  <style type="text/css">*{stroke-linejoin: round; stroke-linecap: butt}</style>
 </defs>
 <g id="figure_1">
  <g id="patch_1">
   <path d="M 0 432 
L 864 432 
L 864 0 
L 0 0 
z
" style="fill: #ffffff"/>
  </g>
  <g id="axes_1">
   <g id="patch_2">
    <path d="M 47.766064 389.618636 
L 590.243134 389.618636 
L 590.243134 19.44 
L 47.766064 19.44 
z
" style="fill: #ffffff"/>
   </g>
   <g id="matplotlib.axis_1">
    <g id="xtick_1">
     <g id="line2d_1">
      <path d="M 72.424112 389.618636 
L 72.424112 19.44 
" clip-path="url(#paa1bc2e48c)" style="fill: none; stroke: #b0b0b0; stroke-width: 0.8; stroke-linecap: square"/>
     </g>
     <g id="line2d_2">
      <defs>
       <path id="ma2457bfd91" d="M 0 0 
L 0 3.5 
" style="stroke: #000000; stroke-width: 0.8"/>
      </defs>
      <g>
       <use xlink:href="#ma2457bfd91" x="72.424112" y="389.618636" style="stroke: #000000; stroke-width: 0.8"/>
      </g>
     </g>
     <g id="text_1">
      <!-- $\mathdefault{0.00}$ -->
      <g transform="translate(57.648938 409.071936) scale(0.18 -0.18)">
       <defs>
        <path id="CMR17-30" d="M 2688 2025 
C 2688 2416 2682 3080 2413 3591 
C 2176 4039 1798 4198 1466 4198 
C 1158 4198 768 4058 525 3597 
C 269 3118 243 2524 243 2025 
C 243 1661 250 1106 448 619 
C 723 -39 1216 -128 1466 -128 
C 1760 -128 2208 -7 2470 600 
C 2662 1042 2688 1559 2688 2025 
z
M 1466 -26 
C 1056 -26 813 325 723 812 
C 653 1188 653 1738 653 2096 
C 653 2588 653 2997 736 3387 
C 858 3929 1216 4096 1466 4096 
C 1728 4096 2067 3923 2189 3400 
C 2272 3036 2278 2607 2278 2096 
C 2278 1680 2278 1169 2202 792 
C 2067 95 1690 -26 1466 -26 
z
" transform="scale(0.015625)"/>
        <path id="CMMI12-3a" d="M 1178 307 
C 1178 492 1024 619 870 619 
C 685 619 557 466 557 313 
C 557 128 710 0 864 0 
C 1050 0 1178 153 1178 307 
z
" transform="scale(0.015625)"/>
       </defs>
       <use xlink:href="#CMR17-30" transform="scale(0.996264)"/>
       <use xlink:href="#CMMI12-3a" transform="translate(45.690477 0) scale(0.996264)"/>
       <use xlink:href="#CMR17-30" transform="translate(72.787654 0) scale(0.996264)"/>
       <use xlink:href="#CMR17-30" transform="translate(118.478131 0) scale(0.996264)"/>
      </g>
     </g>
    </g>
    <g id="xtick_2">
     <g id="line2d_3">
      <path d="M 134.069234 389.618636 
L 134.069234 19.44 
" clip-path="url(#paa1bc2e48c)" style="fill: none; stroke: #b0b0b0; stroke-width: 0.8; stroke-linecap: square"/>
     </g>
     <g id="line2d_4">
      <g>
       <use xlink:href="#ma2457bfd91" x="134.069234" y="389.618636" style="stroke: #000000; stroke-width: 0.8"/>
      </g>
     </g>
     <g id="text_2">
      <!-- $\mathdefault{0.25}$ -->
      <g transform="translate(119.294059 409.071936) scale(0.18 -0.18)">
       <defs>
        <path id="CMR17-32" d="M 2669 989 
L 2554 989 
C 2490 536 2438 459 2413 420 
C 2381 369 1920 369 1830 369 
L 602 369 
C 832 619 1280 1072 1824 1597 
C 2214 1967 2669 2402 2669 3035 
C 2669 3790 2067 4224 1395 4224 
C 691 4224 262 3604 262 3030 
C 262 2780 448 2748 525 2748 
C 589 2748 781 2787 781 3010 
C 781 3207 614 3264 525 3264 
C 486 3264 448 3258 422 3245 
C 544 3790 915 4058 1306 4058 
C 1862 4058 2227 3617 2227 3035 
C 2227 2479 1901 2000 1536 1584 
L 262 146 
L 262 0 
L 2515 0 
L 2669 989 
z
" transform="scale(0.015625)"/>
        <path id="CMR17-35" d="M 730 3692 
C 794 3666 1056 3584 1325 3584 
C 1920 3584 2246 3911 2432 4100 
C 2432 4157 2432 4192 2394 4192 
C 2387 4192 2374 4192 2323 4163 
C 2099 4058 1837 3973 1517 3973 
C 1325 3973 1037 3999 723 4139 
C 653 4171 640 4171 634 4171 
C 602 4171 595 4164 595 4037 
L 595 2203 
C 595 2089 595 2057 659 2057 
C 691 2057 704 2070 736 2114 
C 941 2401 1222 2522 1542 2522 
C 1766 2522 2246 2382 2246 1289 
C 2246 1085 2246 715 2054 421 
C 1894 159 1645 25 1370 25 
C 947 25 518 320 403 814 
C 429 807 480 795 506 795 
C 589 795 749 840 749 1038 
C 749 1210 627 1280 506 1280 
C 358 1280 262 1190 262 1011 
C 262 454 704 -128 1382 -128 
C 2042 -128 2669 440 2669 1264 
C 2669 2030 2170 2624 1549 2624 
C 1222 2624 947 2503 730 2274 
L 730 3692 
z
" transform="scale(0.015625)"/>
       </defs>
       <use xlink:href="#CMR17-30" transform="scale(0.996264)"/>
       <use xlink:href="#CMMI12-3a" transform="translate(45.690477 0) scale(0.996264)"/>
       <use xlink:href="#CMR17-32" transform="translate(72.787654 0) scale(0.996264)"/>
       <use xlink:href="#CMR17-35" transform="translate(118.478131 0) scale(0.996264)"/>
      </g>
     </g>
    </g>
    <g id="xtick_3">
     <g id="line2d_5">
      <path d="M 195.714356 389.618636 
L 195.714356 19.44 
" clip-path="url(#paa1bc2e48c)" style="fill: none; stroke: #b0b0b0; stroke-width: 0.8; stroke-linecap: square"/>
     </g>
     <g id="line2d_6">
      <g>
       <use xlink:href="#ma2457bfd91" x="195.714356" y="389.618636" style="stroke: #000000; stroke-width: 0.8"/>
      </g>
     </g>
     <g id="text_3">
      <!-- $\mathdefault{0.50}$ -->
      <g transform="translate(180.939181 409.071936) scale(0.18 -0.18)">
       <use xlink:href="#CMR17-30" transform="scale(0.996264)"/>
       <use xlink:href="#CMMI12-3a" transform="translate(45.690477 0) scale(0.996264)"/>
       <use xlink:href="#CMR17-35" transform="translate(72.787654 0) scale(0.996264)"/>
       <use xlink:href="#CMR17-30" transform="translate(118.478131 0) scale(0.996264)"/>
      </g>
     </g>
    </g>
    <g id="xtick_4">
     <g id="line2d_7">
      <path d="M 257.359477 389.618636 
L 257.359477 19.44 
" clip-path="url(#paa1bc2e48c)" style="fill: none; stroke: #b0b0b0; stroke-width: 0.8; stroke-linecap: square"/>
     </g>
     <g id="line2d_8">
      <g>
       <use xlink:href="#ma2457bfd91" x="257.359477" y="389.618636" style="stroke: #000000; stroke-width: 0.8"/>
      </g>
     </g>
     <g id="text_4">
      <!-- $\mathdefault{0.75}$ -->
      <g transform="translate(242.584303 409.071936) scale(0.18 -0.18)">
       <defs>
        <path id="CMR17-37" d="M 2886 3941 
L 2886 4081 
L 1382 4081 
C 634 4081 621 4165 595 4288 
L 480 4288 
L 294 3094 
L 410 3094 
C 429 3215 474 3540 550 3661 
C 589 3712 1062 3712 1171 3712 
L 2579 3712 
L 1869 2661 
C 1395 1954 1069 999 1069 165 
C 1069 89 1069 -128 1299 -128 
C 1530 -128 1530 89 1530 171 
L 1530 465 
C 1530 1508 1709 2196 2003 2636 
L 2886 3941 
z
" transform="scale(0.015625)"/>
       </defs>
       <use xlink:href="#CMR17-30" transform="scale(0.996264)"/>
       <use xlink:href="#CMMI12-3a" transform="translate(45.690477 0) scale(0.996264)"/>
       <use xlink:href="#CMR17-37" transform="translate(72.787654 0) scale(0.996264)"/>
       <use xlink:href="#CMR17-35" transform="translate(118.478131 0) scale(0.996264)"/>
      </g>
     </g>
    </g>
    <g id="xtick_5">
     <g id="line2d_9">
      <path d="M 319.004599 389.618636 
L 319.004599 19.44 
" clip-path="url(#paa1bc2e48c)" style="fill: none; stroke: #b0b0b0; stroke-width: 0.8; stroke-linecap: square"/>
     </g>
     <g id="line2d_10">
      <g>
       <use xlink:href="#ma2457bfd91" x="319.004599" y="389.618636" style="stroke: #000000; stroke-width: 0.8"/>
      </g>
     </g>
     <g id="text_5">
      <!-- $\mathdefault{1.00}$ -->
      <g transform="translate(304.229424 409.071936) scale(0.18 -0.18)">
       <defs>
        <path id="CMR17-31" d="M 1702 4058 
C 1702 4192 1696 4192 1606 4192 
C 1357 3916 979 3827 621 3827 
C 602 3827 570 3827 563 3808 
C 557 3795 557 3782 557 3648 
C 755 3648 1088 3686 1344 3839 
L 1344 461 
C 1344 236 1331 160 781 160 
L 589 160 
L 589 0 
C 896 0 1216 0 1523 0 
C 1830 0 2150 0 2458 0 
L 2458 160 
L 2266 160 
C 1715 160 1702 230 1702 458 
L 1702 4058 
z
" transform="scale(0.015625)"/>
       </defs>
       <use xlink:href="#CMR17-31" transform="scale(0.996264)"/>
       <use xlink:href="#CMMI12-3a" transform="translate(45.690477 0) scale(0.996264)"/>
       <use xlink:href="#CMR17-30" transform="translate(72.787654 0) scale(0.996264)"/>
       <use xlink:href="#CMR17-30" transform="translate(118.478131 0) scale(0.996264)"/>
      </g>
     </g>
    </g>
    <g id="xtick_6">
     <g id="line2d_11">
      <path d="M 380.649721 389.618636 
L 380.649721 19.44 
" clip-path="url(#paa1bc2e48c)" style="fill: none; stroke: #b0b0b0; stroke-width: 0.8; stroke-linecap: square"/>
     </g>
     <g id="line2d_12">
      <g>
       <use xlink:href="#ma2457bfd91" x="380.649721" y="389.618636" style="stroke: #000000; stroke-width: 0.8"/>
      </g>
     </g>
     <g id="text_6">
      <!-- $\mathdefault{1.25}$ -->
      <g transform="translate(365.874546 409.071936) scale(0.18 -0.18)">
       <use xlink:href="#CMR17-31" transform="scale(0.996264)"/>
       <use xlink:href="#CMMI12-3a" transform="translate(45.690477 0) scale(0.996264)"/>
       <use xlink:href="#CMR17-32" transform="translate(72.787654 0) scale(0.996264)"/>
       <use xlink:href="#CMR17-35" transform="translate(118.478131 0) scale(0.996264)"/>
      </g>
     </g>
    </g>
    <g id="xtick_7">
     <g id="line2d_13">
      <path d="M 442.294842 389.618636 
L 442.294842 19.44 
" clip-path="url(#paa1bc2e48c)" style="fill: none; stroke: #b0b0b0; stroke-width: 0.8; stroke-linecap: square"/>
     </g>
     <g id="line2d_14">
      <g>
       <use xlink:href="#ma2457bfd91" x="442.294842" y="389.618636" style="stroke: #000000; stroke-width: 0.8"/>
      </g>
     </g>
     <g id="text_7">
      <!-- $\mathdefault{1.50}$ -->
      <g transform="translate(427.519667 409.071936) scale(0.18 -0.18)">
       <use xlink:href="#CMR17-31" transform="scale(0.996264)"/>
       <use xlink:href="#CMMI12-3a" transform="translate(45.690477 0) scale(0.996264)"/>
       <use xlink:href="#CMR17-35" transform="translate(72.787654 0) scale(0.996264)"/>
       <use xlink:href="#CMR17-30" transform="translate(118.478131 0) scale(0.996264)"/>
      </g>
     </g>
    </g>
    <g id="xtick_8">
     <g id="line2d_15">
      <path d="M 503.939964 389.618636 
L 503.939964 19.44 
" clip-path="url(#paa1bc2e48c)" style="fill: none; stroke: #b0b0b0; stroke-width: 0.8; stroke-linecap: square"/>
     </g>
     <g id="line2d_16">
      <g>
       <use xlink:href="#ma2457bfd91" x="503.939964" y="389.618636" style="stroke: #000000; stroke-width: 0.8"/>
      </g>
     </g>
     <g id="text_8">
      <!-- $\mathdefault{1.75}$ -->
      <g transform="translate(489.164789 409.071936) scale(0.18 -0.18)">
       <use xlink:href="#CMR17-31" transform="scale(0.996264)"/>
       <use xlink:href="#CMMI12-3a" transform="translate(45.690477 0) scale(0.996264)"/>
       <use xlink:href="#CMR17-37" transform="translate(72.787654 0) scale(0.996264)"/>
       <use xlink:href="#CMR17-35" transform="translate(118.478131 0) scale(0.996264)"/>
      </g>
     </g>
    </g>
    <g id="xtick_9">
     <g id="line2d_17">
      <path d="M 565.585086 389.618636 
L 565.585086 19.44 
" clip-path="url(#paa1bc2e48c)" style="fill: none; stroke: #b0b0b0; stroke-width: 0.8; stroke-linecap: square"/>
     </g>
     <g id="line2d_18">
      <g>
       <use xlink:href="#ma2457bfd91" x="565.585086" y="389.618636" style="stroke: #000000; stroke-width: 0.8"/>
      </g>
     </g>
     <g id="text_9">
      <!-- $\mathdefault{2.00}$ -->
      <g transform="translate(550.809911 409.071936) scale(0.18 -0.18)">
       <use xlink:href="#CMR17-32" transform="scale(0.996264)"/>
       <use xlink:href="#CMMI12-3a" transform="translate(45.690477 0) scale(0.996264)"/>
       <use xlink:href="#CMR17-30" transform="translate(72.787654 0) scale(0.996264)"/>
       <use xlink:href="#CMR17-30" transform="translate(118.478131 0) scale(0.996264)"/>
      </g>
     </g>
    </g>
    <g id="text_10">
     <!-- Phase / $\pi$ -->
     <g transform="translate(279.340853 431.486022) scale(0.2 -0.2)">
      <defs>
       <path id="CMR17-50" d="M 1267 2042 
L 2291 2042 
C 3117 2042 3718 2578 3718 3184 
C 3718 3791 3130 4352 2291 4352 
L 333 4352 
L 333 4186 
C 774 4186 845 4186 845 3899 
L 845 446 
C 845 160 774 160 333 160 
L 333 0 
C 518 0 858 0 1056 0 
C 1254 0 1594 0 1779 0 
L 1779 160 
C 1338 160 1267 160 1267 446 
L 1267 2042 
z
M 1254 2176 
L 1254 3938 
C 1254 4155 1267 4186 1523 4186 
L 2170 4186 
C 2995 4186 3232 3714 3232 3184 
C 3232 2604 2950 2176 2170 2176 
L 1254 2176 
z
" transform="scale(0.015625)"/>
       <path id="CMR17-68" d="M 2656 1933 
C 2656 2259 2592 2790 1837 2790 
C 1312 2790 1056 2368 979 2157 
L 973 2157 
L 973 4396 
L 211 4326 
L 211 4160 
C 589 4160 646 4122 646 3817 
L 646 426 
C 646 184 621 153 211 153 
L 211 -13 
C 365 0 646 0 813 0 
C 979 0 1267 0 1421 -13 
L 1421 153 
C 1011 153 986 178 986 428 
L 986 1658 
C 986 2247 1344 2688 1792 2688 
C 2266 2688 2317 2266 2317 1958 
L 2317 428 
C 2317 184 2291 153 1882 153 
L 1882 -13 
C 2035 0 2317 0 2483 0 
C 2650 0 2938 0 3091 -13 
L 3091 153 
C 2682 153 2656 178 2656 428 
L 2656 1933 
z
" transform="scale(0.015625)"/>
       <path id="CMR17-61" d="M 2304 1653 
C 2304 2072 2304 2294 2035 2543 
C 1798 2752 1523 2816 1306 2816 
C 800 2816 435 2407 435 1971 
C 435 1728 627 1728 666 1728 
C 749 1728 896 1778 896 1954 
C 896 2112 774 2181 666 2181 
C 640 2181 608 2174 589 2168 
C 723 2592 1069 2714 1293 2714 
C 1613 2714 1965 2429 1965 1885 
L 1965 1600 
C 1587 1600 1133 1549 774 1357 
C 371 1133 256 813 256 570 
C 256 77 832 -64 1171 -64 
C 1523 -64 1850 139 1990 511 
C 2003 233 2182 -18 2464 -18 
C 2598 -18 2938 70 2938 567 
L 2938 920 
L 2822 920 
L 2822 562 
C 2822 178 2650 128 2566 128 
C 2304 128 2304 458 2304 738 
L 2304 1653 
z
M 1965 870 
C 1965 317 1568 38 1216 38 
C 896 38 646 275 646 570 
C 646 761 730 1100 1101 1305 
C 1408 1478 1760 1504 1965 1504 
L 1965 870 
z
" transform="scale(0.015625)"/>
       <path id="CMR17-73" d="M 1978 2697 
C 1978 2813 1971 2819 1933 2819 
C 1907 2819 1901 2813 1824 2717 
C 1805 2691 1747 2626 1728 2601 
C 1523 2819 1235 2819 1126 2819 
C 416 2819 160 2447 160 2076 
C 160 1498 813 1365 998 1325 
C 1402 1243 1542 1217 1677 1101 
C 1760 1025 1901 884 1901 654 
C 1901 384 1747 38 1158 38 
C 602 38 403 460 288 1021 
C 269 1110 269 1117 218 1117 
C 166 1117 160 1110 160 983 
L 160 63 
C 160 -51 166 -58 205 -58 
C 237 -58 243 -51 275 0 
C 314 57 410 211 448 276 
C 576 103 800 -64 1158 -64 
C 1792 -64 2131 283 2131 784 
C 2131 1112 1958 1285 1875 1362 
C 1683 1561 1459 1606 1190 1657 
C 838 1735 390 1825 390 2217 
C 390 2383 480 2737 1126 2737 
C 1811 2737 1850 2094 1862 1888 
C 1869 1856 1901 1849 1920 1849 
C 1978 1849 1978 1869 1978 1978 
L 1978 2697 
z
" transform="scale(0.015625)"/>
       <path id="CMR17-65" d="M 2438 1472 
C 2464 1498 2464 1511 2464 1576 
C 2464 2238 2118 2816 1389 2816 
C 710 2816 173 2169 173 1383 
C 173 551 781 -64 1459 -64 
C 2176 -64 2458 607 2458 740 
C 2458 784 2419 784 2406 784 
C 2362 784 2355 771 2330 696 
C 2189 265 1837 51 1504 51 
C 1229 51 954 203 781 480 
C 582 803 582 1176 582 1472 
L 2438 1472 
z
M 589 1568 
C 634 2505 1126 2714 1382 2714 
C 1818 2714 2112 2297 2118 1568 
L 589 1568 
z
" transform="scale(0.015625)"/>
       <path id="CMR17-2f" d="M 2605 4545 
C 2637 4627 2637 4640 2637 4653 
C 2637 4729 2579 4768 2528 4768 
C 2451 4768 2426 4717 2400 4640 
L 326 -1377 
C 294 -1460 294 -1473 294 -1486 
C 294 -1562 352 -1600 403 -1600 
C 480 -1600 506 -1549 531 -1473 
L 2605 4545 
z
" transform="scale(0.015625)"/>
       <path id="CMMI12-19" d="M 1658 2408 
L 2381 2408 
C 2208 1692 2099 1226 2099 716 
C 2099 626 2099 -64 2362 -64 
C 2496 -64 2611 57 2611 166 
C 2611 197 2611 210 2566 306 
C 2394 747 2394 1296 2394 1341 
C 2394 1379 2394 1832 2528 2408 
L 3245 2408 
C 3328 2408 3539 2408 3539 2612 
C 3539 2752 3418 2752 3302 2752 
L 1197 2752 
C 1050 2752 832 2752 538 2440 
C 371 2254 166 1916 166 1878 
C 166 1840 198 1827 237 1827 
C 282 1827 288 1846 320 1884 
C 653 2408 986 2408 1146 2408 
L 1510 2408 
C 1370 1929 1210 1373 685 256 
C 634 154 634 140 634 102 
C 634 -32 749 -64 806 -64 
C 992 -64 1043 102 1120 370 
C 1222 696 1222 709 1286 964 
L 1658 2408 
z
" transform="scale(0.015625)"/>
      </defs>
      <use xlink:href="#CMR17-50" transform="scale(0.996264)"/>
      <use xlink:href="#CMR17-68" transform="translate(62.586301 0) scale(0.996264)"/>
      <use xlink:href="#CMR17-61" transform="translate(113.48167 0) scale(0.996264)"/>
      <use xlink:href="#CMR17-73" transform="translate(159.172147 0) scale(0.996264)"/>
      <use xlink:href="#CMR17-65" transform="translate(194.973485 0) scale(0.996264)"/>
      <use xlink:href="#CMR17-2f" transform="translate(265.535112 0) scale(0.996264)"/>
      <use xlink:href="#CMMI12-19" transform="translate(341.301555 0) scale(0.996264)"/>
     </g>
    </g>
   </g>
   <g id="matplotlib.axis_2">
    <g id="ytick_1">
     <g id="line2d_19">
      <path d="M 47.766064 372.826593 
L 590.243134 372.826593 
" clip-path="url(#paa1bc2e48c)" style="fill: none; stroke: #b0b0b0; stroke-width: 0.8; stroke-linecap: square"/>
     </g>
     <g id="line2d_20">
      <defs>
       <path id="ma7d54abbc0" d="M 0 0 
L -3.5 0 
" style="stroke: #000000; stroke-width: 0.8"/>
      </defs>
      <g>
       <use xlink:href="#ma7d54abbc0" x="47.766064" y="372.826593" style="stroke: #000000; stroke-width: 0.8"/>
      </g>
     </g>
     <g id="text_11">
      <!-- $\mathdefault{0.0}$ -->
      <g transform="translate(19.44 379.053243) scale(0.18 -0.18)">
       <use xlink:href="#CMR17-30" transform="scale(0.996264)"/>
       <use xlink:href="#CMMI12-3a" transform="translate(45.690477 0) scale(0.996264)"/>
       <use xlink:href="#CMR17-30" transform="translate(72.787654 0) scale(0.996264)"/>
      </g>
     </g>
    </g>
    <g id="ytick_2">
     <g id="line2d_21">
      <path d="M 47.766064 328.306664 
L 590.243134 328.306664 
" clip-path="url(#paa1bc2e48c)" style="fill: none; stroke: #b0b0b0; stroke-width: 0.8; stroke-linecap: square"/>
     </g>
     <g id="line2d_22">
      <g>
       <use xlink:href="#ma7d54abbc0" x="47.766064" y="328.306664" style="stroke: #000000; stroke-width: 0.8"/>
      </g>
     </g>
     <g id="text_12">
      <!-- $\mathdefault{0.1}$ -->
      <g transform="translate(19.44 334.533314) scale(0.18 -0.18)">
       <use xlink:href="#CMR17-30" transform="scale(0.996264)"/>
       <use xlink:href="#CMMI12-3a" transform="translate(45.690477 0) scale(0.996264)"/>
       <use xlink:href="#CMR17-31" transform="translate(72.787654 0) scale(0.996264)"/>
      </g>
     </g>
    </g>
    <g id="ytick_3">
     <g id="line2d_23">
      <path d="M 47.766064 283.786735 
L 590.243134 283.786735 
" clip-path="url(#paa1bc2e48c)" style="fill: none; stroke: #b0b0b0; stroke-width: 0.8; stroke-linecap: square"/>
     </g>
     <g id="line2d_24">
      <g>
       <use xlink:href="#ma7d54abbc0" x="47.766064" y="283.786735" style="stroke: #000000; stroke-width: 0.8"/>
      </g>
     </g>
     <g id="text_13">
      <!-- $\mathdefault{0.2}$ -->
      <g transform="translate(19.44 290.013386) scale(0.18 -0.18)">
       <use xlink:href="#CMR17-30" transform="scale(0.996264)"/>
       <use xlink:href="#CMMI12-3a" transform="translate(45.690477 0) scale(0.996264)"/>
       <use xlink:href="#CMR17-32" transform="translate(72.787654 0) scale(0.996264)"/>
      </g>
     </g>
    </g>
    <g id="ytick_4">
     <g id="line2d_25">
      <path d="M 47.766064 239.266807 
L 590.243134 239.266807 
" clip-path="url(#paa1bc2e48c)" style="fill: none; stroke: #b0b0b0; stroke-width: 0.8; stroke-linecap: square"/>
     </g>
     <g id="line2d_26">
      <g>
       <use xlink:href="#ma7d54abbc0" x="47.766064" y="239.266807" style="stroke: #000000; stroke-width: 0.8"/>
      </g>
     </g>
     <g id="text_14">
      <!-- $\mathdefault{0.3}$ -->
      <g transform="translate(19.44 245.493457) scale(0.18 -0.18)">
       <defs>
        <path id="CMR17-33" d="M 1414 2157 
C 1984 2157 2234 1662 2234 1090 
C 2234 320 1824 25 1453 25 
C 1114 25 563 194 390 693 
C 422 680 454 680 486 680 
C 640 680 755 782 755 948 
C 755 1133 614 1216 486 1216 
C 378 1216 211 1165 211 926 
C 211 335 787 -128 1466 -128 
C 2176 -128 2720 430 2720 1085 
C 2720 1707 2208 2157 1600 2227 
C 2086 2328 2554 2756 2554 3329 
C 2554 3820 2048 4179 1472 4179 
C 890 4179 378 3829 378 3329 
C 378 3110 544 3072 627 3072 
C 762 3072 877 3155 877 3321 
C 877 3486 762 3569 627 3569 
C 602 3569 570 3569 544 3557 
C 730 3959 1235 4032 1459 4032 
C 1683 4032 2106 3925 2106 3320 
C 2106 3143 2080 2828 1862 2550 
C 1670 2304 1453 2304 1242 2284 
C 1210 2284 1062 2269 1037 2269 
C 992 2263 966 2257 966 2208 
C 966 2163 973 2157 1101 2157 
L 1414 2157 
z
" transform="scale(0.015625)"/>
       </defs>
       <use xlink:href="#CMR17-30" transform="scale(0.996264)"/>
       <use xlink:href="#CMMI12-3a" transform="translate(45.690477 0) scale(0.996264)"/>
       <use xlink:href="#CMR17-33" transform="translate(72.787654 0) scale(0.996264)"/>
      </g>
     </g>
    </g>
    <g id="ytick_5">
     <g id="line2d_27">
      <path d="M 47.766064 194.746878 
L 590.243134 194.746878 
" clip-path="url(#paa1bc2e48c)" style="fill: none; stroke: #b0b0b0; stroke-width: 0.8; stroke-linecap: square"/>
     </g>
     <g id="line2d_28">
      <g>
       <use xlink:href="#ma7d54abbc0" x="47.766064" y="194.746878" style="stroke: #000000; stroke-width: 0.8"/>
      </g>
     </g>
     <g id="text_15">
      <!-- $\mathdefault{0.4}$ -->
      <g transform="translate(19.44 200.973528) scale(0.18 -0.18)">
       <defs>
        <path id="CMR17-34" d="M 2150 4122 
C 2150 4256 2144 4256 2029 4256 
L 128 1254 
L 128 1088 
L 1779 1088 
L 1779 457 
C 1779 224 1766 160 1318 160 
L 1197 160 
L 1197 0 
C 1402 0 1747 0 1965 0 
C 2182 0 2528 0 2733 0 
L 2733 160 
L 2611 160 
C 2163 160 2150 224 2150 457 
L 2150 1088 
L 2803 1088 
L 2803 1254 
L 2150 1254 
L 2150 4122 
z
M 1798 3703 
L 1798 1254 
L 256 1254 
L 1798 3703 
z
" transform="scale(0.015625)"/>
       </defs>
       <use xlink:href="#CMR17-30" transform="scale(0.996264)"/>
       <use xlink:href="#CMMI12-3a" transform="translate(45.690477 0) scale(0.996264)"/>
       <use xlink:href="#CMR17-34" transform="translate(72.787654 0) scale(0.996264)"/>
      </g>
     </g>
    </g>
    <g id="ytick_6">
     <g id="line2d_29">
      <path d="M 47.766064 150.22695 
L 590.243134 150.22695 
" clip-path="url(#paa1bc2e48c)" style="fill: none; stroke: #b0b0b0; stroke-width: 0.8; stroke-linecap: square"/>
     </g>
     <g id="line2d_30">
      <g>
       <use xlink:href="#ma7d54abbc0" x="47.766064" y="150.22695" style="stroke: #000000; stroke-width: 0.8"/>
      </g>
     </g>
     <g id="text_16">
      <!-- $\mathdefault{0.5}$ -->
      <g transform="translate(19.44 156.4536) scale(0.18 -0.18)">
       <use xlink:href="#CMR17-30" transform="scale(0.996264)"/>
       <use xlink:href="#CMMI12-3a" transform="translate(45.690477 0) scale(0.996264)"/>
       <use xlink:href="#CMR17-35" transform="translate(72.787654 0) scale(0.996264)"/>
      </g>
     </g>
    </g>
    <g id="ytick_7">
     <g id="line2d_31">
      <path d="M 47.766064 105.707021 
L 590.243134 105.707021 
" clip-path="url(#paa1bc2e48c)" style="fill: none; stroke: #b0b0b0; stroke-width: 0.8; stroke-linecap: square"/>
     </g>
     <g id="line2d_32">
      <g>
       <use xlink:href="#ma7d54abbc0" x="47.766064" y="105.707021" style="stroke: #000000; stroke-width: 0.8"/>
      </g>
     </g>
     <g id="text_17">
      <!-- $\mathdefault{0.6}$ -->
      <g transform="translate(19.44 111.933671) scale(0.18 -0.18)">
       <defs>
        <path id="CMR17-36" d="M 678 2176 
C 678 3690 1395 4032 1811 4032 
C 1946 4032 2272 4009 2400 3776 
C 2298 3776 2106 3776 2106 3553 
C 2106 3381 2246 3323 2336 3323 
C 2394 3323 2566 3348 2566 3560 
C 2566 3954 2246 4179 1805 4179 
C 1043 4179 243 3390 243 1984 
C 243 253 966 -128 1478 -128 
C 2099 -128 2688 427 2688 1283 
C 2688 2081 2170 2662 1517 2662 
C 1126 2662 838 2407 678 1960 
L 678 2176 
z
M 1478 25 
C 691 25 691 1200 691 1436 
C 691 1896 909 2560 1504 2560 
C 1613 2560 1926 2560 2138 2120 
C 2253 1870 2253 1609 2253 1289 
C 2253 944 2253 690 2118 434 
C 1978 171 1773 25 1478 25 
z
" transform="scale(0.015625)"/>
       </defs>
       <use xlink:href="#CMR17-30" transform="scale(0.996264)"/>
       <use xlink:href="#CMMI12-3a" transform="translate(45.690477 0) scale(0.996264)"/>
       <use xlink:href="#CMR17-36" transform="translate(72.787654 0) scale(0.996264)"/>
      </g>
     </g>
    </g>
    <g id="ytick_8">
     <g id="line2d_33">
      <path d="M 47.766064 61.187093 
L 590.243134 61.187093 
" clip-path="url(#paa1bc2e48c)" style="fill: none; stroke: #b0b0b0; stroke-width: 0.8; stroke-linecap: square"/>
     </g>
     <g id="line2d_34">
      <g>
       <use xlink:href="#ma7d54abbc0" x="47.766064" y="61.187093" style="stroke: #000000; stroke-width: 0.8"/>
      </g>
     </g>
     <g id="text_18">
      <!-- $\mathdefault{0.7}$ -->
      <g transform="translate(19.44 67.413743) scale(0.18 -0.18)">
       <use xlink:href="#CMR17-30" transform="scale(0.996264)"/>
       <use xlink:href="#CMMI12-3a" transform="translate(45.690477 0) scale(0.996264)"/>
       <use xlink:href="#CMR17-37" transform="translate(72.787654 0) scale(0.996264)"/>
      </g>
     </g>
    </g>
    <g id="text_19">
     <!-- State Population -->
     <g transform="translate(11.564366 271.776614) rotate(-90) scale(0.2 -0.2)">
      <defs>
       <path id="CMR17-53" d="M 2803 4290 
C 2803 4404 2797 4411 2758 4411 
C 2720 4411 2707 4385 2682 4328 
L 2490 3907 
C 2246 4257 1875 4416 1472 4416 
C 819 4416 294 3901 294 3253 
C 294 3056 339 2776 557 2510 
C 794 2218 1018 2167 1530 2033 
C 1722 1982 2042 1899 2106 1874 
C 2470 1722 2662 1341 2662 985 
C 2662 527 2336 38 1779 38 
C 1094 38 454 419 410 1311 
C 403 1413 397 1419 352 1419 
C 301 1419 294 1413 294 1285 
L 294 -1 
C 294 -115 301 -122 339 -122 
C 384 -122 397 -90 486 108 
C 493 127 493 140 614 381 
C 934 -39 1472 -128 1779 -128 
C 2477 -128 2970 451 2970 1124 
C 2970 1454 2848 1708 2778 1823 
C 2509 2230 2221 2306 1914 2382 
C 1869 2402 1856 2402 1498 2490 
C 1152 2579 1005 2624 845 2796 
C 666 2992 602 3196 602 3399 
C 602 3812 934 4263 1478 4263 
C 2157 4263 2579 3786 2675 2993 
C 2694 2878 2701 2872 2746 2872 
C 2803 2872 2803 2891 2803 2999 
L 2803 4290 
z
" transform="scale(0.015625)"/>
       <path id="CMR17-74" d="M 966 2560 
L 1862 2560 
L 1862 2725 
L 966 2725 
L 966 3904 
L 851 3904 
C 838 3245 614 2668 70 2668 
L 70 2560 
L 627 2560 
L 627 771 
C 627 650 627 -64 1370 -64 
C 1747 -64 1965 306 1965 777 
L 1965 1140 
L 1850 1140 
L 1850 783 
C 1850 344 1677 51 1408 51 
C 1222 51 966 178 966 758 
L 966 2560 
z
" transform="scale(0.015625)"/>
       <path id="CMR17-6f" d="M 2758 1356 
C 2758 2176 2163 2816 1466 2816 
C 768 2816 173 2176 173 1356 
C 173 551 768 -64 1466 -64 
C 2163 -64 2758 551 2758 1356 
z
M 1466 51 
C 1165 51 909 230 762 480 
C 602 767 582 1126 582 1408 
C 582 1677 595 2010 762 2298 
C 890 2509 1139 2714 1466 2714 
C 1754 2714 1997 2554 2150 2330 
C 2349 2029 2349 1607 2349 1408 
C 2349 1158 2336 775 2163 467 
C 1984 173 1709 51 1466 51 
z
" transform="scale(0.015625)"/>
       <path id="CMR17-70" d="M 1408 -1063 
C 998 -1063 973 -1037 973 -789 
L 973 402 
C 1158 134 1427 -38 1766 -38 
C 2406 -38 3053 523 3053 1388 
C 3053 2191 2496 2802 1837 2802 
C 1453 2802 1139 2592 960 2338 
L 960 2802 
L 198 2732 
L 198 2567 
C 576 2567 634 2528 634 2223 
L 634 -789 
C 634 -1031 608 -1063 198 -1063 
L 198 -1228 
C 352 -1216 634 -1216 800 -1216 
C 966 -1216 1254 -1216 1408 -1228 
L 1408 -1063 
z
M 973 2012 
C 973 2102 973 2235 1222 2471 
C 1254 2497 1472 2688 1792 2688 
C 2259 2688 2643 2108 2643 1382 
C 2643 656 2234 64 1728 64 
C 1498 64 1248 172 1056 472 
C 973 612 973 650 973 752 
L 973 2012 
z
" transform="scale(0.015625)"/>
       <path id="CMR17-75" d="M 1882 2693 
L 1882 2528 
C 2259 2528 2317 2489 2317 2186 
L 2317 1032 
C 2317 500 2029 38 1555 38 
C 1030 38 986 348 986 678 
L 986 2763 
L 211 2693 
L 211 2528 
C 467 2528 640 2528 646 2274 
L 646 1058 
C 646 633 646 361 813 183 
C 896 101 1056 -64 1517 -64 
C 2061 -64 2272 377 2323 506 
L 2330 506 
L 2330 -63 
L 3091 -63 
L 3091 128 
C 2714 128 2656 166 2656 473 
L 2656 2763 
L 1882 2693 
z
" transform="scale(0.015625)"/>
       <path id="CMR17-6c" d="M 979 4396 
L 218 4326 
L 218 4160 
C 595 4160 653 4122 653 3817 
L 653 426 
C 653 184 627 153 218 153 
L 218 -13 
C 371 0 653 0 813 0 
C 979 0 1261 0 1414 -13 
L 1414 153 
C 1005 153 979 178 979 426 
L 979 4396 
z
" transform="scale(0.015625)"/>
       <path id="CMR17-69" d="M 992 3909 
C 992 4049 877 4170 730 4170 
C 589 4170 467 4056 467 3909 
C 467 3769 582 3648 730 3648 
C 870 3648 992 3763 992 3909 
z
M 243 2706 
L 243 2541 
C 602 2541 653 2502 653 2197 
L 653 427 
C 653 184 627 153 218 153 
L 218 -13 
C 371 0 646 0 806 0 
C 960 0 1222 0 1370 -13 
L 1370 153 
C 992 153 979 191 979 420 
L 979 2776 
L 243 2706 
z
" transform="scale(0.015625)"/>
       <path id="CMR17-6e" d="M 2656 1933 
C 2656 2259 2592 2790 1837 2790 
C 1331 2790 1069 2400 973 2144 
L 966 2144 
L 966 2790 
L 211 2720 
L 211 2554 
C 589 2554 646 2515 646 2208 
L 646 428 
C 646 184 621 153 211 153 
L 211 -13 
C 365 0 646 0 813 0 
C 979 0 1267 0 1421 -13 
L 1421 153 
C 1011 153 986 178 986 428 
L 986 1658 
C 986 2247 1344 2688 1792 2688 
C 2266 2688 2317 2266 2317 1958 
L 2317 428 
C 2317 184 2291 153 1882 153 
L 1882 -13 
C 2035 0 2317 0 2483 0 
C 2650 0 2938 0 3091 -13 
L 3091 153 
C 2682 153 2656 178 2656 428 
L 2656 1933 
z
" transform="scale(0.015625)"/>
      </defs>
      <use xlink:href="#CMR17-53" transform="scale(0.996264)"/>
      <use xlink:href="#CMR17-74" transform="translate(50.89537 0) scale(0.996264)"/>
      <use xlink:href="#CMR17-61" transform="translate(86.176138 0) scale(0.996264)"/>
      <use xlink:href="#CMR17-74" transform="translate(131.866615 0) scale(0.996264)"/>
      <use xlink:href="#CMR17-65" transform="translate(167.147382 0) scale(0.996264)"/>
      <use xlink:href="#CMR17-50" transform="translate(237.709009 0) scale(0.996264)"/>
      <use xlink:href="#CMR17-6f" transform="translate(297.692856 0) scale(0.996264)"/>
      <use xlink:href="#CMR17-70" transform="translate(343.383333 0) scale(0.996264)"/>
      <use xlink:href="#CMR17-75" transform="translate(394.278703 0) scale(0.996264)"/>
      <use xlink:href="#CMR17-6c" transform="translate(445.174073 0) scale(0.996264)"/>
      <use xlink:href="#CMR17-61" transform="translate(470.045131 0) scale(0.996264)"/>
      <use xlink:href="#CMR17-74" transform="translate(515.735608 0) scale(0.996264)"/>
      <use xlink:href="#CMR17-69" transform="translate(551.016376 0) scale(0.996264)"/>
      <use xlink:href="#CMR17-6f" transform="translate(575.887434 0) scale(0.996264)"/>
      <use xlink:href="#CMR17-6e" transform="translate(621.577912 0) scale(0.996264)"/>
     </g>
    </g>
   </g>
   <g id="line2d_35">
    <path d="M 72.424112 40.680123 
L 77.405536 36.266302 
L 82.38696 37.531718 
L 87.368384 44.288713 
L 92.349808 56.134193 
L 97.331232 72.476599 
L 102.312656 92.571601 
L 107.29408 115.564321 
L 112.275504 140.535527 
L 117.256928 166.549119 
L 122.238352 192.698208 
L 127.219776 218.147259 
L 132.2012 242.168082 
L 137.182624 264.167881 
L 142.164048 283.708139 
L 147.145472 300.513653 
L 152.126896 314.471714 
L 157.10832 325.621991 
L 162.089744 334.138232 
L 167.071168 340.303378 
L 172.052592 344.479999 
L 177.034016 347.078228 
L 182.01544 348.523374 
L 186.996864 349.225375 
L 191.978288 349.552022 
L 196.959712 349.807525 
L 201.941136 350.217611 
L 206.92256 350.921804 
L 211.903984 351.973041 
L 216.885407 353.344235 
L 221.866831 354.940941 
L 226.848255 356.618837 
L 231.829679 358.204446 
L 236.811103 359.517329 
L 241.792527 360.391902 
L 246.773951 360.697116 
L 251.755375 360.352421 
L 256.736799 359.338749 
L 261.718223 357.703652 
L 266.699647 355.56017 
L 271.681071 353.079517 
L 276.662495 350.478113 
L 281.643919 347.999974 
L 286.625343 345.895801 
L 291.606767 344.400411 
L 296.588191 343.710272 
L 301.569615 343.962983 
L 306.551039 345.220369 
L 311.532463 347.456694 
L 316.513887 350.553106 
L 321.495311 354.299038 
L 326.476735 358.400761 
L 331.458159 362.496817 
L 336.439583 366.179511 
L 341.421007 369.021208 
L 346.402431 370.60379 
L 351.383855 370.549323 
L 356.365279 368.549877 
L 361.346703 364.394363 
L 366.328127 357.990423 
L 371.309551 349.379641 
L 376.290975 338.744742 
L 381.272399 326.407918 
L 386.253823 312.819981 
L 391.235247 298.540625 
L 396.21667 284.210673 
L 401.198094 270.517717 
L 406.179518 258.157058 
L 411.160942 247.790165 
L 416.142366 240.003171 
L 421.12379 235.267918 
L 426.105214 233.908072 
L 431.086638 236.072506 
L 436.068062 241.717846 
L 441.049486 250.601505 
L 446.03091 262.285986 
L 451.012334 276.154534 
L 455.993758 291.437579 
L 460.975182 307.248726 
L 465.956606 322.628481 
L 470.93803 336.593412 
L 475.919454 348.188047 
L 480.900878 356.536663 
L 485.882302 360.892027 
L 490.863726 360.678314 
L 495.84515 355.525724 
L 500.826574 345.294739 
L 505.807998 330.08858 
L 510.789422 310.253038 
L 515.770846 286.363581 
L 520.75227 259.200376 
L 525.733694 229.712507 
L 530.715118 198.973331 
L 535.696542 168.129369 
L 540.677966 138.345504 
L 545.65939 110.749475 
L 550.640814 86.378635 
L 555.622238 66.131831 
L 560.603662 50.728941 
L 565.585086 40.680123 
" clip-path="url(#paa1bc2e48c)" style="fill: none; stroke: #1f77b4; stroke-width: 1.5; stroke-linecap: square"/>
   </g>
   <g id="line2d_36">
    <path d="M 72.424112 338.953925 
L 77.405536 345.564601 
L 82.38696 351.655887 
L 87.368384 356.974321 
L 92.349808 361.273997 
L 97.331232 364.327515 
L 102.312656 365.936933 
L 107.29408 365.944096 
L 112.275504 364.239751 
L 117.256928 360.770859 
L 122.238352 355.545609 
L 127.219776 348.635757 
L 132.2012 340.176009 
L 137.182624 330.360372 
L 142.164048 319.435532 
L 147.145472 307.691488 
L 152.126896 295.449867 
L 157.10832 283.050427 
L 162.089744 270.836436 
L 167.071168 259.139645 
L 172.052592 248.265639 
L 177.034016 238.480328 
L 182.01544 229.99832 
L 186.996864 222.973784 
L 191.978288 217.494331 
L 196.959712 213.578242 
L 201.941136 211.175219 
L 206.92256 210.170625 
L 211.903984 210.393003 
L 216.885407 211.624474 
L 221.866831 213.613445 
L 226.848255 216.088958 
L 231.829679 218.775884 
L 236.811103 221.410152 
L 241.792527 223.753172 
L 246.773951 225.604688 
L 251.755375 226.813365 
L 256.736799 227.284552 
L 261.718223 226.984812 
L 266.699647 225.943023 
L 271.681071 224.247997 
L 276.662495 222.042806 
L 281.643919 219.516154 
L 286.625343 216.891304 
L 291.606767 214.413207 
L 296.588191 212.334551 
L 301.569615 210.901512 
L 306.551039 210.340006 
L 311.532463 210.843151 
L 316.513887 212.560631 
L 321.495311 215.590484 
L 326.476735 219.973715 
L 331.458159 225.691957 
L 336.439583 232.668239 
L 341.421007 240.770738 
L 346.402431 249.819224 
L 351.383855 259.593785 
L 356.365279 269.845275 
L 361.346703 280.306893 
L 366.328127 290.706214 
L 371.309551 300.777029 
L 376.290975 310.270382 
L 381.272399 318.964239 
L 386.253823 326.671383 
L 391.235247 333.245189 
L 396.21667 338.583129 
L 401.198094 342.627955 
L 406.179518 345.366686 
L 411.160942 346.827607 
L 416.142366 347.075639 
L 421.12379 346.206471 
L 426.105214 344.33992 
L 431.086638 341.612984 
L 436.068062 338.173049 
L 441.049486 334.171628 
L 446.03091 329.758979 
L 451.012334 325.079828 
L 455.993758 320.270309 
L 460.975182 315.456162 
L 465.956606 310.752083 
L 470.93803 306.262046 
L 475.919454 302.080361 
L 480.900878 298.29313 
L 485.882302 294.979807 
L 490.863726 292.214513 
L 495.84515 290.066833 
L 500.826574 288.601855 
L 505.807998 287.879314 
L 510.789422 287.951769 
L 515.770846 288.86187 
L 520.75227 290.638865 
L 525.733694 293.294575 
L 530.715118 296.819167 
L 535.696542 301.17709 
L 540.677966 306.303576 
L 545.65939 312.1021 
L 550.640814 318.443172 
L 555.622238 325.164748 
L 560.603662 332.074485 
L 565.585086 338.953925 
" clip-path="url(#paa1bc2e48c)" style="fill: none; stroke: #ff7f0e; stroke-width: 1.5; stroke-linecap: square"/>
   </g>
   <g id="line2d_37">
    <path d="M 72.424112 303.776743 
L 77.405536 306.637623 
L 82.38696 310.072299 
L 87.368384 313.960753 
L 92.349808 318.130631 
L 97.331232 322.369008 
L 102.312656 326.436806 
L 107.29408 330.084949 
L 112.275504 333.071221 
L 117.256928 335.176765 
L 122.238352 336.2212 
L 127.219776 336.075395 
L 132.2012 334.671123 
L 137.182624 332.006998 
L 142.164048 328.150339 
L 147.145472 323.234862 
L 152.126896 317.45435 
L 157.10832 311.052716 
L 162.089744 304.311079 
L 167.071168 297.532657 
L 172.052592 291.026409 
L 177.034016 285.090431 
L 182.01544 279.996092 
L 186.996864 275.973876 
L 191.978288 273.20173 
L 196.959712 271.796605 
L 201.941136 271.809609 
L 206.92256 273.22501 
L 211.903984 275.963055 
L 216.885407 279.886332 
L 221.866831 284.809204 
L 226.848255 290.50963 
L 231.829679 296.742582 
L 236.811103 303.254158 
L 241.792527 309.795479 
L 246.773951 316.13549 
L 251.755375 322.071888 
L 256.736799 327.439514 
L 261.718223 332.115778 
L 266.699647 336.022842 
L 271.681071 339.126567 
L 276.662495 341.432403 
L 281.643919 342.978658 
L 286.625343 343.827709 
L 291.606767 344.055907 
L 296.588191 343.742962 
L 301.569615 342.96166 
L 306.551039 341.768716 
L 311.532463 340.19748 
L 316.513887 338.253082 
L 321.495311 335.910427 
L 326.476735 333.115232 
L 331.458159 329.788084 
L 336.439583 325.831275 
L 341.421007 321.137963 
L 346.402431 315.603024 
L 351.383855 309.134821 
L 356.365279 301.667056 
L 361.346703 293.169799 
L 366.328127 283.658852 
L 371.309551 273.202695 
L 376.290975 261.926379 
L 381.272399 250.011939 
L 386.253823 237.695131 
L 391.235247 225.258489 
L 396.21667 213.021005 
L 401.198094 201.324901 
L 406.179518 190.520208 
L 411.160942 180.948007 
L 416.142366 172.923305 
L 421.12379 166.71855 
L 426.105214 162.548806 
L 431.086638 160.559493 
L 436.068062 160.817495 
L 441.049486 163.306222 
L 446.03091 167.925003 
L 451.012334 174.492921 
L 455.993758 182.756941 
L 460.975182 192.403918 
L 465.956606 203.075849 
L 470.93803 214.387515 
L 475.919454 225.945525 
L 480.900878 237.367675 
L 485.882302 248.301517 
L 490.863726 258.441082 
L 495.84515 267.540779 
L 500.826574 275.425712 
L 505.807998 281.997807 
L 510.789422 287.237457 
L 515.770846 291.200612 
L 520.75227 294.011531 
L 525.733694 295.8517 
L 530.715118 296.945596 
L 535.696542 297.544216 
L 540.677966 297.907384 
L 545.65939 298.285944 
L 550.640814 298.90492 
L 555.622238 299.948679 
L 560.603662 301.549 
L 565.585086 303.776743 
" clip-path="url(#paa1bc2e48c)" style="fill: none; stroke: #2ca02c; stroke-width: 1.5; stroke-linecap: square"/>
   </g>
   <g id="line2d_38">
    <path d="M 72.424112 370.716487 
L 77.405536 363.090773 
L 82.38696 350.381465 
L 87.368384 333.403262 
L 92.349808 313.24451 
L 97.331232 291.197439 
L 102.312656 268.675322 
L 107.29408 247.121886 
L 112.275504 227.918762 
L 117.256928 212.296921 
L 122.238352 201.257762 
L 127.219776 195.508925 
L 132.2012 195.418924 
L 137.182624 200.99353 
L 142.164048 211.875396 
L 147.145472 227.366965 
L 152.126896 246.475188 
L 157.10832 267.975178 
L 162.089744 290.48873 
L 167.071168 312.572666 
L 172.052592 332.81135 
L 177.034016 349.907429 
L 182.01544 362.764999 
L 186.996864 370.559858 
L 191.978288 372.792334 
L 196.959712 369.31932 
L 201.941136 360.363446 
L 206.92256 346.498805 
L 211.903984 328.614158 
L 216.885407 307.855956 
L 221.866831 285.554855 
L 226.848255 263.140413 
L 231.829679 242.049454 
L 236.811103 223.633963 
L 241.792527 209.074421 
L 246.773951 199.304132 
L 251.755375 194.949398 
L 256.736799 196.289368 
L 261.718223 203.238146 
L 266.699647 215.350298 
L 271.681071 231.849403 
L 276.662495 251.677827 
L 281.643919 273.564514 
L 286.625343 296.106473 
L 291.606767 317.858704 
L 296.588191 337.426834 
L 301.569615 353.556494 
L 306.551039 365.213732 
L 311.532463 371.651287 
L 316.513887 372.456497 
L 321.495311 367.577744 
L 326.476735 357.32777 
L 331.458159 342.363625 
L 336.439583 323.644549 
L 341.421007 302.370484 
L 346.402431 279.905152 
L 351.383855 257.68864 
L 356.365279 237.145083 
L 361.346703 219.591378 
L 366.328127 206.152761 
L 371.309551 197.690684 
L 376.290975 194.747588 
L 381.272399 197.512132 
L 386.253823 205.807102 
L 391.235247 219.100769 
L 396.21667 236.540975 
L 401.198094 257.009757 
L 406.179518 279.195012 
L 411.160942 301.674609 
L 416.142366 323.007547 
L 421.12379 341.826329 
L 426.105214 356.924622 
L 431.086638 367.334587 
L 436.068062 372.388917 
L 441.049486 371.763618 
L 446.03091 365.498771 
L 451.012334 353.995972 
L 455.993758 337.992577 
L 460.975182 318.514448 
L 465.956606 296.810182 
L 470.93803 274.271079 
L 475.919454 252.341955 
L 480.900878 232.428522 
L 485.882302 215.807285 
L 490.863726 203.543706 
L 495.84515 196.423915 
L 500.826574 194.904307 
L 505.807998 199.082294 
L 510.789422 208.690055 
L 515.770846 223.111709 
L 520.75227 241.422789 
L 525.733694 262.449508 
L 530.715118 284.844 
L 535.696542 307.170717 
L 540.677966 327.998461 
L 545.65939 345.992118 
L 550.640814 359.998249 
L 555.622238 369.119024 
L 560.603662 372.769777 
L 565.585086 370.716487 
" clip-path="url(#paa1bc2e48c)" style="fill: none; stroke: #d62728; stroke-width: 1.5; stroke-linecap: square"/>
   </g>
   <g id="line2d_39">
    <path d="M 72.424112 364.806399 
L 77.405536 367.374379 
L 82.38696 369.292309 
L 87.368384 370.306629 
L 92.349808 370.150346 
L 97.331232 368.563117 
L 102.312656 365.313015 
L 107.29408 360.218425 
L 112.275504 353.168416 
L 117.256928 344.140015 
L 122.238352 333.210899 
L 127.219776 320.566341 
L 132.2012 306.49954 
L 137.182624 291.404896 
L 142.164048 275.764272 
L 147.145472 260.12671 
L 152.126896 245.082559 
L 157.10832 231.233366 
L 162.089744 219.159201 
L 167.071168 209.385332 
L 172.052592 202.35028 
L 177.034016 198.377261 
L 182.01544 197.650892 
L 186.996864 200.200785 
L 191.978288 205.893261 
L 196.959712 214.431986 
L 201.941136 225.367793 
L 206.92256 238.117433 
L 211.903984 251.990421 
L 216.885407 266.22268 
L 221.866831 280.015232 
L 226.848255 292.57584 
L 231.829679 303.161311 
L 236.811103 311.118075 
L 241.792527 315.918704 
L 246.773951 317.192251 
L 251.755375 314.746605 
L 256.736799 308.581495 
L 261.718223 298.89129 
L 266.699647 286.057344 
L 271.681071 270.630193 
L 276.662495 253.302528 
L 281.643919 234.874378 
L 286.625343 216.21239 
L 291.606767 198.205448 
L 296.588191 181.719059 
L 301.569615 167.551028 
L 306.551039 156.390854 
L 311.532463 148.785066 
L 316.513887 145.110362 
L 321.495311 145.555984 
L 326.476735 150.116199 
L 331.458159 158.593195 
L 336.439583 170.610104 
L 341.421007 185.633284 
L 346.402431 203.002487 
L 351.383855 221.967109 
L 356.365279 241.726386 
L 361.346703 261.471245 
L 366.328127 280.425428 
L 371.309551 297.883627 
L 376.290975 313.244587 
L 381.272399 326.037449 
L 386.253823 335.940081 
L 391.235247 342.788605 
L 396.21667 346.577896 
L 401.198094 347.453347 
L 406.179518 345.694714 
L 411.160942 341.693289 
L 416.142366 335.924016 
L 421.12379 328.914409 
L 426.105214 321.212258 
L 431.086638 313.354107 
L 436.068062 305.83637 
L 441.049486 299.090706 
L 446.03091 293.464938 
L 451.012334 289.210422 
L 455.993758 286.476271 
L 460.975182 285.310424 
L 465.956606 285.667083 
L 470.93803 287.419624 
L 475.919454 290.377789 
L 480.900878 294.307687 
L 485.882302 298.953042 
L 490.863726 304.056062 
L 495.84515 309.376427 
L 500.826574 314.707065 
L 505.807998 319.885683 
L 510.789422 324.801358 
L 515.770846 329.395905 
L 520.75227 333.660117 
L 525.733694 337.625388 
L 530.715118 341.351584 
L 535.696542 344.912286 
L 540.677966 348.378752 
L 545.65939 351.80404 
L 550.640814 355.208702 
L 555.622238 358.569395 
L 560.603662 361.811475 
L 565.585086 364.806399 
" clip-path="url(#paa1bc2e48c)" style="fill: none; stroke: #9467bd; stroke-width: 1.5; stroke-linecap: square"/>
   </g>
   <g id="patch_3">
    <path d="M 47.766064 389.618636 
L 47.766064 19.44 
" style="fill: none; stroke: #000000; stroke-width: 0.8; stroke-linejoin: miter; stroke-linecap: square"/>
   </g>
   <g id="patch_4">
    <path d="M 590.243134 389.618636 
L 590.243134 19.44 
" style="fill: none; stroke: #000000; stroke-width: 0.8; stroke-linejoin: miter; stroke-linecap: square"/>
   </g>
   <g id="patch_5">
    <path d="M 47.766064 389.618636 
L 590.243134 389.618636 
" style="fill: none; stroke: #000000; stroke-width: 0.8; stroke-linejoin: miter; stroke-linecap: square"/>
   </g>
   <g id="patch_6">
    <path d="M 47.766064 19.44 
L 590.243134 19.44 
" style="fill: none; stroke: #000000; stroke-width: 0.8; stroke-linejoin: miter; stroke-linecap: square"/>
   </g>
   <g id="text_20">
    <!-- Bussed - Qudit Ramsey Phase Scan (d=5) -->
    <g transform="translate(114.941474 13.44) scale(0.24 -0.24)">
     <defs>
      <path id="CMR17-42" d="M 333 4352 
L 333 4186 
C 774 4186 845 4186 845 3900 
L 845 452 
C 845 166 774 166 333 166 
L 333 0 
L 2534 0 
C 3354 0 3885 583 3885 1164 
C 3885 1741 3360 2233 2675 2233 
C 3290 2356 3718 2771 3718 3264 
C 3718 3802 3194 4352 2368 4352 
L 333 4352 
z
M 1248 2304 
L 1248 3937 
C 1248 4155 1261 4186 1517 4186 
L 2336 4186 
C 2970 4186 3251 3674 3251 3277 
C 3251 2791 2861 2304 2170 2304 
L 1248 2304 
z
M 1517 166 
C 1261 166 1248 197 1248 413 
L 1248 2202 
L 2432 2202 
C 3091 2202 3411 1625 3411 1162 
C 3411 699 3046 166 2349 166 
L 1517 166 
z
" transform="scale(0.015625)"/>
      <path id="CMR17-64" d="M 1869 4326 
L 1869 4160 
C 2246 4160 2304 4122 2304 3820 
L 2304 2345 
C 2278 2377 2016 2790 1498 2790 
C 845 2790 211 2208 211 1364 
C 211 525 806 -64 1434 -64 
C 1978 -64 2259 337 2291 380 
L 2291 -63 
L 3066 -63 
L 3066 128 
C 2688 128 2630 166 2630 473 
L 2630 4396 
L 1869 4326 
z
M 2291 755 
C 2291 563 2176 390 2029 262 
C 1811 70 1594 38 1472 38 
C 1286 38 621 134 621 1356 
C 621 2612 1363 2688 1530 2688 
C 1824 2688 2061 2522 2208 2291 
C 2291 2157 2291 2138 2291 2023 
L 2291 755 
z
" transform="scale(0.015625)"/>
      <path id="CMR17-2d" d="M 1632 1216 
L 1632 1496 
L 26 1496 
L 26 1216 
L 1632 1216 
z
" transform="scale(0.015625)"/>
      <path id="CMR17-51" d="M 3027 83 
C 3789 408 4307 1236 4307 2193 
C 4307 3499 3366 4480 2304 4480 
C 1216 4480 294 3488 294 2199 
C 294 928 1216 -64 2304 -64 
C 2451 -64 2656 -45 2899 38 
C 3008 -747 3078 -1216 3629 -1216 
C 4307 -1216 4339 -213 4339 -33 
C 4339 32 4339 76 4294 76 
C 4262 76 4256 31 4256 18 
C 4211 -603 3866 -732 3661 -732 
C 3283 -732 3149 -394 3027 83 
z
M 1958 100 
C 1293 310 768 1017 768 2199 
C 768 3711 1606 4365 2298 4365 
C 3014 4365 3834 3686 3834 2198 
C 3834 1124 3405 527 2976 254 
C 2880 579 2726 960 2310 960 
C 2003 960 1830 692 1830 450 
C 1830 304 1888 183 1958 100 
z
M 2874 192 
C 2618 57 2413 57 2304 57 
C 2016 57 1933 315 1933 454 
C 1933 650 2067 858 2310 858 
C 2720 858 2822 493 2874 192 
z
" transform="scale(0.015625)"/>
      <path id="CMR17-52" d="M 2509 2146 
C 3117 2268 3629 2676 3629 3186 
C 3629 3785 2950 4326 2054 4326 
L 333 4326 
L 333 4160 
C 774 4160 845 4160 845 3873 
L 845 415 
C 845 128 774 128 333 128 
L 333 -26 
C 518 -26 851 -26 1050 -26 
C 1248 -26 1581 -26 1766 -26 
L 1766 128 
C 1325 128 1254 128 1254 417 
L 1254 2112 
L 2003 2112 
C 2368 2112 2573 1964 2662 1881 
C 2918 1632 2918 1459 2918 1024 
C 2918 595 2918 377 3110 160 
C 3354 -102 3680 -128 3821 -128 
C 4294 -128 4365 396 4365 503 
C 4365 540 4365 585 4307 585 
C 4256 585 4250 547 4250 522 
C 4218 112 4032 -26 3834 -26 
C 3482 -26 3443 375 3405 764 
C 3386 898 3373 993 3360 1133 
C 3322 1452 3270 1917 2509 2146 
z
M 1984 2214 
L 1254 2214 
L 1254 3913 
C 1254 4129 1267 4160 1523 4160 
L 1990 4160 
C 2522 4160 3142 3977 3142 3190 
C 3142 2372 2464 2214 1984 2214 
z
" transform="scale(0.015625)"/>
      <path id="CMR17-6d" d="M 4326 1933 
C 4326 2252 4269 2790 3507 2790 
C 3072 2790 2771 2496 2656 2151 
L 2650 2151 
C 2573 2676 2195 2790 1837 2790 
C 1331 2790 1069 2400 973 2144 
L 966 2144 
L 966 2790 
L 211 2720 
L 211 2554 
C 589 2554 646 2515 646 2208 
L 646 428 
C 646 184 621 153 211 153 
L 211 -13 
C 365 0 646 0 813 0 
C 979 0 1267 0 1421 -13 
L 1421 153 
C 1011 153 986 178 986 428 
L 986 1658 
C 986 2247 1344 2688 1792 2688 
C 2266 2688 2317 2266 2317 1958 
L 2317 428 
C 2317 184 2291 153 1882 153 
L 1882 -13 
C 2035 0 2317 0 2483 0 
C 2650 0 2938 0 3091 -13 
L 3091 153 
C 2682 153 2656 178 2656 428 
L 2656 1658 
C 2656 2247 3014 2688 3462 2688 
C 3936 2688 3987 2266 3987 1958 
L 3987 428 
C 3987 184 3962 153 3552 153 
L 3552 -13 
C 3706 0 3987 0 4154 0 
C 4320 0 4608 0 4762 -13 
L 4762 153 
C 4352 153 4326 178 4326 428 
L 4326 1933 
z
" transform="scale(0.015625)"/>
      <path id="CMR17-79" d="M 2496 2197 
C 2656 2586 2944 2586 3034 2586 
L 3034 2752 
C 2912 2752 2752 2752 2630 2752 
C 2496 2752 2285 2752 2157 2758 
L 2157 2592 
C 2400 2573 2406 2394 2406 2343 
C 2406 2280 2394 2248 2362 2171 
L 1664 449 
L 902 2306 
C 870 2382 870 2426 870 2433 
C 870 2573 1018 2586 1171 2586 
L 1171 2758 
C 1018 2752 742 2752 582 2752 
C 410 2752 205 2752 64 2758 
L 64 2586 
C 410 2586 448 2554 531 2350 
L 1485 15 
C 1197 -738 1030 -1178 627 -1178 
C 557 -1178 397 -1159 282 -1044 
C 429 -1031 493 -942 493 -833 
C 493 -725 416 -629 288 -629 
C 147 -629 77 -725 77 -840 
C 77 -1095 339 -1280 627 -1280 
C 998 -1280 1229 -922 1357 -604 
L 2496 2197 
z
" transform="scale(0.015625)"/>
      <path id="CMR17-63" d="M 2234 2240 
C 2112 2240 1933 2240 1933 2017 
C 1933 1838 2080 1787 2163 1787 
C 2208 1787 2394 1807 2394 2024 
C 2394 2467 1958 2803 1466 2803 
C 787 2803 211 2178 211 1363 
C 211 516 813 -64 1466 -64 
C 2259 -64 2458 677 2458 748 
C 2458 774 2451 793 2406 793 
C 2362 793 2355 787 2330 703 
C 2163 180 1798 51 1523 51 
C 1114 51 621 427 621 1369 
C 621 2338 1094 2688 1472 2688 
C 1722 2688 2093 2573 2234 2240 
z
" transform="scale(0.015625)"/>
      <path id="CMR17-28" d="M 1958 -1561 
C 1958 -1555 1958 -1542 1939 -1523 
C 1645 -1224 858 -407 858 1581 
C 858 3569 1632 4379 1946 4697 
C 1946 4704 1958 4717 1958 4736 
C 1958 4755 1939 4768 1914 4768 
C 1843 4768 1299 4296 986 3594 
C 666 2887 576 2199 576 1588 
C 576 1128 621 351 1005 -471 
C 1312 -1135 1837 -1600 1914 -1600 
C 1946 -1600 1958 -1587 1958 -1561 
z
" transform="scale(0.015625)"/>
      <path id="CMR17-3d" d="M 4115 2017 
C 4211 2017 4307 2017 4307 2125 
C 4307 2240 4198 2240 4090 2240 
L 512 2240 
C 403 2240 294 2240 294 2125 
C 294 2017 390 2017 486 2017 
L 4115 2017 
z
M 4090 896 
C 4198 896 4307 896 4307 1011 
C 4307 1119 4211 1119 4115 1119 
L 486 1119 
C 390 1119 294 1119 294 1011 
C 294 896 403 896 512 896 
L 4090 896 
z
" transform="scale(0.015625)"/>
      <path id="CMR17-29" d="M 1683 1581 
C 1683 2040 1638 2817 1254 3639 
C 947 4303 422 4768 346 4768 
C 326 4768 301 4761 301 4729 
C 301 4717 307 4710 314 4697 
C 621 4378 1402 3568 1402 1584 
C 1402 -407 627 -1217 314 -1537 
C 307 -1549 301 -1556 301 -1568 
C 301 -1600 326 -1600 346 -1600 
C 416 -1600 960 -1128 1274 -426 
C 1594 281 1683 969 1683 1581 
z
" transform="scale(0.015625)"/>
     </defs>
     <use xlink:href="#CMR17-42" transform="scale(0.996264)"/>
     <use xlink:href="#CMR17-75" transform="translate(65.188754 0) scale(0.996264)"/>
     <use xlink:href="#CMR17-73" transform="translate(116.084124 0) scale(0.996264)"/>
     <use xlink:href="#CMR17-73" transform="translate(151.885462 0) scale(0.996264)"/>
     <use xlink:href="#CMR17-65" transform="translate(187.6868 0) scale(0.996264)"/>
     <use xlink:href="#CMR17-64" transform="translate(228.17246 0) scale(0.996264)"/>
     <use xlink:href="#CMR17-2d" transform="translate(309.143796 0) scale(0.996264)"/>
     <use xlink:href="#CMR17-51" transform="translate(369.295729 0) scale(0.996264)"/>
     <use xlink:href="#CMR17-75" transform="translate(441.010517 0) scale(0.996264)"/>
     <use xlink:href="#CMR17-64" transform="translate(491.905887 0) scale(0.996264)"/>
     <use xlink:href="#CMR17-69" transform="translate(542.801257 0) scale(0.996264)"/>
     <use xlink:href="#CMR17-74" transform="translate(567.672315 0) scale(0.996264)"/>
     <use xlink:href="#CMR17-52" transform="translate(633.029049 0) scale(0.996264)"/>
     <use xlink:href="#CMR17-61" transform="translate(700.820151 0) scale(0.996264)"/>
     <use xlink:href="#CMR17-6d" transform="translate(746.510628 0) scale(0.996264)"/>
     <use xlink:href="#CMR17-73" transform="translate(823.430218 0) scale(0.996264)"/>
     <use xlink:href="#CMR17-65" transform="translate(859.231556 0) scale(0.996264)"/>
     <use xlink:href="#CMR17-79" transform="translate(899.717216 0) scale(0.996264)"/>
     <use xlink:href="#CMR17-50" transform="translate(978.086099 0) scale(0.996264)"/>
     <use xlink:href="#CMR17-68" transform="translate(1040.672399 0) scale(0.996264)"/>
     <use xlink:href="#CMR17-61" transform="translate(1091.567769 0) scale(0.996264)"/>
     <use xlink:href="#CMR17-73" transform="translate(1137.258246 0) scale(0.996264)"/>
     <use xlink:href="#CMR17-65" transform="translate(1173.059584 0) scale(0.996264)"/>
     <use xlink:href="#CMR17-53" transform="translate(1243.62121 0) scale(0.996264)"/>
     <use xlink:href="#CMR17-63" transform="translate(1294.51658 0) scale(0.996264)"/>
     <use xlink:href="#CMR17-61" transform="translate(1335.002241 0) scale(0.996264)"/>
     <use xlink:href="#CMR17-6e" transform="translate(1380.692718 0) scale(0.996264)"/>
     <use xlink:href="#CMR17-28" transform="translate(1461.664054 0) scale(0.996264)"/>
     <use xlink:href="#CMR17-64" transform="translate(1496.944822 0) scale(0.996264)"/>
     <use xlink:href="#CMR17-3d" transform="translate(1547.840192 0) scale(0.996264)"/>
     <use xlink:href="#CMR17-35" transform="translate(1619.55498 0) scale(0.996264)"/>
     <use xlink:href="#CMR17-29" transform="translate(1665.245457 0) scale(0.996264)"/>
    </g>
   </g>
   <g id="legend_1">
    <g id="patch_7">
     <path d="M 620.166988 135.739564 
L 835.403854 135.739564 
Q 838.203854 135.739564 838.203854 132.939564 
L 838.203854 22.24 
Q 838.203854 19.44 835.403854 19.44 
L 620.166988 19.44 
Q 617.366988 19.44 617.366988 22.24 
L 617.366988 132.939564 
Q 617.366988 135.739564 620.166988 135.739564 
z
" style="fill: #ffffff; opacity: 0.8; stroke: #cccccc; stroke-linejoin: miter"/>
    </g>
    <g id="line2d_40">
     <path d="M 622.966988 30.600772 
L 636.966988 30.600772 
L 650.966988 30.600772 
" style="fill: none; stroke: #1f77b4; stroke-width: 1.5; stroke-linecap: square"/>
    </g>
    <g id="text_21">
     <!-- $|1 \rangle$ - $|D_{5/2}, F = 3, m_F = -1\rangle$ -->
     <g transform="translate(662.166988 35.500772) scale(0.14 -0.14)">
      <defs>
       <path id="CMSY10-6a" d="M 1018 4570 
C 1018 4685 1018 4800 890 4800 
C 762 4800 762 4685 762 4570 
L 762 -1370 
C 762 -1485 762 -1600 890 -1600 
C 1018 -1600 1018 -1485 1018 -1370 
L 1018 4570 
z
" transform="scale(0.015625)"/>
       <path id="CMSY10-69" d="M 1747 1491 
C 1779 1568 1779 1581 1779 1600 
C 1779 1619 1779 1632 1747 1709 
L 627 4653 
C 589 4762 550 4800 480 4800 
C 410 4800 352 4742 352 4672 
C 352 4653 352 4640 384 4570 
L 1517 1600 
L 384 -1357 
C 352 -1427 352 -1440 352 -1472 
C 352 -1542 410 -1600 480 -1600 
C 563 -1600 589 -1536 614 -1472 
L 1747 1491 
z
" transform="scale(0.015625)"/>
       <path id="CMMI12-44" d="M 1005 472 
C 947 249 934 185 486 185 
C 365 185 301 185 301 70 
C 301 0 339 0 467 0 
L 2496 0 
C 3789 0 5050 1332 5050 2753 
C 5050 3671 4499 4352 3584 4352 
L 1530 4352 
C 1408 4352 1350 4352 1350 4231 
C 1350 4167 1408 4167 1504 4167 
C 1894 4167 1894 4116 1894 4046 
C 1894 4034 1894 3995 1869 3899 
L 1005 472 
z
M 2355 3931 
C 2413 4167 2438 4167 2688 4167 
L 3392 4167 
C 3994 4167 4544 3842 4544 2963 
C 4544 2644 4416 1536 3795 835 
C 3616 625 3130 185 2394 185 
L 1664 185 
C 1574 185 1562 185 1523 192 
C 1453 198 1446 211 1446 262 
C 1446 307 1459 345 1472 402 
L 2355 3931 
z
" transform="scale(0.015625)"/>
       <path id="CMMI12-3d" d="M 2746 4562 
C 2746 4569 2784 4666 2784 4678 
C 2784 4755 2720 4800 2669 4800 
C 2637 4800 2579 4800 2528 4659 
L 384 -1363 
C 384 -1370 346 -1465 346 -1478 
C 346 -1555 410 -1600 461 -1600 
C 499 -1600 557 -1593 602 -1459 
L 2746 4562 
z
" transform="scale(0.015625)"/>
       <path id="CMMI12-3b" d="M 1248 -31 
C 1248 343 1126 619 864 619 
C 659 619 557 453 557 313 
C 557 172 653 0 870 0 
C 954 0 1024 26 1082 83 
C 1094 96 1101 96 1107 96 
C 1120 96 1120 5 1120 -27 
C 1120 -240 1082 -659 710 -1080 
C 640 -1157 640 -1170 640 -1183 
C 640 -1216 672 -1248 704 -1248 
C 755 -1248 1248 -771 1248 -31 
z
" transform="scale(0.015625)"/>
       <path id="CMMI12-46" d="M 1901 2055 
L 2515 2055 
C 3002 2055 3040 1946 3040 1761 
C 3040 1678 3027 1589 2995 1448 
C 2982 1423 2976 1391 2976 1378 
C 2976 1333 3002 1308 3046 1308 
C 3098 1308 3104 1333 3130 1435 
L 3501 2935 
C 3501 2961 3482 2999 3437 2999 
C 3379 2999 3373 2974 3347 2863 
C 3213 2376 3085 2240 2528 2240 
L 1946 2240 
L 2362 3926 
C 2419 4154 2432 4154 2694 4154 
L 3552 4154 
C 4352 4154 4467 3918 4467 3464 
C 4467 3426 4467 3285 4448 3119 
C 4442 3094 4429 3011 4429 2985 
C 4429 2934 4461 2915 4499 2915 
C 4544 2915 4570 2941 4582 3055 
L 4717 4174 
C 4717 4195 4730 4263 4730 4277 
C 4730 4352 4672 4352 4557 4352 
L 1523 4352 
C 1402 4352 1338 4352 1338 4229 
C 1338 4154 1382 4154 1491 4154 
C 1888 4154 1888 4113 1888 4050 
C 1888 4018 1882 3992 1862 3922 
L 998 473 
C 941 249 928 185 480 185 
C 358 185 294 185 294 70 
C 294 0 352 0 390 0 
C 512 0 640 0 762 0 
L 1594 0 
C 1734 0 1888 0 2029 0 
C 2086 0 2163 0 2163 115 
C 2163 185 2125 185 1984 185 
C 1478 185 1466 229 1466 324 
C 1466 356 1478 406 1491 449 
L 1901 2055 
z
" transform="scale(0.015625)"/>
       <path id="CMMI12-6d" d="M 1318 1871 
C 1331 1910 1491 2229 1728 2433 
C 1894 2586 2112 2689 2362 2689 
C 2618 2689 2707 2497 2707 2242 
C 2707 2203 2707 2076 2630 1775 
L 2470 1118 
C 2419 926 2298 453 2285 383 
C 2259 287 2221 121 2221 96 
C 2221 6 2291 -64 2387 -64 
C 2579 -64 2611 83 2669 313 
L 3053 1839 
C 3066 1890 3398 2689 4102 2689 
C 4358 2689 4448 2497 4448 2242 
C 4448 1884 4198 1188 4058 805 
C 4000 651 3968 568 3968 453 
C 3968 166 4166 -64 4474 -64 
C 5069 -64 5293 875 5293 913 
C 5293 945 5267 971 5229 971 
C 5171 971 5165 952 5133 843 
C 4986 332 4749 64 4493 64 
C 4429 64 4326 64 4326 269 
C 4326 436 4403 640 4429 710 
C 4544 1018 4832 1773 4832 2145 
C 4832 2528 4608 2816 4122 2816 
C 3693 2816 3347 2574 3091 2197 
C 3072 2542 2861 2816 2381 2816 
C 1811 2816 1510 2415 1395 2255 
C 1376 2618 1114 2816 832 2816 
C 646 2816 499 2727 378 2484 
C 262 2254 173 1865 173 1839 
C 173 1814 198 1782 243 1782 
C 294 1782 301 1788 339 1935 
C 435 2312 557 2689 813 2689 
C 960 2689 1011 2586 1011 2395 
C 1011 2254 947 2005 902 1807 
L 723 1118 
C 698 996 627 709 595 594 
C 550 428 480 128 480 96 
C 480 6 550 -64 646 -64 
C 723 -64 813 -26 864 70 
C 877 102 934 326 966 453 
L 1107 1028 
L 1318 1871 
z
" transform="scale(0.015625)"/>
       <path id="CMSY10-0" d="M 4218 1472 
C 4326 1472 4442 1472 4442 1600 
C 4442 1728 4326 1728 4218 1728 
L 755 1728 
C 646 1728 531 1728 531 1600 
C 531 1472 646 1472 755 1472 
L 4218 1472 
z
" transform="scale(0.015625)"/>
      </defs>
      <use xlink:href="#CMSY10-6a" transform="scale(0.996264)"/>
      <use xlink:href="#CMR17-31" transform="translate(27.674085 0) scale(0.996264)"/>
      <use xlink:href="#CMSY10-69" transform="translate(73.364562 0) scale(0.996264)"/>
      <use xlink:href="#CMR17-2d" transform="translate(142.184262 0) scale(0.996264)"/>
      <use xlink:href="#CMSY10-6a" transform="translate(202.336195 0) scale(0.996264)"/>
      <use xlink:href="#CMMI12-44" transform="translate(230.010279 0) scale(0.996264)"/>
      <use xlink:href="#CMR17-35" transform="translate(311.004509 -17.987904) scale(0.697382)"/>
      <use xlink:href="#CMMI12-3d" transform="translate(342.987691 -17.987904) scale(0.697382)"/>
      <use xlink:href="#CMR17-32" transform="translate(377.129983 -17.987904) scale(0.697382)"/>
      <use xlink:href="#CMMI12-3b" transform="translate(409.611297 0) scale(0.996264)"/>
      <use xlink:href="#CMMI12-46" transform="translate(453.312879 0) scale(0.996264)"/>
      <use xlink:href="#CMR17-3d" transform="translate(557.68368 0) scale(0.996264)"/>
      <use xlink:href="#CMR17-33" transform="translate(657.072477 0) scale(0.996264)"/>
      <use xlink:href="#CMMI12-3b" transform="translate(702.762954 0) scale(0.996264)"/>
      <use xlink:href="#CMMI12-6d" transform="translate(746.464537 0) scale(0.996264)"/>
      <use xlink:href="#CMMI12-46" transform="translate(831.791761 -14.943915) scale(0.697382)"/>
      <use xlink:href="#CMR17-3d" transform="translate(913.651413 0) scale(0.996264)"/>
      <use xlink:href="#CMSY10-0" transform="translate(1013.040211 0) scale(0.996264)"/>
      <use xlink:href="#CMR17-31" transform="translate(1090.527678 0) scale(0.996264)"/>
      <use xlink:href="#CMSY10-69" transform="translate(1136.218155 0) scale(0.996264)"/>
     </g>
    </g>
    <g id="line2d_41">
     <path d="M 622.966988 53.020685 
L 636.966988 53.020685 
L 650.966988 53.020685 
" style="fill: none; stroke: #ff7f0e; stroke-width: 1.5; stroke-linecap: square"/>
    </g>
    <g id="text_22">
     <!-- $|2 \rangle$ - $|D_{5/2}, F = 4, m_F = 0\rangle$ -->
     <g transform="translate(662.166988 57.920685) scale(0.14 -0.14)">
      <use xlink:href="#CMSY10-6a" transform="scale(0.996264)"/>
      <use xlink:href="#CMR17-32" transform="translate(27.674085 0) scale(0.996264)"/>
      <use xlink:href="#CMSY10-69" transform="translate(73.364562 0) scale(0.996264)"/>
      <use xlink:href="#CMR17-2d" transform="translate(142.184262 0) scale(0.996264)"/>
      <use xlink:href="#CMSY10-6a" transform="translate(202.336195 0) scale(0.996264)"/>
      <use xlink:href="#CMMI12-44" transform="translate(230.010279 0) scale(0.996264)"/>
      <use xlink:href="#CMR17-35" transform="translate(311.004509 -17.987904) scale(0.697382)"/>
      <use xlink:href="#CMMI12-3d" transform="translate(342.987691 -17.987904) scale(0.697382)"/>
      <use xlink:href="#CMR17-32" transform="translate(377.129983 -17.987904) scale(0.697382)"/>
      <use xlink:href="#CMMI12-3b" transform="translate(409.611297 0) scale(0.996264)"/>
      <use xlink:href="#CMMI12-46" transform="translate(453.312879 0) scale(0.996264)"/>
      <use xlink:href="#CMR17-3d" transform="translate(557.68368 0) scale(0.996264)"/>
      <use xlink:href="#CMR17-34" transform="translate(657.072477 0) scale(0.996264)"/>
      <use xlink:href="#CMMI12-3b" transform="translate(702.762954 0) scale(0.996264)"/>
      <use xlink:href="#CMMI12-6d" transform="translate(746.464537 0) scale(0.996264)"/>
      <use xlink:href="#CMMI12-46" transform="translate(831.791761 -14.943915) scale(0.697382)"/>
      <use xlink:href="#CMR17-3d" transform="translate(913.651413 0) scale(0.996264)"/>
      <use xlink:href="#CMR17-30" transform="translate(1013.040211 0) scale(0.996264)"/>
      <use xlink:href="#CMSY10-69" transform="translate(1058.730688 0) scale(0.996264)"/>
     </g>
    </g>
    <g id="line2d_42">
     <path d="M 622.966988 75.440598 
L 636.966988 75.440598 
L 650.966988 75.440598 
" style="fill: none; stroke: #2ca02c; stroke-width: 1.5; stroke-linecap: square"/>
    </g>
    <g id="text_23">
     <!-- $|3 \rangle$ - $|D_{5/2}, F = 4, m_F = -1\rangle$ -->
     <g transform="translate(662.166988 80.340598) scale(0.14 -0.14)">
      <use xlink:href="#CMSY10-6a" transform="scale(0.996264)"/>
      <use xlink:href="#CMR17-33" transform="translate(27.674085 0) scale(0.996264)"/>
      <use xlink:href="#CMSY10-69" transform="translate(73.364562 0) scale(0.996264)"/>
      <use xlink:href="#CMR17-2d" transform="translate(142.184262 0) scale(0.996264)"/>
      <use xlink:href="#CMSY10-6a" transform="translate(202.336195 0) scale(0.996264)"/>
      <use xlink:href="#CMMI12-44" transform="translate(230.010279 0) scale(0.996264)"/>
      <use xlink:href="#CMR17-35" transform="translate(311.004509 -17.987904) scale(0.697382)"/>
      <use xlink:href="#CMMI12-3d" transform="translate(342.987691 -17.987904) scale(0.697382)"/>
      <use xlink:href="#CMR17-32" transform="translate(377.129983 -17.987904) scale(0.697382)"/>
      <use xlink:href="#CMMI12-3b" transform="translate(409.611297 0) scale(0.996264)"/>
      <use xlink:href="#CMMI12-46" transform="translate(453.312879 0) scale(0.996264)"/>
      <use xlink:href="#CMR17-3d" transform="translate(557.68368 0) scale(0.996264)"/>
      <use xlink:href="#CMR17-34" transform="translate(657.072477 0) scale(0.996264)"/>
      <use xlink:href="#CMMI12-3b" transform="translate(702.762954 0) scale(0.996264)"/>
      <use xlink:href="#CMMI12-6d" transform="translate(746.464537 0) scale(0.996264)"/>
      <use xlink:href="#CMMI12-46" transform="translate(831.791761 -14.943915) scale(0.697382)"/>
      <use xlink:href="#CMR17-3d" transform="translate(913.651413 0) scale(0.996264)"/>
      <use xlink:href="#CMSY10-0" transform="translate(1013.040211 0) scale(0.996264)"/>
      <use xlink:href="#CMR17-31" transform="translate(1090.527678 0) scale(0.996264)"/>
      <use xlink:href="#CMSY10-69" transform="translate(1136.218155 0) scale(0.996264)"/>
     </g>
    </g>
    <g id="line2d_43">
     <path d="M 622.966988 97.86051 
L 636.966988 97.86051 
L 650.966988 97.86051 
" style="fill: none; stroke: #d62728; stroke-width: 1.5; stroke-linecap: square"/>
    </g>
    <g id="text_24">
     <!-- $|5 \rangle$ - $|S_{1/2}, F = 2, m_F = -1 \rangle$ -->
     <g transform="translate(662.166988 102.76051) scale(0.14 -0.14)">
      <defs>
       <path id="CMMI12-53" d="M 4064 4423 
C 4064 4480 4019 4480 4006 4480 
C 3981 4480 3974 4474 3898 4378 
C 3859 4333 3597 4001 3590 3995 
C 3379 4410 2957 4480 2688 4480 
C 1875 4480 1139 3743 1139 3025 
C 1139 2549 1427 2269 1741 2161 
C 1811 2135 2189 2033 2381 1989 
C 2707 1900 2790 1875 2925 1735 
C 2950 1703 3078 1557 3078 1258 
C 3078 667 2528 57 1888 57 
C 1363 57 781 280 781 991 
C 781 1112 806 1265 826 1328 
C 826 1348 832 1378 832 1391 
C 832 1417 819 1449 768 1449 
C 710 1449 704 1436 678 1328 
L 352 24 
C 352 18 326 -64 326 -71 
C 326 -128 378 -128 390 -128 
C 416 -128 422 -122 499 -26 
L 794 356 
C 947 126 1280 -128 1875 -128 
C 2701 -128 3456 666 3456 1460 
C 3456 1728 3392 1963 3149 2197 
C 3014 2331 2899 2363 2310 2516 
C 1882 2630 1824 2649 1709 2751 
C 1600 2858 1517 3011 1517 3227 
C 1517 3761 2061 4308 2669 4308 
C 3296 4308 3590 3926 3590 3323 
C 3590 3158 3558 2986 3558 2961 
C 3558 2903 3610 2903 3629 2903 
C 3686 2903 3693 2922 3718 3024 
L 4064 4423 
z
" transform="scale(0.015625)"/>
      </defs>
      <use xlink:href="#CMSY10-6a" transform="scale(0.996264)"/>
      <use xlink:href="#CMR17-35" transform="translate(27.674085 0) scale(0.996264)"/>
      <use xlink:href="#CMSY10-69" transform="translate(73.364562 0) scale(0.996264)"/>
      <use xlink:href="#CMR17-2d" transform="translate(142.184262 0) scale(0.996264)"/>
      <use xlink:href="#CMSY10-6a" transform="translate(202.336195 0) scale(0.996264)"/>
      <use xlink:href="#CMMI12-53" transform="translate(230.010279 0) scale(0.996264)"/>
      <use xlink:href="#CMR17-31" transform="translate(290.004767 -17.987904) scale(0.697382)"/>
      <use xlink:href="#CMMI12-3d" transform="translate(321.987949 -17.987904) scale(0.697382)"/>
      <use xlink:href="#CMR17-32" transform="translate(356.13024 -17.987904) scale(0.697382)"/>
      <use xlink:href="#CMMI12-3b" transform="translate(388.611554 0) scale(0.996264)"/>
      <use xlink:href="#CMMI12-46" transform="translate(432.313137 0) scale(0.996264)"/>
      <use xlink:href="#CMR17-3d" transform="translate(536.683938 0) scale(0.996264)"/>
      <use xlink:href="#CMR17-32" transform="translate(636.072735 0) scale(0.996264)"/>
      <use xlink:href="#CMMI12-3b" transform="translate(681.763212 0) scale(0.996264)"/>
      <use xlink:href="#CMMI12-6d" transform="translate(725.464794 0) scale(0.996264)"/>
      <use xlink:href="#CMMI12-46" transform="translate(810.792019 -14.943915) scale(0.697382)"/>
      <use xlink:href="#CMR17-3d" transform="translate(892.651671 0) scale(0.996264)"/>
      <use xlink:href="#CMSY10-0" transform="translate(992.040468 0) scale(0.996264)"/>
      <use xlink:href="#CMR17-31" transform="translate(1069.527936 0) scale(0.996264)"/>
      <use xlink:href="#CMSY10-69" transform="translate(1115.218413 0) scale(0.996264)"/>
     </g>
    </g>
    <g id="line2d_44">
     <path d="M 622.966988 120.280423 
L 636.966988 120.280423 
L 650.966988 120.280423 
" style="fill: none; stroke: #9467bd; stroke-width: 1.5; stroke-linecap: square"/>
    </g>
    <g id="text_25">
     <!-- $|7 \rangle$ - $|D_{5/2}, F = 4, m_F = 1\rangle$ -->
     <g transform="translate(662.166988 125.180423) scale(0.14 -0.14)">
      <use xlink:href="#CMSY10-6a" transform="scale(0.996264)"/>
      <use xlink:href="#CMR17-37" transform="translate(27.674085 0) scale(0.996264)"/>
      <use xlink:href="#CMSY10-69" transform="translate(73.364562 0) scale(0.996264)"/>
      <use xlink:href="#CMR17-2d" transform="translate(142.184262 0) scale(0.996264)"/>
      <use xlink:href="#CMSY10-6a" transform="translate(202.336195 0) scale(0.996264)"/>
      <use xlink:href="#CMMI12-44" transform="translate(230.010279 0) scale(0.996264)"/>
      <use xlink:href="#CMR17-35" transform="translate(311.004509 -17.987904) scale(0.697382)"/>
      <use xlink:href="#CMMI12-3d" transform="translate(342.987691 -17.987904) scale(0.697382)"/>
      <use xlink:href="#CMR17-32" transform="translate(377.129983 -17.987904) scale(0.697382)"/>
      <use xlink:href="#CMMI12-3b" transform="translate(409.611297 0) scale(0.996264)"/>
      <use xlink:href="#CMMI12-46" transform="translate(453.312879 0) scale(0.996264)"/>
      <use xlink:href="#CMR17-3d" transform="translate(557.68368 0) scale(0.996264)"/>
      <use xlink:href="#CMR17-34" transform="translate(657.072477 0) scale(0.996264)"/>
      <use xlink:href="#CMMI12-3b" transform="translate(702.762954 0) scale(0.996264)"/>
      <use xlink:href="#CMMI12-6d" transform="translate(746.464537 0) scale(0.996264)"/>
      <use xlink:href="#CMMI12-46" transform="translate(831.791761 -14.943915) scale(0.697382)"/>
      <use xlink:href="#CMR17-3d" transform="translate(913.651413 0) scale(0.996264)"/>
      <use xlink:href="#CMR17-31" transform="translate(1013.040211 0) scale(0.996264)"/>
      <use xlink:href="#CMSY10-69" transform="translate(1058.730688 0) scale(0.996264)"/>
     </g>
    </g>
   </g>
  </g>
 </g>
 <defs>
  <clipPath id="paa1bc2e48c">
   <rect x="47.766064" y="19.44" width="542.477071" height="370.178636"/>
  </clipPath>
 </defs>
</svg>
