<?xml version="1.0" encoding="utf-8" standalone="no"?>
<!DOCTYPE svg PUBLIC "-//W3C//DTD SVG 1.1//EN"
  "http://www.w3.org/Graphics/SVG/1.1/DTD/svg11.dtd">
<svg xmlns:xlink="http://www.w3.org/1999/xlink" width="576pt" height="432pt" viewBox="0 0 576 432" xmlns="http://www.w3.org/2000/svg" version="1.1">
 <metadata>
  <rdf:RDF xmlns:dc="http://purl.org/dc/elements/1.1/" xmlns:cc="http://creativecommons.org/ns#" xmlns:rdf="http://www.w3.org/1999/02/22-rdf-syntax-ns#">
   <cc:Work>
    <dc:type rdf:resource="http://purl.org/dc/dcmitype/StillImage"/>
    <dc:date>2025-07-24T15:11:08.909320</dc:date>
    <dc:format>image/svg+xml</dc:format>
    <dc:creator>
     <cc:Agent>
      <dc:title>Matplotlib v3.10.1, https://matplotlib.org/</dc:title>
     </cc:Agent>
    </dc:creator>
   </cc:Work>
  </rdf:RDF>
 </metadata>
 <defs>
  <style type="text/css">*{stroke-linejoin: round; stroke-linecap: butt}</style>
 </defs>
 <g id="figure_1">
  <g id="patch_1">
   <path d="M 0 432 
L 576 432 
L 576 0 
L 0 0 
z
" style="fill: #ffffff"/>
  </g>
  <g id="axes_1">
   <g id="patch_2">
    <path d="M 84.637054 372.562089 
L 551.492857 372.562089 
L 551.492857 33.570081 
L 84.637054 33.570081 
z
" style="fill: #ffffff"/>
   </g>
   <g id="matplotlib.axis_1">
    <g id="xtick_1">
     <g id="line2d_1">
      <path d="M 84.637054 372.562089 
L 84.637054 33.570081 
" clip-path="url(#pa8c9ab3f6e)" style="fill: none; stroke-dasharray: 1.85,0.8; stroke-dashoffset: 0; stroke: #b0b0b0; stroke-width: 0.5"/>
     </g>
     <g id="line2d_2">
      <defs>
       <path id="mc0527b65a2" d="M 0 0 
L 0 3.5 
" style="stroke: #000000; stroke-width: 0.8"/>
      </defs>
      <g>
       <use xlink:href="#mc0527b65a2" x="84.637054" y="372.562089" style="stroke: #000000; stroke-width: 0.8"/>
      </g>
     </g>
     <g id="text_1">
      <!-- $\mathdefault{0}$ -->
      <g transform="translate(80.068006 393.399086) scale(0.2 -0.2)">
       <defs>
        <path id="CMR17-30" d="M 2688 2025 
C 2688 2416 2682 3080 2413 3591 
C 2176 4039 1798 4198 1466 4198 
C 1158 4198 768 4058 525 3597 
C 269 3118 243 2524 243 2025 
C 243 1661 250 1106 448 619 
C 723 -39 1216 -128 1466 -128 
C 1760 -128 2208 -7 2470 600 
C 2662 1042 2688 1559 2688 2025 
z
M 1466 -26 
C 1056 -26 813 325 723 812 
C 653 1188 653 1738 653 2096 
C 653 2588 653 2997 736 3387 
C 858 3929 1216 4096 1466 4096 
C 1728 4096 2067 3923 2189 3400 
C 2272 3036 2278 2607 2278 2096 
C 2278 1680 2278 1169 2202 792 
C 2067 95 1690 -26 1466 -26 
z
" transform="scale(0.015625)"/>
       </defs>
       <use xlink:href="#CMR17-30" transform="scale(0.996264)"/>
      </g>
     </g>
    </g>
    <g id="xtick_2">
     <g id="line2d_3">
      <path d="M 178.008215 372.562089 
L 178.008215 33.570081 
" clip-path="url(#pa8c9ab3f6e)" style="fill: none; stroke-dasharray: 1.85,0.8; stroke-dashoffset: 0; stroke: #b0b0b0; stroke-width: 0.5"/>
     </g>
     <g id="line2d_4">
      <g>
       <use xlink:href="#mc0527b65a2" x="178.008215" y="372.562089" style="stroke: #000000; stroke-width: 0.8"/>
      </g>
     </g>
     <g id="text_2">
      <!-- $\mathdefault{20}$ -->
      <g transform="translate(168.870119 393.399086) scale(0.2 -0.2)">
       <defs>
        <path id="CMR17-32" d="M 2669 989 
L 2554 989 
C 2490 536 2438 459 2413 420 
C 2381 369 1920 369 1830 369 
L 602 369 
C 832 619 1280 1072 1824 1597 
C 2214 1967 2669 2402 2669 3035 
C 2669 3790 2067 4224 1395 4224 
C 691 4224 262 3604 262 3030 
C 262 2780 448 2748 525 2748 
C 589 2748 781 2787 781 3010 
C 781 3207 614 3264 525 3264 
C 486 3264 448 3258 422 3245 
C 544 3790 915 4058 1306 4058 
C 1862 4058 2227 3617 2227 3035 
C 2227 2479 1901 2000 1536 1584 
L 262 146 
L 262 0 
L 2515 0 
L 2669 989 
z
" transform="scale(0.015625)"/>
       </defs>
       <use xlink:href="#CMR17-32" transform="scale(0.996264)"/>
       <use xlink:href="#CMR17-30" transform="translate(45.690477 0) scale(0.996264)"/>
      </g>
     </g>
    </g>
    <g id="xtick_3">
     <g id="line2d_5">
      <path d="M 271.379375 372.562089 
L 271.379375 33.570081 
" clip-path="url(#pa8c9ab3f6e)" style="fill: none; stroke-dasharray: 1.85,0.8; stroke-dashoffset: 0; stroke: #b0b0b0; stroke-width: 0.5"/>
     </g>
     <g id="line2d_6">
      <g>
       <use xlink:href="#mc0527b65a2" x="271.379375" y="372.562089" style="stroke: #000000; stroke-width: 0.8"/>
      </g>
     </g>
     <g id="text_3">
      <!-- $\mathdefault{40}$ -->
      <g transform="translate(262.24128 393.399086) scale(0.2 -0.2)">
       <defs>
        <path id="CMR17-34" d="M 2150 4122 
C 2150 4256 2144 4256 2029 4256 
L 128 1254 
L 128 1088 
L 1779 1088 
L 1779 457 
C 1779 224 1766 160 1318 160 
L 1197 160 
L 1197 0 
C 1402 0 1747 0 1965 0 
C 2182 0 2528 0 2733 0 
L 2733 160 
L 2611 160 
C 2163 160 2150 224 2150 457 
L 2150 1088 
L 2803 1088 
L 2803 1254 
L 2150 1254 
L 2150 4122 
z
M 1798 3703 
L 1798 1254 
L 256 1254 
L 1798 3703 
z
" transform="scale(0.015625)"/>
       </defs>
       <use xlink:href="#CMR17-34" transform="scale(0.996264)"/>
       <use xlink:href="#CMR17-30" transform="translate(45.690477 0) scale(0.996264)"/>
      </g>
     </g>
    </g>
    <g id="xtick_4">
     <g id="line2d_7">
      <path d="M 364.750536 372.562089 
L 364.750536 33.570081 
" clip-path="url(#pa8c9ab3f6e)" style="fill: none; stroke-dasharray: 1.85,0.8; stroke-dashoffset: 0; stroke: #b0b0b0; stroke-width: 0.5"/>
     </g>
     <g id="line2d_8">
      <g>
       <use xlink:href="#mc0527b65a2" x="364.750536" y="372.562089" style="stroke: #000000; stroke-width: 0.8"/>
      </g>
     </g>
     <g id="text_4">
      <!-- $\mathdefault{60}$ -->
      <g transform="translate(355.61244 393.399086) scale(0.2 -0.2)">
       <defs>
        <path id="CMR17-36" d="M 678 2176 
C 678 3690 1395 4032 1811 4032 
C 1946 4032 2272 4009 2400 3776 
C 2298 3776 2106 3776 2106 3553 
C 2106 3381 2246 3323 2336 3323 
C 2394 3323 2566 3348 2566 3560 
C 2566 3954 2246 4179 1805 4179 
C 1043 4179 243 3390 243 1984 
C 243 253 966 -128 1478 -128 
C 2099 -128 2688 427 2688 1283 
C 2688 2081 2170 2662 1517 2662 
C 1126 2662 838 2407 678 1960 
L 678 2176 
z
M 1478 25 
C 691 25 691 1200 691 1436 
C 691 1896 909 2560 1504 2560 
C 1613 2560 1926 2560 2138 2120 
C 2253 1870 2253 1609 2253 1289 
C 2253 944 2253 690 2118 434 
C 1978 171 1773 25 1478 25 
z
" transform="scale(0.015625)"/>
       </defs>
       <use xlink:href="#CMR17-36" transform="scale(0.996264)"/>
       <use xlink:href="#CMR17-30" transform="translate(45.690477 0) scale(0.996264)"/>
      </g>
     </g>
    </g>
    <g id="xtick_5">
     <g id="line2d_9">
      <path d="M 458.121696 372.562089 
L 458.121696 33.570081 
" clip-path="url(#pa8c9ab3f6e)" style="fill: none; stroke-dasharray: 1.85,0.8; stroke-dashoffset: 0; stroke: #b0b0b0; stroke-width: 0.5"/>
     </g>
     <g id="line2d_10">
      <g>
       <use xlink:href="#mc0527b65a2" x="458.121696" y="372.562089" style="stroke: #000000; stroke-width: 0.8"/>
      </g>
     </g>
     <g id="text_5">
      <!-- $\mathdefault{80}$ -->
      <g transform="translate(448.983601 393.399086) scale(0.2 -0.2)">
       <defs>
        <path id="CMR17-38" d="M 1741 2264 
C 2144 2467 2554 2773 2554 3263 
C 2554 3841 1990 4179 1472 4179 
C 890 4179 378 3759 378 3180 
C 378 3021 416 2747 666 2505 
C 730 2442 998 2251 1171 2130 
C 883 1983 211 1634 211 934 
C 211 279 838 -128 1459 -128 
C 2144 -128 2720 362 2720 1010 
C 2720 1590 2330 1857 2074 2029 
L 1741 2264 
z
M 902 2822 
C 851 2854 595 3051 595 3351 
C 595 3739 998 4032 1459 4032 
C 1965 4032 2336 3676 2336 3262 
C 2336 2669 1670 2331 1638 2331 
C 1632 2331 1626 2331 1574 2370 
L 902 2822 
z
M 2080 1519 
C 2176 1449 2483 1240 2483 851 
C 2483 381 2010 25 1472 25 
C 890 25 448 438 448 940 
C 448 1443 838 1862 1280 2060 
L 2080 1519 
z
" transform="scale(0.015625)"/>
       </defs>
       <use xlink:href="#CMR17-38" transform="scale(0.996264)"/>
       <use xlink:href="#CMR17-30" transform="translate(45.690477 0) scale(0.996264)"/>
      </g>
     </g>
    </g>
    <g id="xtick_6">
     <g id="line2d_11">
      <path d="M 551.492857 372.562089 
L 551.492857 33.570081 
" clip-path="url(#pa8c9ab3f6e)" style="fill: none; stroke-dasharray: 1.85,0.8; stroke-dashoffset: 0; stroke: #b0b0b0; stroke-width: 0.5"/>
     </g>
     <g id="line2d_12">
      <g>
       <use xlink:href="#mc0527b65a2" x="551.492857" y="372.562089" style="stroke: #000000; stroke-width: 0.8"/>
      </g>
     </g>
     <g id="text_6">
      <!-- $\mathdefault{100}$ -->
      <g transform="translate(537.785714 393.399086) scale(0.2 -0.2)">
       <defs>
        <path id="CMR17-31" d="M 1702 4058 
C 1702 4192 1696 4192 1606 4192 
C 1357 3916 979 3827 621 3827 
C 602 3827 570 3827 563 3808 
C 557 3795 557 3782 557 3648 
C 755 3648 1088 3686 1344 3839 
L 1344 461 
C 1344 236 1331 160 781 160 
L 589 160 
L 589 0 
C 896 0 1216 0 1523 0 
C 1830 0 2150 0 2458 0 
L 2458 160 
L 2266 160 
C 1715 160 1702 230 1702 458 
L 1702 4058 
z
" transform="scale(0.015625)"/>
       </defs>
       <use xlink:href="#CMR17-31" transform="scale(0.996264)"/>
       <use xlink:href="#CMR17-30" transform="translate(45.690477 0) scale(0.996264)"/>
       <use xlink:href="#CMR17-30" transform="translate(91.380954 0) scale(0.996264)"/>
      </g>
     </g>
    </g>
    <g id="text_7">
     <!-- \textbf{Magnetic field (Gauss)} -->
     <g transform="translate(206.391111 416.21868) scale(0.2 -0.2)">
      <defs>
       <path id="CMBX12-4d" d="M 3411 797 
L 1875 4218 
C 1818 4352 1760 4352 1626 4352 
L 262 4352 
L 262 4078 
L 941 4078 
L 941 444 
C 941 304 934 298 768 272 
C 653 260 525 260 410 260 
L 262 260 
L 262 -13 
C 410 0 909 0 1088 0 
C 1267 0 1773 0 1920 -13 
L 1920 260 
L 1773 260 
C 1600 260 1587 260 1434 279 
C 1248 305 1242 311 1242 451 
L 1242 4002 
L 1248 4002 
L 2989 134 
C 3021 64 3059 0 3168 0 
C 3277 0 3315 64 3347 134 
L 5120 4078 
L 5126 4078 
L 5126 260 
L 4448 260 
L 4448 -13 
C 4621 0 5286 0 5504 0 
C 5722 0 6387 0 6560 -13 
L 6560 260 
L 5882 260 
L 5882 4078 
L 6560 4078 
L 6560 4352 
L 5197 4352 
C 5062 4352 5005 4352 4947 4218 
L 3411 797 
z
" transform="scale(0.015625)"/>
       <path id="CMBX12-61" d="M 2944 1898 
C 2944 2484 2477 2879 1574 2879 
C 1216 2879 461 2879 461 2334 
C 461 2061 666 1945 838 1945 
C 1030 1945 1216 2079 1216 2323 
C 1216 2445 1171 2559 1062 2630 
C 1274 2688 1427 2688 1549 2688 
C 1984 2688 2246 2445 2246 1919 
L 2246 1663 
C 1235 1663 218 1382 218 676 
C 218 95 960 -32 1402 -32 
C 1894 -32 2208 233 2336 510 
C 2336 274 2336 0 2982 0 
L 3309 0 
C 3443 0 3494 0 3494 145 
C 3494 273 3437 273 3347 273 
C 2944 273 2944 374 2944 522 
L 2944 1898 
z
M 2246 882 
C 2246 291 1709 178 1504 178 
C 1190 178 928 390 928 686 
C 928 1273 1619 1472 2246 1472 
L 2246 882 
z
" transform="scale(0.015625)"/>
       <path id="CMBX12-67" d="M 832 1189 
C 1139 1024 1498 1024 1594 1024 
C 2477 1024 2829 1514 2829 1960 
C 2829 2285 2643 2515 2566 2578 
C 2752 2676 2906 2700 3014 2713 
C 2995 2682 2976 2658 2976 2578 
C 2976 2450 3066 2334 3232 2334 
C 3398 2334 3488 2455 3488 2588 
C 3488 2741 3373 2944 3104 2944 
C 2829 2944 2566 2803 2432 2682 
C 2170 2834 1920 2891 1594 2891 
C 710 2891 358 2403 358 1957 
C 358 1760 422 1501 691 1285 
C 582 1161 467 933 467 699 
C 467 420 614 180 749 76 
C 595 39 198 -105 198 -461 
C 198 -830 614 -1248 1792 -1248 
C 2854 -1248 3392 -910 3392 -439 
C 3392 114 3021 295 2861 370 
C 2554 521 2144 521 1581 521 
C 1421 521 1139 521 1107 527 
C 832 575 755 829 755 957 
C 755 1010 762 1107 832 1189 
z
M 1594 1227 
C 1037 1227 1037 1665 1037 1957 
C 1037 2250 1037 2688 1594 2688 
C 2150 2688 2150 2250 2150 1957 
C 2150 1665 2150 1227 1594 1227 
z
M 1952 -64 
C 2419 -64 2867 -145 2867 -467 
C 2867 -685 2643 -1045 1798 -1045 
C 954 -1045 723 -697 723 -461 
C 723 -64 1126 -64 1222 -64 
L 1952 -64 
z
" transform="scale(0.015625)"/>
       <path id="CMBX12-6e" d="M 3398 1924 
C 3398 2525 3136 2834 2432 2834 
C 1971 2834 1574 2615 1357 2143 
L 1350 2143 
L 1350 2816 
L 269 2816 
L 269 2517 
C 666 2517 710 2517 710 2270 
L 710 260 
L 269 260 
L 269 -13 
C 416 0 877 0 1056 0 
C 1235 0 1702 0 1850 -13 
L 1850 260 
L 1408 260 
L 1408 1607 
C 1408 2289 1920 2624 2330 2624 
C 2566 2624 2701 2473 2701 1993 
L 2701 260 
L 2259 260 
L 2259 -13 
C 2406 0 2867 0 3046 0 
C 3226 0 3693 0 3840 -13 
L 3840 260 
L 3398 260 
L 3398 1924 
z
" transform="scale(0.015625)"/>
       <path id="CMBX12-65" d="M 2893 1408 
C 3040 1408 3078 1408 3078 1567 
C 3078 1758 3034 2233 2739 2532 
C 2470 2798 2112 2880 1741 2880 
C 742 2880 198 2233 198 1434 
C 198 545 858 -32 1824 -32 
C 2790 -32 3078 640 3078 748 
C 3078 843 2982 843 2944 843 
C 2842 843 2835 824 2797 742 
C 2630 330 2208 197 1901 197 
C 973 197 966 1053 966 1408 
L 2893 1408 
z
M 966 1593 
C 979 1852 986 2100 1120 2328 
C 1242 2531 1466 2670 1741 2670 
C 2426 2670 2483 1909 2490 1593 
L 966 1593 
z
" transform="scale(0.015625)"/>
       <path id="CMBX12-74" d="M 1350 2560 
L 2272 2560 
L 2272 2833 
L 1350 2833 
L 1350 4032 
L 1082 4032 
C 1075 3405 768 2776 134 2776 
L 134 2560 
L 653 2560 
L 653 789 
C 653 114 1178 -32 1638 -32 
C 2112 -32 2394 325 2394 795 
L 2394 1133 
L 2125 1133 
L 2125 802 
C 2125 381 1933 197 1734 197 
C 1350 197 1350 624 1350 770 
L 1350 2560 
z
" transform="scale(0.015625)"/>
       <path id="CMBX12-69" d="M 1427 3958 
C 1427 4219 1216 4416 966 4416 
C 704 4416 506 4200 506 3958 
C 506 3716 704 3500 966 3500 
C 1216 3500 1427 3697 1427 3958 
z
M 301 2816 
L 301 2517 
C 678 2517 723 2517 723 2270 
L 723 260 
L 282 260 
L 282 -13 
C 429 0 870 0 1043 0 
C 1222 0 1632 0 1786 -13 
L 1786 260 
L 1389 260 
L 1389 2816 
L 301 2816 
z
" transform="scale(0.015625)"/>
       <path id="CMBX12-63" d="M 2995 753 
C 2995 829 2925 829 2861 829 
C 2758 829 2752 823 2720 747 
C 2675 625 2502 197 1914 197 
C 1011 197 1011 1166 1011 1453 
C 1011 1829 1018 2664 1856 2664 
C 1901 2664 2278 2664 2278 2632 
C 2278 2624 2272 2618 2259 2612 
C 2240 2593 2157 2496 2157 2334 
C 2157 2064 2374 1954 2534 1954 
C 2669 1954 2912 2039 2912 2346 
C 2912 2880 2176 2880 1830 2880 
C 691 2880 243 2145 243 1414 
C 243 552 851 -32 1792 -32 
C 2797 -32 2995 708 2995 753 
z
" transform="scale(0.015625)"/>
       <path id="CMBX12-c" d="M 2221 2841 
L 2221 2841 
L 1299 2841 
L 1299 3461 
C 1299 4162 2054 4224 2310 4224 
C 2381 4224 2611 4224 2803 4098 
C 2605 4034 2522 3882 2522 3718 
C 2522 3485 2694 3333 2912 3333 
C 3123 3333 3302 3479 3302 3719 
C 3302 4067 3014 4434 2368 4434 
C 1638 4434 666 4218 666 3454 
L 666 2816 
L 192 2816 
L 192 2543 
L 666 2543 
L 666 260 
L 224 260 
L 224 -13 
C 371 0 826 0 998 0 
C 1171 0 1626 0 1773 -13 
L 1773 260 
L 1331 260 
L 1331 2543 
L 2464 2543 
C 2624 2543 2662 2536 2662 2313 
L 2662 260 
L 2221 260 
L 2221 -13 
C 2368 0 2822 0 2995 0 
C 3168 0 3622 0 3770 -13 
L 3770 260 
L 3328 260 
L 3328 2841 
L 2221 2841 
z
" transform="scale(0.015625)"/>
       <path id="CMBX12-6c" d="M 1389 4416 
L 282 4416 
L 282 4117 
C 678 4117 723 4117 723 3866 
L 723 260 
L 282 260 
L 282 -13 
C 429 0 883 0 1056 0 
C 1229 0 1683 0 1830 -13 
L 1830 260 
L 1389 260 
L 1389 4416 
z
" transform="scale(0.015625)"/>
       <path id="CMBX12-64" d="M 2221 4416 
L 2221 4117 
C 2618 4117 2662 4117 2662 3867 
L 2662 2575 
C 2522 2696 2240 2880 1798 2880 
C 890 2880 243 2318 243 1424 
C 243 510 877 -32 1728 -32 
C 2080 -32 2381 94 2630 311 
L 2630 0 
L 3770 0 
L 3770 292 
C 3373 292 3328 292 3328 540 
L 3328 4416 
L 2221 4416 
z
M 2630 661 
C 2362 262 2035 178 1805 178 
C 1011 178 1011 989 1011 1411 
C 1011 1712 1011 2032 1152 2274 
C 1350 2632 1728 2670 1875 2670 
C 2138 2670 2419 2556 2630 2276 
L 2630 661 
z
" transform="scale(0.015625)"/>
       <path id="CMBX12-28" d="M 2394 -1524 
C 2394 -1498 2394 -1485 2272 -1371 
C 1555 -659 1280 461 1280 1580 
C 1280 2834 1594 3865 2310 4583 
C 2387 4659 2394 4666 2394 4691 
C 2394 4768 2317 4768 2285 4768 
C 2227 4768 2214 4768 2048 4634 
C 1126 3903 691 2732 691 1588 
C 691 417 1133 -722 2042 -1460 
C 2208 -1600 2221 -1600 2285 -1600 
C 2317 -1600 2394 -1600 2394 -1524 
z
" transform="scale(0.015625)"/>
       <path id="CMBX12-47" d="M 4794 1461 
L 5293 1461 
L 5293 1734 
C 5139 1728 4454 1728 4250 1728 
C 3859 1728 3437 1728 3046 1728 
L 3046 1461 
L 3949 1461 
L 3949 811 
C 3949 677 3949 498 3693 338 
C 3565 256 3366 192 3098 192 
C 2733 192 2099 281 1702 743 
C 1453 1027 1299 1414 1299 2173 
C 1299 2826 1408 3269 1696 3604 
C 2106 4079 2746 4143 3053 4143 
C 3533 4143 4307 3877 4499 2768 
C 4512 2711 4570 2711 4646 2711 
C 4794 2711 4794 2724 4794 2876 
L 4794 4253 
C 4794 4399 4794 4418 4653 4418 
L 4173 3960 
C 3814 4264 3386 4416 2912 4416 
C 1382 4416 397 3497 397 2167 
C 397 862 1350 -81 2918 -81 
C 3347 -81 3853 14 4115 351 
C 4333 151 4698 0 4717 0 
C 4794 0 4794 64 4794 165 
L 4794 1461 
z
" transform="scale(0.015625)"/>
       <path id="CMBX12-75" d="M 2259 2859 
L 2259 2560 
C 2656 2560 2701 2560 2701 2312 
L 2701 1056 
C 2701 569 2413 178 1914 178 
C 1434 178 1408 337 1408 684 
L 1408 2859 
L 269 2859 
L 269 2560 
C 666 2560 710 2560 710 2312 
L 710 794 
C 710 153 1139 -32 1824 -32 
C 1978 -32 2451 -32 2726 496 
L 2733 496 
L 2733 0 
L 3840 0 
L 3840 292 
C 3443 292 3398 292 3398 540 
L 3398 2859 
L 2259 2859 
z
" transform="scale(0.015625)"/>
       <path id="CMBX12-73" d="M 2413 2715 
C 2413 2836 2413 2880 2317 2880 
C 2278 2880 2266 2880 2170 2823 
C 2144 2804 2074 2759 2042 2740 
C 1862 2842 1626 2880 1395 2880 
C 1203 2880 243 2880 243 2056 
C 243 1389 1037 1250 1235 1218 
C 1408 1187 1619 1148 1645 1148 
C 1901 1091 2157 932 2157 666 
C 2157 178 1574 178 1440 178 
C 1114 178 710 279 531 896 
C 493 1023 486 1023 378 1023 
C 243 1023 243 1004 243 858 
L 243 132 
C 243 12 243 -32 339 -32 
C 384 -32 397 -32 525 70 
L 691 191 
C 979 -32 1325 -32 1440 -32 
C 1792 -32 2592 44 2592 888 
C 2592 1192 2426 1402 2298 1516 
C 2035 1731 1818 1770 1472 1833 
C 1062 1903 678 1973 678 2277 
C 678 2689 1248 2689 1382 2689 
C 2093 2689 2131 2245 2144 2087 
C 2150 2005 2202 2005 2278 2005 
C 2413 2005 2413 2024 2413 2170 
L 2413 2715 
z
" transform="scale(0.015625)"/>
       <path id="CMBX12-29" d="M 2099 1581 
C 2099 2751 1658 3890 749 4628 
C 582 4768 570 4768 506 4768 
C 474 4768 397 4768 397 4692 
C 397 4667 397 4654 518 4540 
C 1235 3827 1510 2708 1510 1588 
C 1510 334 1197 -696 480 -1415 
C 403 -1492 397 -1498 397 -1524 
C 397 -1600 474 -1600 506 -1600 
C 563 -1600 576 -1600 742 -1466 
C 1664 -735 2099 436 2099 1581 
z
" transform="scale(0.015625)"/>
      </defs>
      <use xlink:href="#CMBX12-4d" transform="scale(0.996264)"/>
      <use xlink:href="#CMBX12-61" transform="translate(106.314425 0) scale(0.996264)"/>
      <use xlink:href="#CMBX12-67" transform="translate(160.797613 0) scale(0.996264)"/>
      <use xlink:href="#CMBX12-6e" transform="translate(216.837464 0) scale(0.996264)"/>
      <use xlink:href="#CMBX12-65" transform="translate(279.103964 0) scale(0.996264)"/>
      <use xlink:href="#CMBX12-74" transform="translate(330.243232 0) scale(0.996264)"/>
      <use xlink:href="#CMBX12-69" transform="translate(373.829782 0) scale(0.996264)"/>
      <use xlink:href="#CMBX12-63" transform="translate(404.963032 0) scale(0.996264)"/>
      <use xlink:href="#CMBX12-c" transform="translate(492.136133 0) scale(0.996264)"/>
      <use xlink:href="#CMBX12-65" transform="translate(554.402634 0) scale(0.996264)"/>
      <use xlink:href="#CMBX12-6c" transform="translate(605.541901 0) scale(0.996264)"/>
      <use xlink:href="#CMBX12-64" transform="translate(636.675151 0) scale(0.996264)"/>
      <use xlink:href="#CMBX12-28" transform="translate(736.301552 0) scale(0.996264)"/>
      <use xlink:href="#CMBX12-47" transform="translate(779.888103 0) scale(0.996264)"/>
      <use xlink:href="#CMBX12-61" transform="translate(867.983663 0) scale(0.996264)"/>
      <use xlink:href="#CMBX12-75" transform="translate(922.466851 0) scale(0.996264)"/>
      <use xlink:href="#CMBX12-73" transform="translate(984.733352 0) scale(0.996264)"/>
      <use xlink:href="#CMBX12-73" transform="translate(1028.942689 0) scale(0.996264)"/>
      <use xlink:href="#CMBX12-29" transform="translate(1073.152026 0) scale(0.996264)"/>
     </g>
    </g>
   </g>
   <g id="matplotlib.axis_2">
    <g id="ytick_1">
     <g id="line2d_13">
      <path d="M 84.637054 329.825118 
L 551.492857 329.825118 
" clip-path="url(#pa8c9ab3f6e)" style="fill: none; stroke-dasharray: 1.85,0.8; stroke-dashoffset: 0; stroke: #b0b0b0; stroke-width: 0.5"/>
     </g>
     <g id="line2d_14">
      <defs>
       <path id="m67747eb56b" d="M 0 0 
L -3.5 0 
" style="stroke: #000000; stroke-width: 0.8"/>
      </defs>
      <g>
       <use xlink:href="#m67747eb56b" x="84.637054" y="329.825118" style="stroke: #000000; stroke-width: 0.8"/>
      </g>
     </g>
     <g id="text_8">
      <!-- $\mathdefault{−400}$ -->
      <g transform="translate(34.72528 336.743617) scale(0.2 -0.2)">
       <defs>
        <path id="CMSY10-0" d="M 4218 1472 
C 4326 1472 4442 1472 4442 1600 
C 4442 1728 4326 1728 4218 1728 
L 755 1728 
C 646 1728 531 1728 531 1600 
C 531 1472 646 1472 755 1472 
L 4218 1472 
z
" transform="scale(0.015625)"/>
       </defs>
       <use xlink:href="#CMSY10-0" transform="scale(0.996264)"/>
       <use xlink:href="#CMR17-34" transform="translate(77.487468 0) scale(0.996264)"/>
       <use xlink:href="#CMR17-30" transform="translate(123.177945 0) scale(0.996264)"/>
       <use xlink:href="#CMR17-30" transform="translate(168.868422 0) scale(0.996264)"/>
      </g>
     </g>
    </g>
    <g id="ytick_2">
     <g id="line2d_15">
      <path d="M 84.637054 264.342462 
L 551.492857 264.342462 
" clip-path="url(#pa8c9ab3f6e)" style="fill: none; stroke-dasharray: 1.85,0.8; stroke-dashoffset: 0; stroke: #b0b0b0; stroke-width: 0.5"/>
     </g>
     <g id="line2d_16">
      <g>
       <use xlink:href="#m67747eb56b" x="84.637054" y="264.342462" style="stroke: #000000; stroke-width: 0.8"/>
      </g>
     </g>
     <g id="text_9">
      <!-- $\mathdefault{−200}$ -->
      <g transform="translate(34.72528 271.260961) scale(0.2 -0.2)">
       <use xlink:href="#CMSY10-0" transform="scale(0.996264)"/>
       <use xlink:href="#CMR17-32" transform="translate(77.487468 0) scale(0.996264)"/>
       <use xlink:href="#CMR17-30" transform="translate(123.177945 0) scale(0.996264)"/>
       <use xlink:href="#CMR17-30" transform="translate(168.868422 0) scale(0.996264)"/>
      </g>
     </g>
    </g>
    <g id="ytick_3">
     <g id="line2d_17">
      <path d="M 84.637054 198.859807 
L 551.492857 198.859807 
" clip-path="url(#pa8c9ab3f6e)" style="fill: none; stroke-dasharray: 1.85,0.8; stroke-dashoffset: 0; stroke: #b0b0b0; stroke-width: 0.5"/>
     </g>
     <g id="line2d_18">
      <g>
       <use xlink:href="#m67747eb56b" x="84.637054" y="198.859807" style="stroke: #000000; stroke-width: 0.8"/>
      </g>
     </g>
     <g id="text_10">
      <!-- $\mathdefault{0}$ -->
      <g transform="translate(68.498958 205.778305) scale(0.2 -0.2)">
       <use xlink:href="#CMR17-30" transform="scale(0.996264)"/>
      </g>
     </g>
    </g>
    <g id="ytick_4">
     <g id="line2d_19">
      <path d="M 84.637054 133.377151 
L 551.492857 133.377151 
" clip-path="url(#pa8c9ab3f6e)" style="fill: none; stroke-dasharray: 1.85,0.8; stroke-dashoffset: 0; stroke: #b0b0b0; stroke-width: 0.5"/>
     </g>
     <g id="line2d_20">
      <g>
       <use xlink:href="#m67747eb56b" x="84.637054" y="133.377151" style="stroke: #000000; stroke-width: 0.8"/>
      </g>
     </g>
     <g id="text_11">
      <!-- $\mathdefault{200}$ -->
      <g transform="translate(50.222768 140.295649) scale(0.2 -0.2)">
       <use xlink:href="#CMR17-32" transform="scale(0.996264)"/>
       <use xlink:href="#CMR17-30" transform="translate(45.690477 0) scale(0.996264)"/>
       <use xlink:href="#CMR17-30" transform="translate(91.380954 0) scale(0.996264)"/>
      </g>
     </g>
    </g>
    <g id="ytick_5">
     <g id="line2d_21">
      <path d="M 84.637054 67.894495 
L 551.492857 67.894495 
" clip-path="url(#pa8c9ab3f6e)" style="fill: none; stroke-dasharray: 1.85,0.8; stroke-dashoffset: 0; stroke: #b0b0b0; stroke-width: 0.5"/>
     </g>
     <g id="line2d_22">
      <g>
       <use xlink:href="#m67747eb56b" x="84.637054" y="67.894495" style="stroke: #000000; stroke-width: 0.8"/>
      </g>
     </g>
     <g id="text_12">
      <!-- $\mathdefault{400}$ -->
      <g transform="translate(50.222768 74.812993) scale(0.2 -0.2)">
       <use xlink:href="#CMR17-34" transform="scale(0.996264)"/>
       <use xlink:href="#CMR17-30" transform="translate(45.690477 0) scale(0.996264)"/>
       <use xlink:href="#CMR17-30" transform="translate(91.380954 0) scale(0.996264)"/>
      </g>
     </g>
    </g>
    <g id="text_13">
     <!-- \textbf{Energy (MHz)} -->
     <g transform="translate(25.74396 274.689899) rotate(-90) scale(0.2 -0.2)">
      <defs>
       <path id="CMBX12-45" d="M 4518 1722 
L 4250 1722 
C 4115 771 3878 273 2765 273 
L 1766 273 
L 1766 2112 
L 2144 2112 
C 2758 2112 2822 1853 2822 1375 
L 3091 1375 
L 3091 3136 
L 2822 3136 
C 2822 2655 2758 2385 2144 2385 
L 1766 2385 
L 1766 4078 
L 2765 4078 
C 3744 4078 3955 3659 4051 2828 
L 4320 2828 
L 4134 4352 
L 243 4352 
L 243 4078 
L 922 4078 
L 922 273 
L 243 273 
L 243 0 
L 4243 0 
L 4518 1722 
z
" transform="scale(0.015625)"/>
       <path id="CMBX12-72" d="M 1331 1411 
C 1331 1619 1376 2624 2125 2624 
C 2035 2555 1990 2448 1990 2336 
C 1990 2079 2202 1972 2362 1972 
C 2522 1972 2733 2079 2733 2337 
C 2733 2658 2400 2834 2093 2834 
C 1587 2834 1370 2401 1280 2137 
L 1274 2137 
L 1274 2816 
L 224 2816 
L 224 2517 
C 621 2517 666 2517 666 2270 
L 666 260 
L 224 260 
L 224 -13 
C 371 0 851 0 1030 0 
C 1216 0 1734 0 1888 -13 
L 1888 260 
L 1331 260 
L 1331 1411 
z
" transform="scale(0.015625)"/>
       <path id="CMBX12-79" d="M 3168 2421 
C 3206 2509 3232 2560 3642 2560 
L 3642 2827 
C 3424 2827 3398 2827 3136 2827 
C 2963 2827 2950 2827 2586 2827 
L 2586 2560 
C 2592 2560 2893 2560 2893 2478 
C 2893 2459 2874 2421 2867 2402 
L 2118 805 
L 1299 2560 
L 1651 2560 
L 1651 2833 
C 1498 2827 1062 2827 883 2827 
C 698 2827 320 2827 154 2833 
L 154 2560 
L 563 2560 
L 1747 20 
C 1715 -56 1626 -240 1594 -316 
C 1459 -601 1254 -1038 806 -1038 
C 781 -1038 704 -1038 634 -1000 
C 646 -993 838 -917 838 -676 
C 838 -468 685 -335 493 -335 
C 294 -335 141 -469 141 -684 
C 141 -982 422 -1248 806 -1248 
C 1331 -1248 1677 -779 1805 -500 
L 3168 2421 
z
" transform="scale(0.015625)"/>
       <path id="CMBX12-48" d="M 4704 4085 
L 5382 4085 
L 5382 4352 
C 5197 4352 4512 4352 4282 4352 
C 4051 4352 3366 4352 3181 4352 
L 3181 4085 
L 3859 4085 
L 3859 2385 
L 1766 2385 
L 1766 4085 
L 2445 4085 
L 2445 4352 
C 2259 4352 1574 4352 1344 4352 
C 1114 4352 429 4352 243 4352 
L 243 4085 
L 922 4085 
L 922 267 
L 243 267 
L 243 0 
C 429 0 1114 0 1344 0 
C 1574 0 2259 0 2445 0 
L 2445 267 
L 1766 267 
L 1766 2112 
L 3859 2112 
L 3859 267 
L 3181 267 
L 3181 0 
C 3366 0 4051 0 4282 0 
C 4512 0 5197 0 5382 0 
L 5382 267 
L 4704 267 
L 4704 4085 
z
" transform="scale(0.015625)"/>
       <path id="CMBX12-7a" d="M 2816 2575 
C 2874 2644 2874 2657 2874 2695 
C 2874 2816 2810 2816 2688 2816 
L 371 2816 
L 301 1725 
L 570 1725 
C 608 2327 749 2606 1459 2606 
L 2035 2606 
L 256 253 
C 198 184 198 172 198 127 
C 198 0 256 0 384 0 
L 2784 0 
L 2893 1256 
L 2624 1256 
C 2573 584 2432 229 1626 229 
L 1043 229 
L 2816 2575 
z
" transform="scale(0.015625)"/>
      </defs>
      <use xlink:href="#CMBX12-45" transform="scale(0.996264)"/>
      <use xlink:href="#CMBX12-6e" transform="translate(73.566746 0) scale(0.996264)"/>
      <use xlink:href="#CMBX12-65" transform="translate(135.833246 0) scale(0.996264)"/>
      <use xlink:href="#CMBX12-72" transform="translate(186.972513 0) scale(0.996264)"/>
      <use xlink:href="#CMBX12-67" transform="translate(232.750021 0) scale(0.996264)"/>
      <use xlink:href="#CMBX12-79" transform="translate(288.789871 0) scale(0.996264)"/>
      <use xlink:href="#CMBX12-28" transform="translate(385.302947 0) scale(0.996264)"/>
      <use xlink:href="#CMBX12-4d" transform="translate(428.889498 0) scale(0.996264)"/>
      <use xlink:href="#CMBX12-48" transform="translate(535.203923 0) scale(0.996264)"/>
      <use xlink:href="#CMBX12-7a" transform="translate(622.838398 0) scale(0.996264)"/>
      <use xlink:href="#CMBX12-29" transform="translate(672.651598 0) scale(0.996264)"/>
     </g>
    </g>
   </g>
   <g id="line2d_23">
    <path d="M 84.637521 219.600277 
L 551.492857 357.153362 
" clip-path="url(#pa8c9ab3f6e)" style="fill: none; stroke: #000000; stroke-width: 1.5; stroke-linecap: square"/>
   </g>
   <g id="line2d_24">
    <path d="M 84.637521 219.600243 
L 551.492857 357.034848 
" clip-path="url(#pa8c9ab3f6e)" style="fill: none; stroke: #000000; stroke-width: 1.5; stroke-linecap: square"/>
   </g>
   <g id="line2d_25">
    <path d="M 84.637521 219.600209 
L 551.492857 348.792063 
" clip-path="url(#pa8c9ab3f6e)" style="fill: none; stroke: #000000; stroke-width: 1.5; stroke-linecap: square"/>
   </g>
   <g id="line2d_26">
    <path d="M 84.637521 219.600174 
L 551.492857 332.80791 
" clip-path="url(#pa8c9ab3f6e)" style="fill: none; stroke: #000000; stroke-width: 1.5; stroke-linecap: square"/>
   </g>
   <g id="line2d_27">
    <path d="M 84.637521 219.60014 
L 551.492857 288.217943 
" clip-path="url(#pa8c9ab3f6e)" style="fill: none; stroke: #000000; stroke-width: 1.5; stroke-linecap: square"/>
   </g>
   <g id="line2d_28">
    <path d="M 84.637521 219.600105 
L 551.492857 240.105766 
" clip-path="url(#pa8c9ab3f6e)" style="fill: none; stroke: #000000; stroke-width: 1.5; stroke-linecap: square"/>
   </g>
   <g id="line2d_29">
    <path d="M 84.637521 219.600071 
L 551.492857 189.60135 
" clip-path="url(#pa8c9ab3f6e)" style="fill: none; stroke: #000000; stroke-width: 1.5; stroke-linecap: square"/>
   </g>
   <g id="line2d_30">
    <path d="M 84.637521 219.600037 
L 551.492857 136.997144 
" clip-path="url(#pa8c9ab3f6e)" style="fill: none; stroke: #000000; stroke-width: 1.5; stroke-linecap: square"/>
   </g>
   <g id="line2d_31">
    <path d="M 84.637521 219.600002 
L 551.492857 82.046918 
" clip-path="url(#pa8c9ab3f6e)" style="fill: none; stroke: #000000; stroke-width: 1.5; stroke-linecap: square"/>
   </g>
   <g id="line2d_32">
    <path d="M 84.637521 219.435401 
L 551.492857 302.079493 
" clip-path="url(#pa8c9ab3f6e)" style="fill: none; stroke: #ff0000; stroke-width: 1.5; stroke-linecap: square"/>
   </g>
   <g id="line2d_33">
    <path d="M 84.637521 219.435362 
L 551.492857 293.426772 
" clip-path="url(#pa8c9ab3f6e)" style="fill: none; stroke: #ff0000; stroke-width: 1.5; stroke-linecap: square"/>
   </g>
   <g id="line2d_34">
    <path d="M 84.637521 219.435323 
L 551.492857 286.191315 
" clip-path="url(#pa8c9ab3f6e)" style="fill: none; stroke: #ff0000; stroke-width: 1.5; stroke-linecap: square"/>
   </g>
   <g id="line2d_35">
    <path d="M 84.637521 219.435284 
L 551.492857 231.889771 
" clip-path="url(#pa8c9ab3f6e)" style="fill: none; stroke: #ff0000; stroke-width: 1.5; stroke-linecap: square"/>
   </g>
   <g id="line2d_36">
    <path d="M 84.637521 219.435245 
L 551.492857 180.166405 
" clip-path="url(#pa8c9ab3f6e)" style="fill: none; stroke: #ff0000; stroke-width: 1.5; stroke-linecap: square"/>
   </g>
   <g id="line2d_37">
    <path d="M 84.637521 219.435206 
L 551.492857 130.212641 
" clip-path="url(#pa8c9ab3f6e)" style="fill: none; stroke: #ff0000; stroke-width: 1.5; stroke-linecap: square"/>
   </g>
   <g id="line2d_38">
    <path d="M 84.637521 219.435167 
L 551.492857 81.959362 
" clip-path="url(#pa8c9ab3f6e)" style="fill: none; stroke: #ff0000; stroke-width: 1.5; stroke-linecap: square"/>
   </g>
   <g id="line2d_39">
    <path d="M 84.637521 198.850158 
L 551.492857 243.243732 
" clip-path="url(#pa8c9ab3f6e)" style="fill: none; stroke: #008000; stroke-width: 1.5; stroke-linecap: square"/>
   </g>
   <g id="line2d_40">
    <path d="M 84.637521 198.850108 
L 551.492857 233.950615 
" clip-path="url(#pa8c9ab3f6e)" style="fill: none; stroke: #008000; stroke-width: 1.5; stroke-linecap: square"/>
   </g>
   <g id="line2d_41">
    <path d="M 84.637521 198.850058 
L 551.492857 178.087969 
" clip-path="url(#pa8c9ab3f6e)" style="fill: none; stroke: #008000; stroke-width: 1.5; stroke-linecap: square"/>
   </g>
   <g id="line2d_42">
    <path d="M 84.637521 198.850007 
L 551.492857 123.96919 
" clip-path="url(#pa8c9ab3f6e)" style="fill: none; stroke: #008000; stroke-width: 1.5; stroke-linecap: square"/>
   </g>
   <g id="line2d_43">
    <path d="M 84.637521 198.849957 
L 551.492857 70.494405 
" clip-path="url(#pa8c9ab3f6e)" style="fill: none; stroke: #008000; stroke-width: 1.5; stroke-linecap: square"/>
   </g>
   <g id="line2d_44">
    <path d="M 84.637521 175.382512 
L 551.492857 180.365783 
" clip-path="url(#pa8c9ab3f6e)" style="fill: none; stroke: #0000ff; stroke-width: 1.5; stroke-linecap: square"/>
   </g>
   <g id="line2d_45">
    <path d="M 84.637521 175.382415 
L 551.492857 115.072214 
" clip-path="url(#pa8c9ab3f6e)" style="fill: none; stroke: #0000ff; stroke-width: 1.5; stroke-linecap: square"/>
   </g>
   <g id="line2d_46">
    <path d="M 84.637521 175.382319 
L 551.492857 48.978809 
" clip-path="url(#pa8c9ab3f6e)" style="fill: none; stroke: #0000ff; stroke-width: 1.5; stroke-linecap: square"/>
   </g>
   <g id="patch_3">
    <path d="M 84.637054 372.562089 
L 84.637054 33.570081 
" style="fill: none; stroke: #000000; stroke-width: 0.8; stroke-linejoin: miter; stroke-linecap: square"/>
   </g>
   <g id="patch_4">
    <path d="M 551.492857 372.562089 
L 551.492857 33.570081 
" style="fill: none; stroke: #000000; stroke-width: 0.8; stroke-linejoin: miter; stroke-linecap: square"/>
   </g>
   <g id="patch_5">
    <path d="M 84.637054 372.562089 
L 551.492857 372.562089 
" style="fill: none; stroke: #000000; stroke-width: 0.8; stroke-linejoin: miter; stroke-linecap: square"/>
   </g>
   <g id="patch_6">
    <path d="M 84.637054 33.570081 
L 551.492857 33.570081 
" style="fill: none; stroke: #000000; stroke-width: 0.8; stroke-linejoin: miter; stroke-linecap: square"/>
   </g>
   <g id="text_14">
    <!-- \textbf{Variation of 5D}\boldmath$_{5/2}$ \textbf{hyperfine levels with B} -->
    <g transform="translate(93.356396 26.020678) scale(0.22 -0.22)">
     <defs>
      <path id="CMBX12-56" d="M 4634 3951 
C 4672 4033 4698 4096 5171 4096 
L 5280 4096 
L 5280 4363 
C 5082 4363 4621 4363 4570 4363 
C 4390 4363 3936 4363 3789 4370 
L 3789 4096 
C 3930 4096 4166 4096 4346 4026 
L 4314 3938 
L 3002 975 
L 1619 4096 
L 2214 4096 
L 2214 4363 
C 2010 4363 1395 4363 1152 4363 
C 947 4363 314 4363 154 4370 
L 154 4096 
L 730 4096 
L 2496 100 
C 2554 -26 2611 -32 2714 -32 
C 2816 -32 2880 -32 2938 100 
L 4634 3951 
z
" transform="scale(0.015625)"/>
      <path id="CMBX12-6f" d="M 3392 1395 
C 3392 2252 2803 2880 1798 2880 
C 755 2880 198 2220 198 1395 
C 198 565 787 -32 1792 -32 
C 2835 -32 3392 596 3392 1395 
z
M 1798 197 
C 966 197 966 939 966 1459 
C 966 1757 966 2074 1088 2303 
C 1229 2556 1517 2670 1792 2670 
C 2157 2670 2387 2499 2496 2322 
C 2624 2093 2624 1763 2624 1459 
C 2624 932 2624 197 1798 197 
z
" transform="scale(0.015625)"/>
      <path id="CMBX12-66" d="M 1389 2543 
L 2118 2543 
L 2118 2816 
L 1357 2816 
L 1357 3466 
C 1357 4123 1779 4224 1990 4224 
C 2061 4224 2074 4217 2112 4205 
C 2016 4141 1958 4034 1958 3902 
C 1958 3649 2163 3536 2330 3536 
C 2470 3536 2701 3630 2701 3909 
C 2701 4168 2470 4434 2016 4434 
C 1434 4434 723 4193 723 3460 
L 723 2816 
L 250 2816 
L 250 2543 
L 723 2543 
L 723 260 
L 282 260 
L 282 -13 
C 429 0 909 0 1088 0 
C 1274 0 1792 0 1946 -13 
L 1946 260 
L 1389 260 
L 1389 2543 
z
" transform="scale(0.015625)"/>
      <path id="CMBX12-35" d="M 986 3315 
C 1203 3264 1376 3264 1472 3264 
C 1626 3264 1990 3264 2419 3527 
C 2618 3647 2950 3936 2950 4083 
C 2950 4115 2950 4192 2874 4192 
C 2867 4192 2854 4192 2790 4159 
C 2496 4054 2182 3982 1824 3982 
C 1459 3982 1152 4052 851 4160 
C 806 4173 787 4186 768 4186 
C 691 4186 691 4122 691 4014 
L 691 2163 
C 691 2042 691 1972 819 1972 
C 883 1972 896 1979 947 2042 
C 1024 2132 1254 2414 1798 2414 
C 2387 2414 2387 1815 2387 1312 
C 2387 852 2387 190 1600 190 
C 1363 190 960 279 742 640 
C 1082 640 1165 895 1165 1035 
C 1165 1264 998 1435 762 1435 
C 570 1435 358 1321 358 1022 
C 358 470 864 -64 1626 -64 
C 2611 -64 3232 503 3232 1293 
C 3232 2070 2701 2624 1824 2624 
C 1568 2624 1261 2573 986 2369 
L 986 3315 
z
" transform="scale(0.015625)"/>
      <path id="CMBX12-44" d="M 243 4370 
L 243 4096 
L 922 4096 
L 922 273 
L 243 273 
L 243 0 
L 2938 0 
C 4166 0 5114 783 5114 2147 
C 5114 3587 4141 4370 2938 4370 
L 243 4370 
z
M 1734 273 
L 1734 4096 
L 2694 4096 
C 3251 4096 3699 3880 3936 3548 
C 4122 3287 4243 2975 4243 2153 
C 4243 1407 4147 1077 3923 777 
C 3699 483 3270 273 2694 273 
L 1734 273 
z
" transform="scale(0.015625)"/>
      <path id="CMMIB10-3d" d="M 3219 4431 
C 3264 4533 3264 4545 3264 4571 
C 3264 4692 3162 4768 3072 4768 
C 2938 4768 2899 4673 2861 4577 
L 454 -1262 
C 410 -1364 410 -1377 410 -1402 
C 410 -1523 512 -1600 602 -1600 
C 736 -1600 781 -1491 813 -1415 
L 3219 4431 
z
" transform="scale(0.015625)"/>
      <path id="CMBX12-32" d="M 3232 1368 
L 2963 1368 
C 2944 1234 2899 858 2803 795 
C 2752 750 2253 750 2157 750 
L 1165 750 
C 1408 954 1990 1438 2086 1509 
C 2797 2038 3232 2362 3232 2974 
C 3232 3725 2547 4178 1702 4178 
C 979 4178 358 3770 358 3165 
C 358 2827 634 2732 781 2732 
C 979 2732 1210 2865 1210 3159 
C 1210 3427 1011 3560 813 3586 
C 1069 3879 1408 3904 1542 3904 
C 2131 3904 2413 3427 2413 2968 
C 2413 2471 2074 2013 1811 1739 
L 422 293 
C 358 235 358 223 358 108 
L 358 0 
L 3046 0 
L 3232 1368 
z
" transform="scale(0.015625)"/>
      <path id="CMBX12-68" d="M 3398 1924 
C 3398 2525 3136 2834 2432 2834 
C 1786 2834 1472 2384 1382 2194 
L 1376 2194 
L 1376 4416 
L 269 4416 
L 269 4117 
C 666 4117 710 4117 710 3858 
L 710 260 
L 269 260 
L 269 -13 
C 416 0 877 0 1056 0 
C 1235 0 1702 0 1850 -13 
L 1850 260 
L 1408 260 
L 1408 1607 
C 1408 2289 1920 2624 2330 2624 
C 2566 2624 2701 2473 2701 1993 
L 2701 260 
L 2259 260 
L 2259 -13 
C 2406 0 2867 0 3046 0 
C 3226 0 3693 0 3840 -13 
L 3840 260 
L 3398 260 
L 3398 1924 
z
" transform="scale(0.015625)"/>
      <path id="CMBX12-70" d="M 1805 -955 
L 1363 -955 
L 1363 268 
C 1523 128 1805 -32 2189 -32 
C 3066 -32 3750 493 3750 1417 
C 3750 2290 3155 2853 2291 2853 
C 1914 2853 1587 2738 1331 2554 
L 1331 2859 
L 224 2859 
L 224 2560 
C 621 2560 666 2560 666 2310 
L 666 -955 
L 224 -955 
L 224 -1228 
C 371 -1216 832 -1216 1011 -1216 
C 1190 -1216 1658 -1216 1805 -1228 
L 1805 -955 
z
M 1363 2246 
C 1600 2530 1939 2624 2189 2624 
C 2605 2624 2982 2251 2982 1417 
C 2982 500 2522 178 2112 178 
C 1837 178 1562 319 1363 620 
L 1363 2246 
z
" transform="scale(0.015625)"/>
      <path id="CMBX12-76" d="M 3168 2402 
C 3213 2498 3238 2549 3642 2549 
L 3642 2816 
C 3411 2816 3398 2816 3136 2816 
C 2963 2816 2950 2816 2586 2816 
L 2586 2549 
C 2758 2549 2899 2517 2899 2472 
C 2899 2466 2899 2460 2867 2396 
L 2118 763 
L 1293 2549 
L 1645 2549 
L 1645 2822 
C 1498 2816 1050 2816 877 2816 
C 691 2816 320 2816 154 2822 
L 154 2549 
L 557 2549 
L 1683 121 
C 1741 0 1754 -32 1901 -32 
C 2003 -32 2054 -19 2112 108 
L 3168 2402 
z
" transform="scale(0.015625)"/>
      <path id="CMBX12-77" d="M 4608 2396 
C 4653 2504 4672 2549 5043 2549 
L 5043 2816 
C 4858 2816 4774 2816 4544 2816 
C 4282 2816 4198 2816 3968 2816 
L 3968 2549 
C 4026 2549 4339 2549 4339 2466 
C 4339 2460 4339 2453 4314 2390 
L 3642 737 
L 2906 2549 
L 3270 2549 
L 3270 2822 
C 3117 2816 2739 2816 2566 2816 
C 2240 2816 2227 2816 1907 2816 
L 1907 2549 
L 2285 2549 
C 2304 2498 2336 2415 2362 2358 
C 2381 2320 2445 2167 2445 2135 
C 2445 2123 2426 2078 2419 2059 
L 1933 858 
L 1242 2549 
L 1606 2549 
L 1606 2822 
C 1459 2816 1024 2816 851 2816 
C 646 2816 339 2816 147 2816 
L 147 2549 
L 525 2549 
L 1504 127 
C 1549 13 1574 -32 1715 -32 
C 1786 -32 1862 -32 1914 95 
L 2592 1780 
L 3270 108 
C 3328 -32 3398 -32 3475 -32 
C 3616 -32 3635 6 3680 121 
L 4608 2396 
z
" transform="scale(0.015625)"/>
      <path id="CMBX12-42" d="M 250 4370 
L 250 4096 
L 928 4096 
L 928 273 
L 250 273 
L 250 0 
L 3142 0 
C 4198 0 4717 565 4717 1174 
C 4717 1778 4186 2216 3411 2273 
C 4333 2446 4512 2970 4512 3270 
C 4512 3858 3974 4370 2950 4370 
L 250 4370 
z
M 1715 2368 
L 1715 4096 
L 2874 4096 
C 3533 4096 3667 3597 3667 3276 
C 3667 2828 3418 2368 2669 2368 
L 1715 2368 
z
M 1715 273 
L 1715 2158 
L 2989 2158 
C 3738 2158 3846 1472 3846 1187 
C 3846 787 3629 273 2893 273 
L 1715 273 
z
" transform="scale(0.015625)"/>
     </defs>
     <use xlink:href="#CMBX12-56" transform="scale(0.996264)"/>
     <use xlink:href="#CMBX12-61" transform="translate(75.29642 0) scale(0.996264)"/>
     <use xlink:href="#CMBX12-72" transform="translate(129.779608 0) scale(0.996264)"/>
     <use xlink:href="#CMBX12-69" transform="translate(175.557115 0) scale(0.996264)"/>
     <use xlink:href="#CMBX12-61" transform="translate(206.690365 0) scale(0.996264)"/>
     <use xlink:href="#CMBX12-74" transform="translate(261.173553 0) scale(0.996264)"/>
     <use xlink:href="#CMBX12-69" transform="translate(304.760104 0) scale(0.996264)"/>
     <use xlink:href="#CMBX12-6f" transform="translate(335.893354 0) scale(0.996264)"/>
     <use xlink:href="#CMBX12-6e" transform="translate(391.933205 0) scale(0.996264)"/>
     <use xlink:href="#CMBX12-6f" transform="translate(491.559606 0) scale(0.996264)"/>
     <use xlink:href="#CMBX12-66" transform="translate(547.599456 0) scale(0.996264)"/>
     <use xlink:href="#CMBX12-35" transform="translate(619.205932 0) scale(0.996264)"/>
     <use xlink:href="#CMBX12-44" transform="translate(675.245782 0) scale(0.996264)"/>
     <use xlink:href="#CMBX12-35" transform="translate(761.150568 -16.88091) scale(0.697382)"/>
     <use xlink:href="#CMMIB10-3d" transform="translate(800.378281 -16.88091) scale(0.697382)"/>
     <use xlink:href="#CMBX12-32" transform="translate(840.477512 -16.88091) scale(0.697382)"/>
     <use xlink:href="#CMBX12-68" transform="translate(910.279324 0) scale(0.996264)"/>
     <use xlink:href="#CMBX12-79" transform="translate(969.432499 0) scale(0.996264)"/>
     <use xlink:href="#CMBX12-70" transform="translate(1028.585675 0) scale(0.996264)"/>
     <use xlink:href="#CMBX12-65" transform="translate(1093.9655 0) scale(0.996264)"/>
     <use xlink:href="#CMBX12-72" transform="translate(1145.104768 0) scale(0.996264)"/>
     <use xlink:href="#CMBX12-c" transform="translate(1190.882275 0) scale(0.996264)"/>
     <use xlink:href="#CMBX12-6e" transform="translate(1253.148776 0) scale(0.996264)"/>
     <use xlink:href="#CMBX12-65" transform="translate(1315.415276 0) scale(0.996264)"/>
     <use xlink:href="#CMBX12-6c" transform="translate(1403.914444 0) scale(0.996264)"/>
     <use xlink:href="#CMBX12-65" transform="translate(1435.047694 0) scale(0.996264)"/>
     <use xlink:href="#CMBX12-76" transform="translate(1486.186961 0) scale(0.996264)"/>
     <use xlink:href="#CMBX12-65" transform="translate(1542.226812 0) scale(0.996264)"/>
     <use xlink:href="#CMBX12-6c" transform="translate(1593.366079 0) scale(0.996264)"/>
     <use xlink:href="#CMBX12-73" transform="translate(1624.499329 0) scale(0.996264)"/>
     <use xlink:href="#CMBX12-77" transform="translate(1706.068567 0) scale(0.996264)"/>
     <use xlink:href="#CMBX12-69" transform="translate(1787.015018 0) scale(0.996264)"/>
     <use xlink:href="#CMBX12-74" transform="translate(1818.148268 0) scale(0.996264)"/>
     <use xlink:href="#CMBX12-68" transform="translate(1861.734818 0) scale(0.996264)"/>
     <use xlink:href="#CMBX12-42" transform="translate(1961.361219 0) scale(0.996264)"/>
    </g>
   </g>
   <g id="legend_1">
    <g id="patch_7">
     <path d="M 97.237054 363.562089 
L 199.738057 363.562089 
Q 203.338057 363.562089 203.338057 359.962089 
L 203.338057 260.571435 
Q 203.338057 256.971435 199.738057 256.971435 
L 97.237054 256.971435 
Q 93.637054 256.971435 93.637054 260.571435 
L 93.637054 359.962089 
Q 93.637054 363.562089 97.237054 363.562089 
z
" style="fill: #ffffff; opacity: 0.5; stroke: #cccccc; stroke-linejoin: miter"/>
    </g>
    <g id="line2d_47">
     <path d="M 100.837054 270.681034 
L 118.837054 270.681034 
L 136.837054 270.681034 
" style="fill: none; stroke: #000000; stroke-width: 1.5; stroke-linecap: square"/>
    </g>
    <g id="text_15">
     <!-- $\tilde{F}=4$ -->
     <g transform="translate(151.237054 276.981034) scale(0.18 -0.18)">
      <defs>
       <path id="CMR17-7e" d="M 2400 4184 
C 2182 3980 2061 3865 1862 3865 
C 1722 3865 1626 3932 1491 4024 
C 1363 4111 1261 4184 1120 4184 
C 890 4184 730 4004 461 3718 
L 531 3648 
C 749 3850 870 3968 1069 3968 
C 1210 3968 1306 3900 1440 3808 
C 1568 3722 1670 3648 1811 3648 
C 2042 3648 2202 3828 2470 4114 
L 2400 4184 
z
" transform="scale(0.015625)"/>
       <path id="CMMI12-46" d="M 1901 2055 
L 2515 2055 
C 3002 2055 3040 1946 3040 1761 
C 3040 1678 3027 1589 2995 1448 
C 2982 1423 2976 1391 2976 1378 
C 2976 1333 3002 1308 3046 1308 
C 3098 1308 3104 1333 3130 1435 
L 3501 2935 
C 3501 2961 3482 2999 3437 2999 
C 3379 2999 3373 2974 3347 2863 
C 3213 2376 3085 2240 2528 2240 
L 1946 2240 
L 2362 3926 
C 2419 4154 2432 4154 2694 4154 
L 3552 4154 
C 4352 4154 4467 3918 4467 3464 
C 4467 3426 4467 3285 4448 3119 
C 4442 3094 4429 3011 4429 2985 
C 4429 2934 4461 2915 4499 2915 
C 4544 2915 4570 2941 4582 3055 
L 4717 4174 
C 4717 4195 4730 4263 4730 4277 
C 4730 4352 4672 4352 4557 4352 
L 1523 4352 
C 1402 4352 1338 4352 1338 4229 
C 1338 4154 1382 4154 1491 4154 
C 1888 4154 1888 4113 1888 4050 
C 1888 4018 1882 3992 1862 3922 
L 998 473 
C 941 249 928 185 480 185 
C 358 185 294 185 294 70 
C 294 0 352 0 390 0 
C 512 0 640 0 762 0 
L 1594 0 
C 1734 0 1888 0 2029 0 
C 2086 0 2163 0 2163 115 
C 2163 185 2125 185 1984 185 
C 1478 185 1466 229 1466 324 
C 1466 356 1478 406 1491 449 
L 1901 2055 
z
" transform="scale(0.015625)"/>
       <path id="CMR17-3d" d="M 4115 2017 
C 4211 2017 4307 2017 4307 2125 
C 4307 2240 4198 2240 4090 2240 
L 512 2240 
C 403 2240 294 2240 294 2125 
C 294 2017 390 2017 486 2017 
L 4115 2017 
z
M 4090 896 
C 4198 896 4307 896 4307 1011 
C 4307 1119 4211 1119 4115 1119 
L 486 1119 
C 390 1119 294 1119 294 1011 
C 294 896 403 896 512 896 
L 4090 896 
z
" transform="scale(0.015625)"/>
      </defs>
      <use xlink:href="#CMR17-7e" transform="translate(23.632311 25.189733) scale(0.996264)"/>
      <use xlink:href="#CMMI12-46" transform="scale(0.996264)"/>
      <use xlink:href="#CMR17-3d" transform="translate(104.370801 0) scale(0.996264)"/>
      <use xlink:href="#CMR17-34" transform="translate(203.759598 0) scale(0.996264)"/>
     </g>
    </g>
    <g id="line2d_48">
     <path d="M 100.837054 295.978698 
L 118.837054 295.978698 
L 136.837054 295.978698 
" style="fill: none; stroke: #ff0000; stroke-width: 1.5; stroke-linecap: square"/>
    </g>
    <g id="text_16">
     <!-- $\tilde{F}=3$ -->
     <g transform="translate(151.237054 302.278698) scale(0.18 -0.18)">
      <defs>
       <path id="CMR17-33" d="M 1414 2157 
C 1984 2157 2234 1662 2234 1090 
C 2234 320 1824 25 1453 25 
C 1114 25 563 194 390 693 
C 422 680 454 680 486 680 
C 640 680 755 782 755 948 
C 755 1133 614 1216 486 1216 
C 378 1216 211 1165 211 926 
C 211 335 787 -128 1466 -128 
C 2176 -128 2720 430 2720 1085 
C 2720 1707 2208 2157 1600 2227 
C 2086 2328 2554 2756 2554 3329 
C 2554 3820 2048 4179 1472 4179 
C 890 4179 378 3829 378 3329 
C 378 3110 544 3072 627 3072 
C 762 3072 877 3155 877 3321 
C 877 3486 762 3569 627 3569 
C 602 3569 570 3569 544 3557 
C 730 3959 1235 4032 1459 4032 
C 1683 4032 2106 3925 2106 3320 
C 2106 3143 2080 2828 1862 2550 
C 1670 2304 1453 2304 1242 2284 
C 1210 2284 1062 2269 1037 2269 
C 992 2263 966 2257 966 2208 
C 966 2163 973 2157 1101 2157 
L 1414 2157 
z
" transform="scale(0.015625)"/>
      </defs>
      <use xlink:href="#CMR17-7e" transform="translate(23.632311 25.189733) scale(0.996264)"/>
      <use xlink:href="#CMMI12-46" transform="scale(0.996264)"/>
      <use xlink:href="#CMR17-3d" transform="translate(104.370801 0) scale(0.996264)"/>
      <use xlink:href="#CMR17-33" transform="translate(203.759598 0) scale(0.996264)"/>
     </g>
    </g>
    <g id="line2d_49">
     <path d="M 100.837054 321.276362 
L 118.837054 321.276362 
L 136.837054 321.276362 
" style="fill: none; stroke: #008000; stroke-width: 1.5; stroke-linecap: square"/>
    </g>
    <g id="text_17">
     <!-- $\tilde{F}=2$ -->
     <g transform="translate(151.237054 327.576362) scale(0.18 -0.18)">
      <use xlink:href="#CMR17-7e" transform="translate(23.632311 25.189733) scale(0.996264)"/>
      <use xlink:href="#CMMI12-46" transform="scale(0.996264)"/>
      <use xlink:href="#CMR17-3d" transform="translate(104.370801 0) scale(0.996264)"/>
      <use xlink:href="#CMR17-32" transform="translate(203.759598 0) scale(0.996264)"/>
     </g>
    </g>
    <g id="line2d_50">
     <path d="M 100.837054 346.574025 
L 118.837054 346.574025 
L 136.837054 346.574025 
" style="fill: none; stroke: #0000ff; stroke-width: 1.5; stroke-linecap: square"/>
    </g>
    <g id="text_18">
     <!-- $\tilde{F}=1$ -->
     <g transform="translate(151.237054 352.874025) scale(0.18 -0.18)">
      <use xlink:href="#CMR17-7e" transform="translate(23.632311 25.189733) scale(0.996264)"/>
      <use xlink:href="#CMMI12-46" transform="scale(0.996264)"/>
      <use xlink:href="#CMR17-3d" transform="translate(104.370801 0) scale(0.996264)"/>
      <use xlink:href="#CMR17-31" transform="translate(203.759598 0) scale(0.996264)"/>
     </g>
    </g>
   </g>
  </g>
 </g>
 <defs>
  <clipPath id="pa8c9ab3f6e">
   <rect x="84.637054" y="33.570081" width="466.855803" height="338.992008"/>
  </clipPath>
 </defs>
</svg>
