<?xml version="1.0" encoding="utf-8" standalone="no"?>
<!DOCTYPE svg PUBLIC "-//W3C//DTD SVG 1.1//EN"
  "http://www.w3.org/Graphics/SVG/1.1/DTD/svg11.dtd">
<svg xmlns:xlink="http://www.w3.org/1999/xlink" width="1152pt" height="576pt" viewBox="0 0 1152 576" xmlns="http://www.w3.org/2000/svg" version="1.1">
 <metadata>
  <rdf:RDF xmlns:dc="http://purl.org/dc/elements/1.1/" xmlns:cc="http://creativecommons.org/ns#" xmlns:rdf="http://www.w3.org/1999/02/22-rdf-syntax-ns#">
   <cc:Work>
    <dc:type rdf:resource="http://purl.org/dc/dcmitype/StillImage"/>
    <dc:date>2025-07-08T10:41:32.627150</dc:date>
    <dc:format>image/svg+xml</dc:format>
    <dc:creator>
     <cc:Agent>
      <dc:title>Matplotlib v3.10.1, https://matplotlib.org/</dc:title>
     </cc:Agent>
    </dc:creator>
   </cc:Work>
  </rdf:RDF>
 </metadata>
 <defs>
  <style type="text/css">*{stroke-linejoin: round; stroke-linecap: butt}</style>
 </defs>
 <g id="figure_1">
  <g id="patch_1">
   <path d="M 0 576 
L 1152 576 
L 1152 0 
L 0 0 
z
" style="fill: #ffffff"/>
  </g>
  <g id="axes_1">
   <g id="patch_2">
    <path d="M 67.947382 383.082618 
L 1141.2 383.082618 
L 1141.2 36.171799 
L 67.947382 36.171799 
z
" style="fill: #ffffff"/>
   </g>
   <g id="matplotlib.axis_1">
    <g id="xtick_1">
     <g id="line2d_1">
      <path d="M 109.949117 383.082618 
L 109.949117 36.171799 
" clip-path="url(#p4ec734b561)" style="fill: none; stroke: #b0b0b0; stroke-width: 0.8; stroke-linecap: square"/>
     </g>
     <g id="line2d_2">
      <defs>
       <path id="m51379a9b53" d="M 0 0 
L 0 3.5 
" style="stroke: #000000; stroke-width: 0.8"/>
      </defs>
      <g>
       <use xlink:href="#m51379a9b53" x="109.949117" y="383.082618" style="stroke: #000000; stroke-width: 0.8"/>
      </g>
     </g>
    </g>
    <g id="xtick_2">
     <g id="line2d_3">
      <path d="M 230.140277 383.082618 
L 230.140277 36.171799 
" clip-path="url(#p4ec734b561)" style="fill: none; stroke: #b0b0b0; stroke-width: 0.8; stroke-linecap: square"/>
     </g>
     <g id="line2d_4">
      <g>
       <use xlink:href="#m51379a9b53" x="230.140277" y="383.082618" style="stroke: #000000; stroke-width: 0.8"/>
      </g>
     </g>
    </g>
    <g id="xtick_3">
     <g id="line2d_5">
      <path d="M 350.331438 383.082618 
L 350.331438 36.171799 
" clip-path="url(#p4ec734b561)" style="fill: none; stroke: #b0b0b0; stroke-width: 0.8; stroke-linecap: square"/>
     </g>
     <g id="line2d_6">
      <g>
       <use xlink:href="#m51379a9b53" x="350.331438" y="383.082618" style="stroke: #000000; stroke-width: 0.8"/>
      </g>
     </g>
    </g>
    <g id="xtick_4">
     <g id="line2d_7">
      <path d="M 470.522599 383.082618 
L 470.522599 36.171799 
" clip-path="url(#p4ec734b561)" style="fill: none; stroke: #b0b0b0; stroke-width: 0.8; stroke-linecap: square"/>
     </g>
     <g id="line2d_8">
      <g>
       <use xlink:href="#m51379a9b53" x="470.522599" y="383.082618" style="stroke: #000000; stroke-width: 0.8"/>
      </g>
     </g>
    </g>
    <g id="xtick_5">
     <g id="line2d_9">
      <path d="M 590.71376 383.082618 
L 590.71376 36.171799 
" clip-path="url(#p4ec734b561)" style="fill: none; stroke: #b0b0b0; stroke-width: 0.8; stroke-linecap: square"/>
     </g>
     <g id="line2d_10">
      <g>
       <use xlink:href="#m51379a9b53" x="590.71376" y="383.082618" style="stroke: #000000; stroke-width: 0.8"/>
      </g>
     </g>
    </g>
    <g id="xtick_6">
     <g id="line2d_11">
      <path d="M 710.904921 383.082618 
L 710.904921 36.171799 
" clip-path="url(#p4ec734b561)" style="fill: none; stroke: #b0b0b0; stroke-width: 0.8; stroke-linecap: square"/>
     </g>
     <g id="line2d_12">
      <g>
       <use xlink:href="#m51379a9b53" x="710.904921" y="383.082618" style="stroke: #000000; stroke-width: 0.8"/>
      </g>
     </g>
    </g>
    <g id="xtick_7">
     <g id="line2d_13">
      <path d="M 831.096082 383.082618 
L 831.096082 36.171799 
" clip-path="url(#p4ec734b561)" style="fill: none; stroke: #b0b0b0; stroke-width: 0.8; stroke-linecap: square"/>
     </g>
     <g id="line2d_14">
      <g>
       <use xlink:href="#m51379a9b53" x="831.096082" y="383.082618" style="stroke: #000000; stroke-width: 0.8"/>
      </g>
     </g>
    </g>
    <g id="xtick_8">
     <g id="line2d_15">
      <path d="M 951.287243 383.082618 
L 951.287243 36.171799 
" clip-path="url(#p4ec734b561)" style="fill: none; stroke: #b0b0b0; stroke-width: 0.8; stroke-linecap: square"/>
     </g>
     <g id="line2d_16">
      <g>
       <use xlink:href="#m51379a9b53" x="951.287243" y="383.082618" style="stroke: #000000; stroke-width: 0.8"/>
      </g>
     </g>
    </g>
    <g id="xtick_9">
     <g id="line2d_17">
      <path d="M 1071.478404 383.082618 
L 1071.478404 36.171799 
" clip-path="url(#p4ec734b561)" style="fill: none; stroke: #b0b0b0; stroke-width: 0.8; stroke-linecap: square"/>
     </g>
     <g id="line2d_18">
      <g>
       <use xlink:href="#m51379a9b53" x="1071.478404" y="383.082618" style="stroke: #000000; stroke-width: 0.8"/>
      </g>
     </g>
    </g>
   </g>
   <g id="matplotlib.axis_2">
    <g id="ytick_1">
     <g id="line2d_19">
      <path d="M 67.947382 367.313944 
L 1141.2 367.313944 
" clip-path="url(#p4ec734b561)" style="fill: none; stroke: #b0b0b0; stroke-width: 0.8; stroke-linecap: square"/>
     </g>
     <g id="line2d_20">
      <defs>
       <path id="mdeabfbb20d" d="M 0 0 
L -3.5 0 
" style="stroke: #000000; stroke-width: 0.8"/>
      </defs>
      <g>
       <use xlink:href="#mdeabfbb20d" x="67.947382" y="367.313944" style="stroke: #000000; stroke-width: 0.8"/>
      </g>
     </g>
     <g id="text_1">
      <!-- $\mathdefault{0.0}$ -->
      <g transform="translate(32.51263 375.616147) scale(0.24 -0.24)">
       <defs>
        <path id="CMR17-30" d="M 2688 2025 
C 2688 2416 2682 3080 2413 3591 
C 2176 4039 1798 4198 1466 4198 
C 1158 4198 768 4058 525 3597 
C 269 3118 243 2524 243 2025 
C 243 1661 250 1106 448 619 
C 723 -39 1216 -128 1466 -128 
C 1760 -128 2208 -7 2470 600 
C 2662 1042 2688 1559 2688 2025 
z
M 1466 -26 
C 1056 -26 813 325 723 812 
C 653 1188 653 1738 653 2096 
C 653 2588 653 2997 736 3387 
C 858 3929 1216 4096 1466 4096 
C 1728 4096 2067 3923 2189 3400 
C 2272 3036 2278 2607 2278 2096 
C 2278 1680 2278 1169 2202 792 
C 2067 95 1690 -26 1466 -26 
z
" transform="scale(0.015625)"/>
        <path id="CMMI12-3a" d="M 1178 307 
C 1178 492 1024 619 870 619 
C 685 619 557 466 557 313 
C 557 128 710 0 864 0 
C 1050 0 1178 153 1178 307 
z
" transform="scale(0.015625)"/>
       </defs>
       <use xlink:href="#CMR17-30" transform="scale(0.996264)"/>
       <use xlink:href="#CMMI12-3a" transform="translate(45.690477 0) scale(0.996264)"/>
       <use xlink:href="#CMR17-30" transform="translate(72.787654 0) scale(0.996264)"/>
      </g>
     </g>
    </g>
    <g id="ytick_2">
     <g id="line2d_21">
      <path d="M 67.947382 304.643745 
L 1141.2 304.643745 
" clip-path="url(#p4ec734b561)" style="fill: none; stroke: #b0b0b0; stroke-width: 0.8; stroke-linecap: square"/>
     </g>
     <g id="line2d_22">
      <g>
       <use xlink:href="#mdeabfbb20d" x="67.947382" y="304.643745" style="stroke: #000000; stroke-width: 0.8"/>
      </g>
     </g>
     <g id="text_2">
      <!-- $\mathdefault{0.2}$ -->
      <g transform="translate(32.51263 312.945948) scale(0.24 -0.24)">
       <defs>
        <path id="CMR17-32" d="M 2669 989 
L 2554 989 
C 2490 536 2438 459 2413 420 
C 2381 369 1920 369 1830 369 
L 602 369 
C 832 619 1280 1072 1824 1597 
C 2214 1967 2669 2402 2669 3035 
C 2669 3790 2067 4224 1395 4224 
C 691 4224 262 3604 262 3030 
C 262 2780 448 2748 525 2748 
C 589 2748 781 2787 781 3010 
C 781 3207 614 3264 525 3264 
C 486 3264 448 3258 422 3245 
C 544 3790 915 4058 1306 4058 
C 1862 4058 2227 3617 2227 3035 
C 2227 2479 1901 2000 1536 1584 
L 262 146 
L 262 0 
L 2515 0 
L 2669 989 
z
" transform="scale(0.015625)"/>
       </defs>
       <use xlink:href="#CMR17-30" transform="scale(0.996264)"/>
       <use xlink:href="#CMMI12-3a" transform="translate(45.690477 0) scale(0.996264)"/>
       <use xlink:href="#CMR17-32" transform="translate(72.787654 0) scale(0.996264)"/>
      </g>
     </g>
    </g>
    <g id="ytick_3">
     <g id="line2d_23">
      <path d="M 67.947382 241.973546 
L 1141.2 241.973546 
" clip-path="url(#p4ec734b561)" style="fill: none; stroke: #b0b0b0; stroke-width: 0.8; stroke-linecap: square"/>
     </g>
     <g id="line2d_24">
      <g>
       <use xlink:href="#mdeabfbb20d" x="67.947382" y="241.973546" style="stroke: #000000; stroke-width: 0.8"/>
      </g>
     </g>
     <g id="text_3">
      <!-- $\mathdefault{0.4}$ -->
      <g transform="translate(32.51263 250.275749) scale(0.24 -0.24)">
       <defs>
        <path id="CMR17-34" d="M 2150 4122 
C 2150 4256 2144 4256 2029 4256 
L 128 1254 
L 128 1088 
L 1779 1088 
L 1779 457 
C 1779 224 1766 160 1318 160 
L 1197 160 
L 1197 0 
C 1402 0 1747 0 1965 0 
C 2182 0 2528 0 2733 0 
L 2733 160 
L 2611 160 
C 2163 160 2150 224 2150 457 
L 2150 1088 
L 2803 1088 
L 2803 1254 
L 2150 1254 
L 2150 4122 
z
M 1798 3703 
L 1798 1254 
L 256 1254 
L 1798 3703 
z
" transform="scale(0.015625)"/>
       </defs>
       <use xlink:href="#CMR17-30" transform="scale(0.996264)"/>
       <use xlink:href="#CMMI12-3a" transform="translate(45.690477 0) scale(0.996264)"/>
       <use xlink:href="#CMR17-34" transform="translate(72.787654 0) scale(0.996264)"/>
      </g>
     </g>
    </g>
    <g id="ytick_4">
     <g id="line2d_25">
      <path d="M 67.947382 179.303347 
L 1141.2 179.303347 
" clip-path="url(#p4ec734b561)" style="fill: none; stroke: #b0b0b0; stroke-width: 0.8; stroke-linecap: square"/>
     </g>
     <g id="line2d_26">
      <g>
       <use xlink:href="#mdeabfbb20d" x="67.947382" y="179.303347" style="stroke: #000000; stroke-width: 0.8"/>
      </g>
     </g>
     <g id="text_4">
      <!-- $\mathdefault{0.6}$ -->
      <g transform="translate(32.51263 187.60555) scale(0.24 -0.24)">
       <defs>
        <path id="CMR17-36" d="M 678 2176 
C 678 3690 1395 4032 1811 4032 
C 1946 4032 2272 4009 2400 3776 
C 2298 3776 2106 3776 2106 3553 
C 2106 3381 2246 3323 2336 3323 
C 2394 3323 2566 3348 2566 3560 
C 2566 3954 2246 4179 1805 4179 
C 1043 4179 243 3390 243 1984 
C 243 253 966 -128 1478 -128 
C 2099 -128 2688 427 2688 1283 
C 2688 2081 2170 2662 1517 2662 
C 1126 2662 838 2407 678 1960 
L 678 2176 
z
M 1478 25 
C 691 25 691 1200 691 1436 
C 691 1896 909 2560 1504 2560 
C 1613 2560 1926 2560 2138 2120 
C 2253 1870 2253 1609 2253 1289 
C 2253 944 2253 690 2118 434 
C 1978 171 1773 25 1478 25 
z
" transform="scale(0.015625)"/>
       </defs>
       <use xlink:href="#CMR17-30" transform="scale(0.996264)"/>
       <use xlink:href="#CMMI12-3a" transform="translate(45.690477 0) scale(0.996264)"/>
       <use xlink:href="#CMR17-36" transform="translate(72.787654 0) scale(0.996264)"/>
      </g>
     </g>
    </g>
    <g id="ytick_5">
     <g id="line2d_27">
      <path d="M 67.947382 116.633148 
L 1141.2 116.633148 
" clip-path="url(#p4ec734b561)" style="fill: none; stroke: #b0b0b0; stroke-width: 0.8; stroke-linecap: square"/>
     </g>
     <g id="line2d_28">
      <g>
       <use xlink:href="#mdeabfbb20d" x="67.947382" y="116.633148" style="stroke: #000000; stroke-width: 0.8"/>
      </g>
     </g>
     <g id="text_5">
      <!-- $\mathdefault{0.8}$ -->
      <g transform="translate(32.51263 124.935351) scale(0.24 -0.24)">
       <defs>
        <path id="CMR17-38" d="M 1741 2264 
C 2144 2467 2554 2773 2554 3263 
C 2554 3841 1990 4179 1472 4179 
C 890 4179 378 3759 378 3180 
C 378 3021 416 2747 666 2505 
C 730 2442 998 2251 1171 2130 
C 883 1983 211 1634 211 934 
C 211 279 838 -128 1459 -128 
C 2144 -128 2720 362 2720 1010 
C 2720 1590 2330 1857 2074 2029 
L 1741 2264 
z
M 902 2822 
C 851 2854 595 3051 595 3351 
C 595 3739 998 4032 1459 4032 
C 1965 4032 2336 3676 2336 3262 
C 2336 2669 1670 2331 1638 2331 
C 1632 2331 1626 2331 1574 2370 
L 902 2822 
z
M 2080 1519 
C 2176 1449 2483 1240 2483 851 
C 2483 381 2010 25 1472 25 
C 890 25 448 438 448 940 
C 448 1443 838 1862 1280 2060 
L 2080 1519 
z
" transform="scale(0.015625)"/>
       </defs>
       <use xlink:href="#CMR17-30" transform="scale(0.996264)"/>
       <use xlink:href="#CMMI12-3a" transform="translate(45.690477 0) scale(0.996264)"/>
       <use xlink:href="#CMR17-38" transform="translate(72.787654 0) scale(0.996264)"/>
      </g>
     </g>
    </g>
    <g id="ytick_6">
     <g id="line2d_29">
      <path d="M 67.947382 53.96295 
L 1141.2 53.96295 
" clip-path="url(#p4ec734b561)" style="fill: none; stroke: #b0b0b0; stroke-width: 0.8; stroke-linecap: square"/>
     </g>
     <g id="line2d_30">
      <g>
       <use xlink:href="#mdeabfbb20d" x="67.947382" y="53.96295" style="stroke: #000000; stroke-width: 0.8"/>
      </g>
     </g>
     <g id="text_6">
      <!-- $\mathdefault{1.0}$ -->
      <g transform="translate(32.51263 62.265152) scale(0.24 -0.24)">
       <defs>
        <path id="CMR17-31" d="M 1702 4058 
C 1702 4192 1696 4192 1606 4192 
C 1357 3916 979 3827 621 3827 
C 602 3827 570 3827 563 3808 
C 557 3795 557 3782 557 3648 
C 755 3648 1088 3686 1344 3839 
L 1344 461 
C 1344 236 1331 160 781 160 
L 589 160 
L 589 0 
C 896 0 1216 0 1523 0 
C 1830 0 2150 0 2458 0 
L 2458 160 
L 2266 160 
C 1715 160 1702 230 1702 458 
L 1702 4058 
z
" transform="scale(0.015625)"/>
       </defs>
       <use xlink:href="#CMR17-31" transform="scale(0.996264)"/>
       <use xlink:href="#CMMI12-3a" transform="translate(45.690477 0) scale(0.996264)"/>
       <use xlink:href="#CMR17-30" transform="translate(72.787654 0) scale(0.996264)"/>
      </g>
     </g>
    </g>
    <g id="text_7">
     <!-- \textbf{Relative transition strengths} -->
     <g transform="translate(24.636997 350.080884) rotate(-90) scale(0.2 -0.2)">
      <defs>
       <path id="CMBX12-52" d="M 3386 2154 
C 4250 2383 4461 2839 4461 3183 
C 4461 3819 3789 4352 2605 4352 
L 243 4352 
L 243 4078 
L 922 4078 
L 922 267 
L 243 267 
L 243 0 
C 429 0 1094 0 1325 0 
C 1555 0 2227 0 2413 0 
L 2413 267 
L 1734 267 
L 1734 2094 
L 2496 2094 
C 2752 2094 2957 2017 3098 1849 
C 3290 1630 3290 1488 3290 1057 
C 3290 626 3290 363 3616 144 
C 3949 -82 4474 -82 4614 -82 
C 5267 -82 5344 494 5344 583 
C 5344 692 5293 711 5210 711 
C 5088 711 5082 667 5075 583 
C 5043 262 4845 128 4666 128 
C 4256 128 4211 554 4160 1137 
C 4122 1474 4077 1944 3386 2154 
z
M 2483 2304 
L 1734 2304 
L 1734 4078 
L 2496 4078 
C 3539 4078 3558 3564 3558 3194 
C 3558 2849 3552 2304 2483 2304 
z
" transform="scale(0.015625)"/>
       <path id="CMBX12-65" d="M 2893 1408 
C 3040 1408 3078 1408 3078 1567 
C 3078 1758 3034 2233 2739 2532 
C 2470 2798 2112 2880 1741 2880 
C 742 2880 198 2233 198 1434 
C 198 545 858 -32 1824 -32 
C 2790 -32 3078 640 3078 748 
C 3078 843 2982 843 2944 843 
C 2842 843 2835 824 2797 742 
C 2630 330 2208 197 1901 197 
C 973 197 966 1053 966 1408 
L 2893 1408 
z
M 966 1593 
C 979 1852 986 2100 1120 2328 
C 1242 2531 1466 2670 1741 2670 
C 2426 2670 2483 1909 2490 1593 
L 966 1593 
z
" transform="scale(0.015625)"/>
       <path id="CMBX12-6c" d="M 1389 4416 
L 282 4416 
L 282 4117 
C 678 4117 723 4117 723 3866 
L 723 260 
L 282 260 
L 282 -13 
C 429 0 883 0 1056 0 
C 1229 0 1683 0 1830 -13 
L 1830 260 
L 1389 260 
L 1389 4416 
z
" transform="scale(0.015625)"/>
       <path id="CMBX12-61" d="M 2944 1898 
C 2944 2484 2477 2879 1574 2879 
C 1216 2879 461 2879 461 2334 
C 461 2061 666 1945 838 1945 
C 1030 1945 1216 2079 1216 2323 
C 1216 2445 1171 2559 1062 2630 
C 1274 2688 1427 2688 1549 2688 
C 1984 2688 2246 2445 2246 1919 
L 2246 1663 
C 1235 1663 218 1382 218 676 
C 218 95 960 -32 1402 -32 
C 1894 -32 2208 233 2336 510 
C 2336 274 2336 0 2982 0 
L 3309 0 
C 3443 0 3494 0 3494 145 
C 3494 273 3437 273 3347 273 
C 2944 273 2944 374 2944 522 
L 2944 1898 
z
M 2246 882 
C 2246 291 1709 178 1504 178 
C 1190 178 928 390 928 686 
C 928 1273 1619 1472 2246 1472 
L 2246 882 
z
" transform="scale(0.015625)"/>
       <path id="CMBX12-74" d="M 1350 2560 
L 2272 2560 
L 2272 2833 
L 1350 2833 
L 1350 4032 
L 1082 4032 
C 1075 3405 768 2776 134 2776 
L 134 2560 
L 653 2560 
L 653 789 
C 653 114 1178 -32 1638 -32 
C 2112 -32 2394 325 2394 795 
L 2394 1133 
L 2125 1133 
L 2125 802 
C 2125 381 1933 197 1734 197 
C 1350 197 1350 624 1350 770 
L 1350 2560 
z
" transform="scale(0.015625)"/>
       <path id="CMBX12-69" d="M 1427 3958 
C 1427 4219 1216 4416 966 4416 
C 704 4416 506 4200 506 3958 
C 506 3716 704 3500 966 3500 
C 1216 3500 1427 3697 1427 3958 
z
M 301 2816 
L 301 2517 
C 678 2517 723 2517 723 2270 
L 723 260 
L 282 260 
L 282 -13 
C 429 0 870 0 1043 0 
C 1222 0 1632 0 1786 -13 
L 1786 260 
L 1389 260 
L 1389 2816 
L 301 2816 
z
" transform="scale(0.015625)"/>
       <path id="CMBX12-76" d="M 3168 2402 
C 3213 2498 3238 2549 3642 2549 
L 3642 2816 
C 3411 2816 3398 2816 3136 2816 
C 2963 2816 2950 2816 2586 2816 
L 2586 2549 
C 2758 2549 2899 2517 2899 2472 
C 2899 2466 2899 2460 2867 2396 
L 2118 763 
L 1293 2549 
L 1645 2549 
L 1645 2822 
C 1498 2816 1050 2816 877 2816 
C 691 2816 320 2816 154 2822 
L 154 2549 
L 557 2549 
L 1683 121 
C 1741 0 1754 -32 1901 -32 
C 2003 -32 2054 -19 2112 108 
L 3168 2402 
z
" transform="scale(0.015625)"/>
       <path id="CMBX12-72" d="M 1331 1411 
C 1331 1619 1376 2624 2125 2624 
C 2035 2555 1990 2448 1990 2336 
C 1990 2079 2202 1972 2362 1972 
C 2522 1972 2733 2079 2733 2337 
C 2733 2658 2400 2834 2093 2834 
C 1587 2834 1370 2401 1280 2137 
L 1274 2137 
L 1274 2816 
L 224 2816 
L 224 2517 
C 621 2517 666 2517 666 2270 
L 666 260 
L 224 260 
L 224 -13 
C 371 0 851 0 1030 0 
C 1216 0 1734 0 1888 -13 
L 1888 260 
L 1331 260 
L 1331 1411 
z
" transform="scale(0.015625)"/>
       <path id="CMBX12-6e" d="M 3398 1924 
C 3398 2525 3136 2834 2432 2834 
C 1971 2834 1574 2615 1357 2143 
L 1350 2143 
L 1350 2816 
L 269 2816 
L 269 2517 
C 666 2517 710 2517 710 2270 
L 710 260 
L 269 260 
L 269 -13 
C 416 0 877 0 1056 0 
C 1235 0 1702 0 1850 -13 
L 1850 260 
L 1408 260 
L 1408 1607 
C 1408 2289 1920 2624 2330 2624 
C 2566 2624 2701 2473 2701 1993 
L 2701 260 
L 2259 260 
L 2259 -13 
C 2406 0 2867 0 3046 0 
C 3226 0 3693 0 3840 -13 
L 3840 260 
L 3398 260 
L 3398 1924 
z
" transform="scale(0.015625)"/>
       <path id="CMBX12-73" d="M 2413 2715 
C 2413 2836 2413 2880 2317 2880 
C 2278 2880 2266 2880 2170 2823 
C 2144 2804 2074 2759 2042 2740 
C 1862 2842 1626 2880 1395 2880 
C 1203 2880 243 2880 243 2056 
C 243 1389 1037 1250 1235 1218 
C 1408 1187 1619 1148 1645 1148 
C 1901 1091 2157 932 2157 666 
C 2157 178 1574 178 1440 178 
C 1114 178 710 279 531 896 
C 493 1023 486 1023 378 1023 
C 243 1023 243 1004 243 858 
L 243 132 
C 243 12 243 -32 339 -32 
C 384 -32 397 -32 525 70 
L 691 191 
C 979 -32 1325 -32 1440 -32 
C 1792 -32 2592 44 2592 888 
C 2592 1192 2426 1402 2298 1516 
C 2035 1731 1818 1770 1472 1833 
C 1062 1903 678 1973 678 2277 
C 678 2689 1248 2689 1382 2689 
C 2093 2689 2131 2245 2144 2087 
C 2150 2005 2202 2005 2278 2005 
C 2413 2005 2413 2024 2413 2170 
L 2413 2715 
z
" transform="scale(0.015625)"/>
       <path id="CMBX12-6f" d="M 3392 1395 
C 3392 2252 2803 2880 1798 2880 
C 755 2880 198 2220 198 1395 
C 198 565 787 -32 1792 -32 
C 2835 -32 3392 596 3392 1395 
z
M 1798 197 
C 966 197 966 939 966 1459 
C 966 1757 966 2074 1088 2303 
C 1229 2556 1517 2670 1792 2670 
C 2157 2670 2387 2499 2496 2322 
C 2624 2093 2624 1763 2624 1459 
C 2624 932 2624 197 1798 197 
z
" transform="scale(0.015625)"/>
       <path id="CMBX12-67" d="M 832 1189 
C 1139 1024 1498 1024 1594 1024 
C 2477 1024 2829 1514 2829 1960 
C 2829 2285 2643 2515 2566 2578 
C 2752 2676 2906 2700 3014 2713 
C 2995 2682 2976 2658 2976 2578 
C 2976 2450 3066 2334 3232 2334 
C 3398 2334 3488 2455 3488 2588 
C 3488 2741 3373 2944 3104 2944 
C 2829 2944 2566 2803 2432 2682 
C 2170 2834 1920 2891 1594 2891 
C 710 2891 358 2403 358 1957 
C 358 1760 422 1501 691 1285 
C 582 1161 467 933 467 699 
C 467 420 614 180 749 76 
C 595 39 198 -105 198 -461 
C 198 -830 614 -1248 1792 -1248 
C 2854 -1248 3392 -910 3392 -439 
C 3392 114 3021 295 2861 370 
C 2554 521 2144 521 1581 521 
C 1421 521 1139 521 1107 527 
C 832 575 755 829 755 957 
C 755 1010 762 1107 832 1189 
z
M 1594 1227 
C 1037 1227 1037 1665 1037 1957 
C 1037 2250 1037 2688 1594 2688 
C 2150 2688 2150 2250 2150 1957 
C 2150 1665 2150 1227 1594 1227 
z
M 1952 -64 
C 2419 -64 2867 -145 2867 -467 
C 2867 -685 2643 -1045 1798 -1045 
C 954 -1045 723 -697 723 -461 
C 723 -64 1126 -64 1222 -64 
L 1952 -64 
z
" transform="scale(0.015625)"/>
       <path id="CMBX12-68" d="M 3398 1924 
C 3398 2525 3136 2834 2432 2834 
C 1786 2834 1472 2384 1382 2194 
L 1376 2194 
L 1376 4416 
L 269 4416 
L 269 4117 
C 666 4117 710 4117 710 3858 
L 710 260 
L 269 260 
L 269 -13 
C 416 0 877 0 1056 0 
C 1235 0 1702 0 1850 -13 
L 1850 260 
L 1408 260 
L 1408 1607 
C 1408 2289 1920 2624 2330 2624 
C 2566 2624 2701 2473 2701 1993 
L 2701 260 
L 2259 260 
L 2259 -13 
C 2406 0 2867 0 3046 0 
C 3226 0 3693 0 3840 -13 
L 3840 260 
L 3398 260 
L 3398 1924 
z
" transform="scale(0.015625)"/>
      </defs>
      <use xlink:href="#CMBX12-52" transform="scale(0.996264)"/>
      <use xlink:href="#CMBX12-65" transform="translate(83.598675 0) scale(0.996264)"/>
      <use xlink:href="#CMBX12-6c" transform="translate(134.737943 0) scale(0.996264)"/>
      <use xlink:href="#CMBX12-61" transform="translate(165.871193 0) scale(0.996264)"/>
      <use xlink:href="#CMBX12-74" transform="translate(220.354381 0) scale(0.996264)"/>
      <use xlink:href="#CMBX12-69" transform="translate(263.940931 0) scale(0.996264)"/>
      <use xlink:href="#CMBX12-76" transform="translate(295.074182 0) scale(0.996264)"/>
      <use xlink:href="#CMBX12-65" transform="translate(351.114032 0) scale(0.996264)"/>
      <use xlink:href="#CMBX12-74" transform="translate(439.6132 0) scale(0.996264)"/>
      <use xlink:href="#CMBX12-72" transform="translate(483.19975 0) scale(0.996264)"/>
      <use xlink:href="#CMBX12-61" transform="translate(528.977258 0) scale(0.996264)"/>
      <use xlink:href="#CMBX12-6e" transform="translate(583.460446 0) scale(0.996264)"/>
      <use xlink:href="#CMBX12-73" transform="translate(645.726946 0) scale(0.996264)"/>
      <use xlink:href="#CMBX12-69" transform="translate(689.936283 0) scale(0.996264)"/>
      <use xlink:href="#CMBX12-74" transform="translate(721.069534 0) scale(0.996264)"/>
      <use xlink:href="#CMBX12-69" transform="translate(764.656084 0) scale(0.996264)"/>
      <use xlink:href="#CMBX12-6f" transform="translate(795.789334 0) scale(0.996264)"/>
      <use xlink:href="#CMBX12-6e" transform="translate(851.829185 0) scale(0.996264)"/>
      <use xlink:href="#CMBX12-73" transform="translate(951.455586 0) scale(0.996264)"/>
      <use xlink:href="#CMBX12-74" transform="translate(995.664923 0) scale(0.996264)"/>
      <use xlink:href="#CMBX12-72" transform="translate(1039.251473 0) scale(0.996264)"/>
      <use xlink:href="#CMBX12-65" transform="translate(1085.028981 0) scale(0.996264)"/>
      <use xlink:href="#CMBX12-6e" transform="translate(1136.168248 0) scale(0.996264)"/>
      <use xlink:href="#CMBX12-67" transform="translate(1198.434748 0) scale(0.996264)"/>
      <use xlink:href="#CMBX12-74" transform="translate(1254.474599 0) scale(0.996264)"/>
      <use xlink:href="#CMBX12-68" transform="translate(1298.061149 0) scale(0.996264)"/>
      <use xlink:href="#CMBX12-73" transform="translate(1360.32765 0) scale(0.996264)"/>
     </g>
    </g>
   </g>
   <g id="LineCollection_1">
    <path d="M 116.731592 367.313944 
L 116.731592 303.006837 
" clip-path="url(#p4ec734b561)" style="fill: none; stroke: #ff0000; stroke-width: 1.5"/>
    <path d="M 134.455851 367.313944 
L 134.455851 297.8143 
" clip-path="url(#p4ec734b561)" style="fill: none; stroke: #ff0000; stroke-width: 1.5"/>
    <path d="M 154.27325 367.313944 
L 154.27325 295.333072 
" clip-path="url(#p4ec734b561)" style="fill: none; stroke: #ff0000; stroke-width: 1.5"/>
    <path d="M 229.433871 367.313944 
L 229.433871 305.345277 
" clip-path="url(#p4ec734b561)" style="fill: none; stroke: #ff0000; stroke-width: 1.5"/>
    <path d="M 247.184157 367.313944 
L 247.184157 287.235357 
" clip-path="url(#p4ec734b561)" style="fill: none; stroke: #ff0000; stroke-width: 1.5"/>
   </g>
   <g id="LineCollection_2">
    <path d="M 116.731592 301.966209 
L 116.731592 301.277614 
" clip-path="url(#p4ec734b561)" style="fill: none; stroke: #8b0000; stroke-width: 1.5"/>
    <path d="M 134.455851 300.919785 
L 134.455851 300.208839 
" clip-path="url(#p4ec734b561)" style="fill: none; stroke: #8b0000; stroke-width: 1.5"/>
    <path d="M 154.27325 295.431197 
L 154.27325 294.597107 
" clip-path="url(#p4ec734b561)" style="fill: none; stroke: #8b0000; stroke-width: 1.5"/>
    <path d="M 229.433871 304.957096 
L 229.433871 304.330394 
" clip-path="url(#p4ec734b561)" style="fill: none; stroke: #8b0000; stroke-width: 1.5"/>
    <path d="M 247.184157 289.261288 
L 247.184157 288.276881 
" clip-path="url(#p4ec734b561)" style="fill: none; stroke: #8b0000; stroke-width: 1.5"/>
   </g>
   <g id="line2d_31">
    <defs>
     <path id="mcfe622dcd4" d="M 4 0 
L -4 -0 
" style="stroke: #8b0000"/>
    </defs>
    <g clip-path="url(#p4ec734b561)">
     <use xlink:href="#mcfe622dcd4" x="116.731592" y="301.966209" style="fill: #8b0000; stroke: #8b0000"/>
     <use xlink:href="#mcfe622dcd4" x="134.455851" y="300.919785" style="fill: #8b0000; stroke: #8b0000"/>
     <use xlink:href="#mcfe622dcd4" x="154.27325" y="295.431197" style="fill: #8b0000; stroke: #8b0000"/>
     <use xlink:href="#mcfe622dcd4" x="229.433871" y="304.957096" style="fill: #8b0000; stroke: #8b0000"/>
     <use xlink:href="#mcfe622dcd4" x="247.184157" y="289.261288" style="fill: #8b0000; stroke: #8b0000"/>
    </g>
   </g>
   <g id="line2d_32">
    <g clip-path="url(#p4ec734b561)">
     <use xlink:href="#mcfe622dcd4" x="116.731592" y="301.277614" style="fill: #8b0000; stroke: #8b0000"/>
     <use xlink:href="#mcfe622dcd4" x="134.455851" y="300.208839" style="fill: #8b0000; stroke: #8b0000"/>
     <use xlink:href="#mcfe622dcd4" x="154.27325" y="294.597107" style="fill: #8b0000; stroke: #8b0000"/>
     <use xlink:href="#mcfe622dcd4" x="229.433871" y="304.330394" style="fill: #8b0000; stroke: #8b0000"/>
     <use xlink:href="#mcfe622dcd4" x="247.184157" y="288.276881" style="fill: #8b0000; stroke: #8b0000"/>
    </g>
   </g>
   <g id="LineCollection_3">
    <path d="M 544.645417 367.313944 
L 544.645417 261.875827 
" clip-path="url(#p4ec734b561)" style="fill: none; stroke: #008000; stroke-width: 1.5"/>
    <path d="M 562.369676 367.313944 
L 562.369676 243.259688 
" clip-path="url(#p4ec734b561)" style="fill: none; stroke: #008000; stroke-width: 1.5"/>
    <path d="M 580.080964 367.313944 
L 580.080964 257.641096 
" clip-path="url(#p4ec734b561)" style="fill: none; stroke: #008000; stroke-width: 1.5"/>
    <path d="M 620.600099 367.313944 
L 620.600099 252.613449 
" clip-path="url(#p4ec734b561)" style="fill: none; stroke: #008000; stroke-width: 1.5"/>
    <path d="M 589.392958 367.313944 
L 589.392958 274.302804 
" clip-path="url(#p4ec734b561)" style="fill: none; stroke: #008000; stroke-width: 1.5"/>
    <path d="M 607.143243 367.313944 
L 607.143243 293.068466 
" clip-path="url(#p4ec734b561)" style="fill: none; stroke: #008000; stroke-width: 1.5"/>
    <path d="M 624.880501 367.313944 
L 624.880501 244.250028 
" clip-path="url(#p4ec734b561)" style="fill: none; stroke: #008000; stroke-width: 1.5"/>
    <path d="M 627.9503 367.313944 
L 627.9503 231.333643 
" clip-path="url(#p4ec734b561)" style="fill: none; stroke: #008000; stroke-width: 1.5"/>
    <path d="M 664.765416 367.313944 
L 664.765416 219.342641 
" clip-path="url(#p4ec734b561)" style="fill: none; stroke: #008000; stroke-width: 1.5"/>
   </g>
   <g id="LineCollection_4">
    <path d="M 544.645417 260.725556 
L 544.645417 258.881215 
" clip-path="url(#p4ec734b561)" style="fill: none; stroke: #006400; stroke-width: 1.5"/>
    <path d="M 562.369676 243.988309 
L 562.369676 241.512479 
" clip-path="url(#p4ec734b561)" style="fill: none; stroke: #006400; stroke-width: 1.5"/>
    <path d="M 580.080964 258.586922 
L 580.080964 256.667156 
" clip-path="url(#p4ec734b561)" style="fill: none; stroke: #006400; stroke-width: 1.5"/>
    <path d="M 620.600099 252.572698 
L 620.600099 250.432564 
" clip-path="url(#p4ec734b561)" style="fill: none; stroke: #006400; stroke-width: 1.5"/>
    <path d="M 589.392958 273.079705 
L 589.392958 271.641033 
" clip-path="url(#p4ec734b561)" style="fill: none; stroke: #006400; stroke-width: 1.5"/>
    <path d="M 607.143243 292.621833 
L 607.143243 291.720861 
" clip-path="url(#p4ec734b561)" style="fill: none; stroke: #006400; stroke-width: 1.5"/>
    <path d="M 624.880501 246.390603 
L 624.880501 244.011228 
" clip-path="url(#p4ec734b561)" style="fill: none; stroke: #006400; stroke-width: 1.5"/>
    <path d="M 627.9503 233.387111 
L 627.9503 230.462235 
" clip-path="url(#p4ec734b561)" style="fill: none; stroke: #006400; stroke-width: 1.5"/>
    <path d="M 664.765416 221.466482 
L 664.765416 217.990921 
" clip-path="url(#p4ec734b561)" style="fill: none; stroke: #006400; stroke-width: 1.5"/>
   </g>
   <g id="line2d_33">
    <defs>
     <path id="mc48a41dbea" d="M 4 0 
L -4 -0 
" style="stroke: #006400"/>
    </defs>
    <g clip-path="url(#p4ec734b561)">
     <use xlink:href="#mc48a41dbea" x="544.645417" y="260.725556" style="fill: #006400; stroke: #006400"/>
     <use xlink:href="#mc48a41dbea" x="562.369676" y="243.988309" style="fill: #006400; stroke: #006400"/>
     <use xlink:href="#mc48a41dbea" x="580.080964" y="258.586922" style="fill: #006400; stroke: #006400"/>
     <use xlink:href="#mc48a41dbea" x="620.600099" y="252.572698" style="fill: #006400; stroke: #006400"/>
     <use xlink:href="#mc48a41dbea" x="589.392958" y="273.079705" style="fill: #006400; stroke: #006400"/>
     <use xlink:href="#mc48a41dbea" x="607.143243" y="292.621833" style="fill: #006400; stroke: #006400"/>
     <use xlink:href="#mc48a41dbea" x="624.880501" y="246.390603" style="fill: #006400; stroke: #006400"/>
     <use xlink:href="#mc48a41dbea" x="627.9503" y="233.387111" style="fill: #006400; stroke: #006400"/>
     <use xlink:href="#mc48a41dbea" x="664.765416" y="221.466482" style="fill: #006400; stroke: #006400"/>
    </g>
   </g>
   <g id="line2d_34">
    <g clip-path="url(#p4ec734b561)">
     <use xlink:href="#mc48a41dbea" x="544.645417" y="258.881215" style="fill: #006400; stroke: #006400"/>
     <use xlink:href="#mc48a41dbea" x="562.369676" y="241.512479" style="fill: #006400; stroke: #006400"/>
     <use xlink:href="#mc48a41dbea" x="580.080964" y="256.667156" style="fill: #006400; stroke: #006400"/>
     <use xlink:href="#mc48a41dbea" x="620.600099" y="250.432564" style="fill: #006400; stroke: #006400"/>
     <use xlink:href="#mc48a41dbea" x="589.392958" y="271.641033" style="fill: #006400; stroke: #006400"/>
     <use xlink:href="#mc48a41dbea" x="607.143243" y="291.720861" style="fill: #006400; stroke: #006400"/>
     <use xlink:href="#mc48a41dbea" x="624.880501" y="244.011228" style="fill: #006400; stroke: #006400"/>
     <use xlink:href="#mc48a41dbea" x="627.9503" y="230.462235" style="fill: #006400; stroke: #006400"/>
     <use xlink:href="#mc48a41dbea" x="664.765416" y="217.990921" style="fill: #006400; stroke: #006400"/>
    </g>
   </g>
   <g id="LineCollection_5">
    <path d="M 915.267642 367.313944 
L 915.267642 98.413289 
" clip-path="url(#p4ec734b561)" style="fill: none; stroke: #0000ff; stroke-width: 1.5"/>
    <path d="M 921.573376 367.313944 
L 921.573376 148.599156 
" clip-path="url(#p4ec734b561)" style="fill: none; stroke: #0000ff; stroke-width: 1.5"/>
    <path d="M 939.297634 367.313944 
L 939.297634 186.201746 
" clip-path="url(#p4ec734b561)" style="fill: none; stroke: #0000ff; stroke-width: 1.5"/>
    <path d="M 947.789531 367.313944 
L 947.789531 117.685447 
" clip-path="url(#p4ec734b561)" style="fill: none; stroke: #0000ff; stroke-width: 1.5"/>
    <path d="M 965.513789 367.313944 
L 965.513789 273.978199 
" clip-path="url(#p4ec734b561)" style="fill: none; stroke: #0000ff; stroke-width: 1.5"/>
    <path d="M 957.749053 367.313944 
L 957.749053 132.534542 
" clip-path="url(#p4ec734b561)" style="fill: none; stroke: #0000ff; stroke-width: 1.5"/>
    <path d="M 975.486311 367.313944 
L 975.486311 134.175448 
" clip-path="url(#p4ec734b561)" style="fill: none; stroke: #0000ff; stroke-width: 1.5"/>
    <path d="M 969.032952 367.313944 
L 969.032952 207.481552 
" clip-path="url(#p4ec734b561)" style="fill: none; stroke: #0000ff; stroke-width: 1.5"/>
    <path d="M 986.783238 367.313944 
L 986.783238 52.489932 
" clip-path="url(#p4ec734b561)" style="fill: none; stroke: #0000ff; stroke-width: 1.5"/>
    <path d="M 1004.520496 367.313944 
L 1004.520496 276.933228 
" clip-path="url(#p4ec734b561)" style="fill: none; stroke: #0000ff; stroke-width: 1.5"/>
    <path d="M 999.645409 367.313944 
L 999.645409 67.220107 
" clip-path="url(#p4ec734b561)" style="fill: none; stroke: #0000ff; stroke-width: 1.5"/>
    <path d="M 1017.395695 367.313944 
L 1017.395695 161.180435 
" clip-path="url(#p4ec734b561)" style="fill: none; stroke: #0000ff; stroke-width: 1.5"/>
   </g>
   <g id="LineCollection_6">
    <path d="M 915.267642 102.386318 
L 915.267642 90.68692 
" clip-path="url(#p4ec734b561)" style="fill: none; stroke: #00008b; stroke-width: 1.5"/>
    <path d="M 921.573376 149.579469 
L 921.573376 141.73992 
" clip-path="url(#p4ec734b561)" style="fill: none; stroke: #00008b; stroke-width: 1.5"/>
    <path d="M 939.297634 187.407126 
L 939.297634 182.088754 
" clip-path="url(#p4ec734b561)" style="fill: none; stroke: #00008b; stroke-width: 1.5"/>
    <path d="M 947.789531 120.177984 
L 947.789531 110.027965 
" clip-path="url(#p4ec734b561)" style="fill: none; stroke: #00008b; stroke-width: 1.5"/>
    <path d="M 965.513789 273.334936 
L 965.513789 271.904107 
" clip-path="url(#p4ec734b561)" style="fill: none; stroke: #00008b; stroke-width: 1.5"/>
    <path d="M 957.749053 136.359325 
L 957.749053 127.5192 
" clip-path="url(#p4ec734b561)" style="fill: none; stroke: #00008b; stroke-width: 1.5"/>
    <path d="M 975.486311 138.833935 
L 975.486311 130.185849 
" clip-path="url(#p4ec734b561)" style="fill: none; stroke: #00008b; stroke-width: 1.5"/>
    <path d="M 969.032952 210.039927 
L 969.032952 205.990787 
" clip-path="url(#p4ec734b561)" style="fill: none; stroke: #00008b; stroke-width: 1.5"/>
    <path d="M 986.783238 67.059224 
L 986.783238 51.940472 
" clip-path="url(#p4ec734b561)" style="fill: none; stroke: #00008b; stroke-width: 1.5"/>
    <path d="M 1004.520496 278.695652 
L 1004.520496 277.424513 
" clip-path="url(#p4ec734b561)" style="fill: none; stroke: #00008b; stroke-width: 1.5"/>
    <path d="M 999.645409 76.481246 
L 999.645409 62.319408 
" clip-path="url(#p4ec734b561)" style="fill: none; stroke: #00008b; stroke-width: 1.5"/>
    <path d="M 1017.395695 165.13035 
L 1017.395695 158.388276 
" clip-path="url(#p4ec734b561)" style="fill: none; stroke: #00008b; stroke-width: 1.5"/>
   </g>
   <g id="line2d_35">
    <defs>
     <path id="md6b0949f5d" d="M 4 0 
L -4 -0 
" style="stroke: #00008b"/>
    </defs>
    <g clip-path="url(#p4ec734b561)">
     <use xlink:href="#md6b0949f5d" x="915.267642" y="102.386318" style="fill: #00008b; stroke: #00008b"/>
     <use xlink:href="#md6b0949f5d" x="921.573376" y="149.579469" style="fill: #00008b; stroke: #00008b"/>
     <use xlink:href="#md6b0949f5d" x="939.297634" y="187.407126" style="fill: #00008b; stroke: #00008b"/>
     <use xlink:href="#md6b0949f5d" x="947.789531" y="120.177984" style="fill: #00008b; stroke: #00008b"/>
     <use xlink:href="#md6b0949f5d" x="965.513789" y="273.334936" style="fill: #00008b; stroke: #00008b"/>
     <use xlink:href="#md6b0949f5d" x="957.749053" y="136.359325" style="fill: #00008b; stroke: #00008b"/>
     <use xlink:href="#md6b0949f5d" x="975.486311" y="138.833935" style="fill: #00008b; stroke: #00008b"/>
     <use xlink:href="#md6b0949f5d" x="969.032952" y="210.039927" style="fill: #00008b; stroke: #00008b"/>
     <use xlink:href="#md6b0949f5d" x="986.783238" y="67.059224" style="fill: #00008b; stroke: #00008b"/>
     <use xlink:href="#md6b0949f5d" x="1004.520496" y="278.695652" style="fill: #00008b; stroke: #00008b"/>
     <use xlink:href="#md6b0949f5d" x="999.645409" y="76.481246" style="fill: #00008b; stroke: #00008b"/>
     <use xlink:href="#md6b0949f5d" x="1017.395695" y="165.13035" style="fill: #00008b; stroke: #00008b"/>
    </g>
   </g>
   <g id="line2d_36">
    <g clip-path="url(#p4ec734b561)">
     <use xlink:href="#md6b0949f5d" x="915.267642" y="90.68692" style="fill: #00008b; stroke: #00008b"/>
     <use xlink:href="#md6b0949f5d" x="921.573376" y="141.73992" style="fill: #00008b; stroke: #00008b"/>
     <use xlink:href="#md6b0949f5d" x="939.297634" y="182.088754" style="fill: #00008b; stroke: #00008b"/>
     <use xlink:href="#md6b0949f5d" x="947.789531" y="110.027965" style="fill: #00008b; stroke: #00008b"/>
     <use xlink:href="#md6b0949f5d" x="965.513789" y="271.904107" style="fill: #00008b; stroke: #00008b"/>
     <use xlink:href="#md6b0949f5d" x="957.749053" y="127.5192" style="fill: #00008b; stroke: #00008b"/>
     <use xlink:href="#md6b0949f5d" x="975.486311" y="130.185849" style="fill: #00008b; stroke: #00008b"/>
     <use xlink:href="#md6b0949f5d" x="969.032952" y="205.990787" style="fill: #00008b; stroke: #00008b"/>
     <use xlink:href="#md6b0949f5d" x="986.783238" y="51.940472" style="fill: #00008b; stroke: #00008b"/>
     <use xlink:href="#md6b0949f5d" x="1004.520496" y="277.424513" style="fill: #00008b; stroke: #00008b"/>
     <use xlink:href="#md6b0949f5d" x="999.645409" y="62.319408" style="fill: #00008b; stroke: #00008b"/>
     <use xlink:href="#md6b0949f5d" x="1017.395695" y="158.388276" style="fill: #00008b; stroke: #00008b"/>
    </g>
   </g>
   <g id="LineCollection_7">
    <path d="M 993.569355 367.313944 
L 993.569355 172.755715 
" clip-path="url(#p4ec734b561)" style="fill: none; stroke: #ff00ff; stroke-width: 1.5"/>
    <path d="M 1007.783333 367.313944 
L 1007.783333 287.923897 
" clip-path="url(#p4ec734b561)" style="fill: none; stroke: #ff00ff; stroke-width: 1.5"/>
    <path d="M 1037.338753 367.313944 
L 1037.338753 158.413281 
" clip-path="url(#p4ec734b561)" style="fill: none; stroke: #ff00ff; stroke-width: 1.5"/>
    <path d="M 1055.063012 367.313944 
L 1055.063012 124.466923 
" clip-path="url(#p4ec734b561)" style="fill: none; stroke: #ff00ff; stroke-width: 1.5"/>
    <path d="M 1072.7743 367.313944 
L 1072.7743 279.847147 
" clip-path="url(#p4ec734b561)" style="fill: none; stroke: #ff00ff; stroke-width: 1.5"/>
    <path d="M 1064.583957 367.313944 
L 1064.583957 126.454598 
" clip-path="url(#p4ec734b561)" style="fill: none; stroke: #ff00ff; stroke-width: 1.5"/>
    <path d="M 1082.308215 367.313944 
L 1082.308215 205.38088 
" clip-path="url(#p4ec734b561)" style="fill: none; stroke: #ff00ff; stroke-width: 1.5"/>
    <path d="M 1071.470904 367.313944 
L 1071.470904 199.18009 
" clip-path="url(#p4ec734b561)" style="fill: none; stroke: #ff00ff; stroke-width: 1.5"/>
    <path d="M 1089.208162 367.313944 
L 1089.208162 137.797246 
" clip-path="url(#p4ec734b561)" style="fill: none; stroke: #ff00ff; stroke-width: 1.5"/>
    <path d="M 1092.41579 367.313944 
L 1092.41579 93.729275 
" clip-path="url(#p4ec734b561)" style="fill: none; stroke: #ff00ff; stroke-width: 1.5"/>
   </g>
   <g id="LineCollection_8">
    <path d="M 993.569355 177.034844 
L 993.569355 171.075233 
" clip-path="url(#p4ec734b561)" style="fill: none; stroke: #ff1493; stroke-width: 1.5"/>
    <path d="M 1007.783333 287.376989 
L 1007.783333 286.344162 
" clip-path="url(#p4ec734b561)" style="fill: none; stroke: #ff1493; stroke-width: 1.5"/>
    <path d="M 1037.338753 166.037718 
L 1037.338753 159.35704 
" clip-path="url(#p4ec734b561)" style="fill: none; stroke: #ff1493; stroke-width: 1.5"/>
    <path d="M 1055.063012 131.658481 
L 1055.063012 122.447512 
" clip-path="url(#p4ec734b561)" style="fill: none; stroke: #ff1493; stroke-width: 1.5"/>
    <path d="M 1072.7743 279.687375 
L 1072.7743 278.444729 
" clip-path="url(#p4ec734b561)" style="fill: none; stroke: #ff1493; stroke-width: 1.5"/>
    <path d="M 1064.583957 128.694425 
L 1064.583957 119.245551 
" clip-path="url(#p4ec734b561)" style="fill: none; stroke: #ff1493; stroke-width: 1.5"/>
    <path d="M 1082.308215 206.927108 
L 1082.308215 202.713923 
" clip-path="url(#p4ec734b561)" style="fill: none; stroke: #ff1493; stroke-width: 1.5"/>
    <path d="M 1071.470904 199.789343 
L 1071.470904 195.187357 
" clip-path="url(#p4ec734b561)" style="fill: none; stroke: #ff1493; stroke-width: 1.5"/>
    <path d="M 1089.208162 140.486664 
L 1089.208162 131.965617 
" clip-path="url(#p4ec734b561)" style="fill: none; stroke: #ff1493; stroke-width: 1.5"/>
    <path d="M 1092.41579 101.498025 
L 1092.41579 89.718256 
" clip-path="url(#p4ec734b561)" style="fill: none; stroke: #ff1493; stroke-width: 1.5"/>
   </g>
   <g id="line2d_37">
    <defs>
     <path id="mbd81e29de0" d="M 4 0 
L -4 -0 
" style="stroke: #ff1493"/>
    </defs>
    <g clip-path="url(#p4ec734b561)">
     <use xlink:href="#mbd81e29de0" x="993.569355" y="177.034844" style="fill: #ff1493; stroke: #ff1493"/>
     <use xlink:href="#mbd81e29de0" x="1007.783333" y="287.376989" style="fill: #ff1493; stroke: #ff1493"/>
     <use xlink:href="#mbd81e29de0" x="1037.338753" y="166.037718" style="fill: #ff1493; stroke: #ff1493"/>
     <use xlink:href="#mbd81e29de0" x="1055.063012" y="131.658481" style="fill: #ff1493; stroke: #ff1493"/>
     <use xlink:href="#mbd81e29de0" x="1072.7743" y="279.687375" style="fill: #ff1493; stroke: #ff1493"/>
     <use xlink:href="#mbd81e29de0" x="1064.583957" y="128.694425" style="fill: #ff1493; stroke: #ff1493"/>
     <use xlink:href="#mbd81e29de0" x="1082.308215" y="206.927108" style="fill: #ff1493; stroke: #ff1493"/>
     <use xlink:href="#mbd81e29de0" x="1071.470904" y="199.789343" style="fill: #ff1493; stroke: #ff1493"/>
     <use xlink:href="#mbd81e29de0" x="1089.208162" y="140.486664" style="fill: #ff1493; stroke: #ff1493"/>
     <use xlink:href="#mbd81e29de0" x="1092.41579" y="101.498025" style="fill: #ff1493; stroke: #ff1493"/>
    </g>
   </g>
   <g id="line2d_38">
    <g clip-path="url(#p4ec734b561)">
     <use xlink:href="#mbd81e29de0" x="993.569355" y="171.075233" style="fill: #ff1493; stroke: #ff1493"/>
     <use xlink:href="#mbd81e29de0" x="1007.783333" y="286.344162" style="fill: #ff1493; stroke: #ff1493"/>
     <use xlink:href="#mbd81e29de0" x="1037.338753" y="159.35704" style="fill: #ff1493; stroke: #ff1493"/>
     <use xlink:href="#mbd81e29de0" x="1055.063012" y="122.447512" style="fill: #ff1493; stroke: #ff1493"/>
     <use xlink:href="#mbd81e29de0" x="1072.7743" y="278.444729" style="fill: #ff1493; stroke: #ff1493"/>
     <use xlink:href="#mbd81e29de0" x="1064.583957" y="119.245551" style="fill: #ff1493; stroke: #ff1493"/>
     <use xlink:href="#mbd81e29de0" x="1082.308215" y="202.713923" style="fill: #ff1493; stroke: #ff1493"/>
     <use xlink:href="#mbd81e29de0" x="1071.470904" y="195.187357" style="fill: #ff1493; stroke: #ff1493"/>
     <use xlink:href="#mbd81e29de0" x="1089.208162" y="131.965617" style="fill: #ff1493; stroke: #ff1493"/>
     <use xlink:href="#mbd81e29de0" x="1092.41579" y="89.718256" style="fill: #ff1493; stroke: #ff1493"/>
    </g>
   </g>
   <g id="line2d_39">
    <defs>
     <path id="mef00ef6043" d="M 0 3 
C 0.795609 3 1.55874 2.683901 2.12132 2.12132 
C 2.683901 1.55874 3 0.795609 3 0 
C 3 -0.795609 2.683901 -1.55874 2.12132 -2.12132 
C 1.55874 -2.683901 0.795609 -3 0 -3 
C -0.795609 -3 -1.55874 -2.683901 -2.12132 -2.12132 
C -2.683901 -1.55874 -3 -0.795609 -3 0 
C -3 0.795609 -2.683901 1.55874 -2.12132 2.12132 
C -1.55874 2.683901 -0.795609 3 0 3 
z
" style="stroke: #8b0000"/>
    </defs>
    <g clip-path="url(#p4ec734b561)">
     <use xlink:href="#mef00ef6043" x="116.731592" y="301.621912" style="fill-opacity: 0; stroke: #8b0000"/>
     <use xlink:href="#mef00ef6043" x="134.455851" y="300.564312" style="fill-opacity: 0; stroke: #8b0000"/>
     <use xlink:href="#mef00ef6043" x="154.27325" y="295.014152" style="fill-opacity: 0; stroke: #8b0000"/>
     <use xlink:href="#mef00ef6043" x="229.433871" y="304.643745" style="fill-opacity: 0; stroke: #8b0000"/>
     <use xlink:href="#mef00ef6043" x="247.184157" y="288.769084" style="fill-opacity: 0; stroke: #8b0000"/>
    </g>
   </g>
   <g id="line2d_40">
    <defs>
     <path id="m3af451b04e" d="M 0 3 
C 0.795609 3 1.55874 2.683901 2.12132 2.12132 
C 2.683901 1.55874 3 0.795609 3 0 
C 3 -0.795609 2.683901 -1.55874 2.12132 -2.12132 
C 1.55874 -2.683901 0.795609 -3 0 -3 
C -0.795609 -3 -1.55874 -2.683901 -2.12132 -2.12132 
C -2.683901 -1.55874 -3 -0.795609 -3 0 
C -3 0.795609 -2.683901 1.55874 -2.12132 2.12132 
C -1.55874 2.683901 -0.795609 3 0 3 
z
" style="stroke: #006400"/>
    </defs>
    <g clip-path="url(#p4ec734b561)">
     <use xlink:href="#m3af451b04e" x="544.645417" y="259.803385" style="fill-opacity: 0; stroke: #006400"/>
     <use xlink:href="#m3af451b04e" x="562.369676" y="242.750394" style="fill-opacity: 0; stroke: #006400"/>
     <use xlink:href="#m3af451b04e" x="580.080964" y="257.627039" style="fill-opacity: 0; stroke: #006400"/>
     <use xlink:href="#m3af451b04e" x="620.600099" y="251.502631" style="fill-opacity: 0; stroke: #006400"/>
     <use xlink:href="#m3af451b04e" x="589.392958" y="272.360369" style="fill-opacity: 0; stroke: #006400"/>
     <use xlink:href="#m3af451b04e" x="607.143243" y="292.171347" style="fill-opacity: 0; stroke: #006400"/>
     <use xlink:href="#m3af451b04e" x="624.880501" y="245.200915" style="fill-opacity: 0; stroke: #006400"/>
     <use xlink:href="#m3af451b04e" x="627.9503" y="231.924673" style="fill-opacity: 0; stroke: #006400"/>
     <use xlink:href="#m3af451b04e" x="664.765416" y="219.728702" style="fill-opacity: 0; stroke: #006400"/>
    </g>
   </g>
   <g id="line2d_41">
    <defs>
     <path id="mfea21efb22" d="M 0 3 
C 0.795609 3 1.55874 2.683901 2.12132 2.12132 
C 2.683901 1.55874 3 0.795609 3 0 
C 3 -0.795609 2.683901 -1.55874 2.12132 -2.12132 
C 1.55874 -2.683901 0.795609 -3 0 -3 
C -0.795609 -3 -1.55874 -2.683901 -2.12132 -2.12132 
C -2.683901 -1.55874 -3 -0.795609 -3 0 
C -3 0.795609 -2.683901 1.55874 -2.12132 2.12132 
C -1.55874 2.683901 -0.795609 3 0 3 
z
" style="stroke: #00008b"/>
    </defs>
    <g clip-path="url(#p4ec734b561)">
     <use xlink:href="#mfea21efb22" x="915.267642" y="96.536619" style="fill-opacity: 0; stroke: #00008b"/>
     <use xlink:href="#mfea21efb22" x="921.573376" y="145.659694" style="fill-opacity: 0; stroke: #00008b"/>
     <use xlink:href="#mfea21efb22" x="939.297634" y="184.74794" style="fill-opacity: 0; stroke: #00008b"/>
     <use xlink:href="#mfea21efb22" x="947.789531" y="115.102974" style="fill-opacity: 0; stroke: #00008b"/>
     <use xlink:href="#mfea21efb22" x="965.513789" y="272.619521" style="fill-opacity: 0; stroke: #00008b"/>
     <use xlink:href="#mfea21efb22" x="957.749053" y="131.939263" style="fill-opacity: 0; stroke: #00008b"/>
     <use xlink:href="#mfea21efb22" x="975.486311" y="134.509892" style="fill-opacity: 0; stroke: #00008b"/>
     <use xlink:href="#mfea21efb22" x="969.032952" y="208.015357" style="fill-opacity: 0; stroke: #00008b"/>
     <use xlink:href="#mfea21efb22" x="986.783238" y="59.499848" style="fill-opacity: 0; stroke: #00008b"/>
     <use xlink:href="#mfea21efb22" x="1004.520496" y="278.060082" style="fill-opacity: 0; stroke: #00008b"/>
     <use xlink:href="#mfea21efb22" x="999.645409" y="69.400327" style="fill-opacity: 0; stroke: #00008b"/>
     <use xlink:href="#mfea21efb22" x="1017.395695" y="161.759313" style="fill-opacity: 0; stroke: #00008b"/>
    </g>
   </g>
   <g id="line2d_42">
    <defs>
     <path id="m954aa73e07" d="M 0 3 
C 0.795609 3 1.55874 2.683901 2.12132 2.12132 
C 2.683901 1.55874 3 0.795609 3 0 
C 3 -0.795609 2.683901 -1.55874 2.12132 -2.12132 
C 1.55874 -2.683901 0.795609 -3 0 -3 
C -0.795609 -3 -1.55874 -2.683901 -2.12132 -2.12132 
C -2.683901 -1.55874 -3 -0.795609 -3 0 
C -3 0.795609 -2.683901 1.55874 -2.12132 2.12132 
C -1.55874 2.683901 -0.795609 3 0 3 
z
" style="stroke: #ff1493"/>
    </defs>
    <g clip-path="url(#p4ec734b561)">
     <use xlink:href="#m954aa73e07" x="993.569355" y="174.055038" style="fill-opacity: 0; stroke: #ff1493"/>
     <use xlink:href="#m954aa73e07" x="1007.783333" y="286.860576" style="fill-opacity: 0; stroke: #ff1493"/>
     <use xlink:href="#m954aa73e07" x="1037.338753" y="162.697379" style="fill-opacity: 0; stroke: #ff1493"/>
     <use xlink:href="#m954aa73e07" x="1055.063012" y="127.052997" style="fill-opacity: 0; stroke: #ff1493"/>
     <use xlink:href="#m954aa73e07" x="1072.7743" y="279.066052" style="fill-opacity: 0; stroke: #ff1493"/>
     <use xlink:href="#m954aa73e07" x="1064.583957" y="123.969988" style="fill-opacity: 0; stroke: #ff1493"/>
     <use xlink:href="#m954aa73e07" x="1082.308215" y="204.820516" style="fill-opacity: 0; stroke: #ff1493"/>
     <use xlink:href="#m954aa73e07" x="1071.470904" y="197.48835" style="fill-opacity: 0; stroke: #ff1493"/>
     <use xlink:href="#m954aa73e07" x="1089.208162" y="136.22614" style="fill-opacity: 0; stroke: #ff1493"/>
     <use xlink:href="#m954aa73e07" x="1092.41579" y="95.60814" style="fill-opacity: 0; stroke: #ff1493"/>
    </g>
   </g>
   <g id="patch_3">
    <path d="M 67.947382 383.082618 
L 67.947382 36.171799 
" style="fill: none; stroke: #000000; stroke-width: 0.8; stroke-linejoin: miter; stroke-linecap: square"/>
   </g>
   <g id="patch_4">
    <path d="M 1141.2 383.082618 
L 1141.2 36.171799 
" style="fill: none; stroke: #000000; stroke-width: 0.8; stroke-linejoin: miter; stroke-linecap: square"/>
   </g>
   <g id="patch_5">
    <path d="M 67.947382 383.082618 
L 1141.2 383.082618 
" style="fill: none; stroke: #000000; stroke-width: 0.8; stroke-linejoin: miter; stroke-linecap: square"/>
   </g>
   <g id="patch_6">
    <path d="M 67.947382 36.171799 
L 1141.2 36.171799 
" style="fill: none; stroke: #000000; stroke-width: 0.8; stroke-linejoin: miter; stroke-linecap: square"/>
   </g>
   <g id="text_8">
    <!-- \textbf{Relative transition strength comparison} -->
    <g transform="translate(331.137399 30.171799) scale(0.28 -0.28)">
     <defs>
      <path id="CMBX12-63" d="M 2995 753 
C 2995 829 2925 829 2861 829 
C 2758 829 2752 823 2720 747 
C 2675 625 2502 197 1914 197 
C 1011 197 1011 1166 1011 1453 
C 1011 1829 1018 2664 1856 2664 
C 1901 2664 2278 2664 2278 2632 
C 2278 2624 2272 2618 2259 2612 
C 2240 2593 2157 2496 2157 2334 
C 2157 2064 2374 1954 2534 1954 
C 2669 1954 2912 2039 2912 2346 
C 2912 2880 2176 2880 1830 2880 
C 691 2880 243 2145 243 1414 
C 243 552 851 -32 1792 -32 
C 2797 -32 2995 708 2995 753 
z
" transform="scale(0.015625)"/>
      <path id="CMBX12-6d" d="M 5402 1924 
C 5402 2506 5152 2834 4435 2834 
C 3789 2834 3488 2407 3386 2206 
C 3283 2740 2848 2834 2438 2834 
C 1824 2834 1491 2445 1357 2143 
L 1350 2143 
L 1350 2816 
L 269 2816 
L 269 2517 
C 666 2517 710 2517 710 2270 
L 710 260 
L 269 260 
L 269 -13 
C 416 0 877 0 1056 0 
C 1235 0 1702 0 1850 -13 
L 1850 260 
L 1408 260 
L 1408 1607 
C 1408 2296 1926 2624 2330 2624 
C 2566 2624 2707 2485 2707 1993 
L 2707 260 
L 2266 260 
L 2266 -13 
C 2413 0 2874 0 3053 0 
C 3232 0 3699 0 3846 -13 
L 3846 260 
L 3405 260 
L 3405 1607 
C 3405 2296 3923 2624 4326 2624 
C 4563 2624 4704 2485 4704 1993 
L 4704 260 
L 4262 260 
L 4262 -13 
C 4410 0 4870 0 5050 0 
C 5229 0 5696 0 5843 -13 
L 5843 260 
L 5402 260 
L 5402 1924 
z
" transform="scale(0.015625)"/>
      <path id="CMBX12-70" d="M 1805 -955 
L 1363 -955 
L 1363 268 
C 1523 128 1805 -32 2189 -32 
C 3066 -32 3750 493 3750 1417 
C 3750 2290 3155 2853 2291 2853 
C 1914 2853 1587 2738 1331 2554 
L 1331 2859 
L 224 2859 
L 224 2560 
C 621 2560 666 2560 666 2310 
L 666 -955 
L 224 -955 
L 224 -1228 
C 371 -1216 832 -1216 1011 -1216 
C 1190 -1216 1658 -1216 1805 -1228 
L 1805 -955 
z
M 1363 2246 
C 1600 2530 1939 2624 2189 2624 
C 2605 2624 2982 2251 2982 1417 
C 2982 500 2522 178 2112 178 
C 1837 178 1562 319 1363 620 
L 1363 2246 
z
" transform="scale(0.015625)"/>
     </defs>
     <use xlink:href="#CMBX12-52" transform="scale(0.996264)"/>
     <use xlink:href="#CMBX12-65" transform="translate(83.598675 0) scale(0.996264)"/>
     <use xlink:href="#CMBX12-6c" transform="translate(134.737943 0) scale(0.996264)"/>
     <use xlink:href="#CMBX12-61" transform="translate(165.871193 0) scale(0.996264)"/>
     <use xlink:href="#CMBX12-74" transform="translate(220.354381 0) scale(0.996264)"/>
     <use xlink:href="#CMBX12-69" transform="translate(263.940931 0) scale(0.996264)"/>
     <use xlink:href="#CMBX12-76" transform="translate(295.074182 0) scale(0.996264)"/>
     <use xlink:href="#CMBX12-65" transform="translate(351.114032 0) scale(0.996264)"/>
     <use xlink:href="#CMBX12-74" transform="translate(439.6132 0) scale(0.996264)"/>
     <use xlink:href="#CMBX12-72" transform="translate(483.19975 0) scale(0.996264)"/>
     <use xlink:href="#CMBX12-61" transform="translate(528.977258 0) scale(0.996264)"/>
     <use xlink:href="#CMBX12-6e" transform="translate(583.460446 0) scale(0.996264)"/>
     <use xlink:href="#CMBX12-73" transform="translate(645.726946 0) scale(0.996264)"/>
     <use xlink:href="#CMBX12-69" transform="translate(689.936283 0) scale(0.996264)"/>
     <use xlink:href="#CMBX12-74" transform="translate(721.069534 0) scale(0.996264)"/>
     <use xlink:href="#CMBX12-69" transform="translate(764.656084 0) scale(0.996264)"/>
     <use xlink:href="#CMBX12-6f" transform="translate(795.789334 0) scale(0.996264)"/>
     <use xlink:href="#CMBX12-6e" transform="translate(851.829185 0) scale(0.996264)"/>
     <use xlink:href="#CMBX12-73" transform="translate(951.455586 0) scale(0.996264)"/>
     <use xlink:href="#CMBX12-74" transform="translate(995.664923 0) scale(0.996264)"/>
     <use xlink:href="#CMBX12-72" transform="translate(1039.251473 0) scale(0.996264)"/>
     <use xlink:href="#CMBX12-65" transform="translate(1085.028981 0) scale(0.996264)"/>
     <use xlink:href="#CMBX12-6e" transform="translate(1136.168248 0) scale(0.996264)"/>
     <use xlink:href="#CMBX12-67" transform="translate(1198.434748 0) scale(0.996264)"/>
     <use xlink:href="#CMBX12-74" transform="translate(1254.474599 0) scale(0.996264)"/>
     <use xlink:href="#CMBX12-68" transform="translate(1298.061149 0) scale(0.996264)"/>
     <use xlink:href="#CMBX12-63" transform="translate(1397.68755 0) scale(0.996264)"/>
     <use xlink:href="#CMBX12-6f" transform="translate(1447.500751 0) scale(0.996264)"/>
     <use xlink:href="#CMBX12-6d" transform="translate(1503.540602 0) scale(0.996264)"/>
     <use xlink:href="#CMBX12-70" transform="translate(1596.940352 0) scale(0.996264)"/>
     <use xlink:href="#CMBX12-61" transform="translate(1659.206853 0) scale(0.996264)"/>
     <use xlink:href="#CMBX12-72" transform="translate(1713.690041 0) scale(0.996264)"/>
     <use xlink:href="#CMBX12-69" transform="translate(1759.467548 0) scale(0.996264)"/>
     <use xlink:href="#CMBX12-73" transform="translate(1790.600799 0) scale(0.996264)"/>
     <use xlink:href="#CMBX12-6f" transform="translate(1834.810136 0) scale(0.996264)"/>
     <use xlink:href="#CMBX12-6e" transform="translate(1890.849986 0) scale(0.996264)"/>
    </g>
   </g>
  </g>
  <g id="axes_2">
   <g id="patch_7">
    <path d="M 67.947382 513.019557 
L 1141.2 513.019557 
L 1141.2 397.382618 
L 67.947382 397.382618 
z
" style="fill: #ffffff"/>
   </g>
   <g id="PathCollection_1">
    <defs>
     <path id="m11c2a60ea9" d="M 0 -3 
L -3 3 
L 3 3 
z
" style="stroke: #8b0000"/>
    </defs>
    <g clip-path="url(#p03e587fe7f)">
     <use xlink:href="#m11c2a60ea9" x="116.731592" y="450.70278" style="fill: #8b0000; stroke: #8b0000"/>
     <use xlink:href="#m11c2a60ea9" x="134.455851" y="402.638842" style="fill: #8b0000; stroke: #8b0000"/>
     <use xlink:href="#m11c2a60ea9" x="154.27325" y="496.295611" style="fill: #8b0000; stroke: #8b0000"/>
     <use xlink:href="#m11c2a60ea9" x="229.433871" y="477.930716" style="fill: #8b0000; stroke: #8b0000"/>
     <use xlink:href="#m11c2a60ea9" x="247.184157" y="457.055294" style="fill: #8b0000; stroke: #8b0000"/>
    </g>
   </g>
   <g id="PathCollection_2">
    <defs>
     <path id="m38cb866f3d" d="M 0 -3 
L -3 3 
L 3 3 
z
" style="stroke: #006400"/>
    </defs>
    <g clip-path="url(#p03e587fe7f)">
     <use xlink:href="#m38cb866f3d" x="544.645417" y="455.715284" style="fill: #006400; stroke: #006400"/>
     <use xlink:href="#m38cb866f3d" x="562.369676" y="497.162424" style="fill: #006400; stroke: #006400"/>
     <use xlink:href="#m38cb866f3d" x="580.080964" y="507.763333" style="fill: #006400; stroke: #006400"/>
     <use xlink:href="#m38cb866f3d" x="620.600099" y="482.291937" style="fill: #006400; stroke: #006400"/>
     <use xlink:href="#m38cb866f3d" x="589.392958" y="452.441206" style="fill: #006400; stroke: #006400"/>
     <use xlink:href="#m38cb866f3d" x="607.143243" y="475.898646" style="fill: #006400; stroke: #006400"/>
     <use xlink:href="#m38cb866f3d" x="624.880501" y="487.51007" style="fill: #006400; stroke: #006400"/>
     <use xlink:href="#m38cb866f3d" x="627.9503" y="496.520003" style="fill: #006400; stroke: #006400"/>
     <use xlink:href="#m38cb866f3d" x="664.765416" y="501.150894" style="fill: #006400; stroke: #006400"/>
    </g>
   </g>
   <g id="PathCollection_3">
    <defs>
     <path id="m18f916dfe1" d="M 0 -3 
L -3 3 
L 3 3 
z
" style="stroke: #00008b"/>
    </defs>
    <g clip-path="url(#p03e587fe7f)">
     <use xlink:href="#m18f916dfe1" x="915.267642" y="489.503067" style="fill: #00008b; stroke: #00008b"/>
     <use xlink:href="#m18f916dfe1" x="921.573376" y="472.282894" style="fill: #00008b; stroke: #00008b"/>
     <use xlink:href="#m18f916dfe1" x="939.297634" y="486.709594" style="fill: #00008b; stroke: #00008b"/>
     <use xlink:href="#m18f916dfe1" x="947.789531" y="480.530787" style="fill: #00008b; stroke: #00008b"/>
     <use xlink:href="#m18f916dfe1" x="965.513789" y="469.305158" style="fill: #00008b; stroke: #00008b"/>
     <use xlink:href="#m18f916dfe1" x="957.749053" y="501.346901" style="fill: #00008b; stroke: #00008b"/>
     <use xlink:href="#m18f916dfe1" x="975.486311" y="504.281372" style="fill: #00008b; stroke: #00008b"/>
     <use xlink:href="#m18f916dfe1" x="969.032952" y="499.203153" style="fill: #00008b; stroke: #00008b"/>
     <use xlink:href="#m18f916dfe1" x="986.783238" y="448.756976" style="fill: #00008b; stroke: #00008b"/>
     <use xlink:href="#m18f916dfe1" x="1004.520496" y="474.873233" style="fill: #00008b; stroke: #00008b"/>
     <use xlink:href="#m18f916dfe1" x="999.645409" y="488.740553" style="fill: #00008b; stroke: #00008b"/>
     <use xlink:href="#m18f916dfe1" x="1017.395695" y="500.619832" style="fill: #00008b; stroke: #00008b"/>
    </g>
   </g>
   <g id="PathCollection_4">
    <defs>
     <path id="mdbde8564e7" d="M 0 -3 
L -3 3 
L 3 3 
z
" style="stroke: #ff1493"/>
    </defs>
    <g clip-path="url(#p03e587fe7f)">
     <use xlink:href="#mdbde8564e7" x="993.569355" y="490.304599" style="fill: #ff1493; stroke: #ff1493"/>
     <use xlink:href="#mdbde8564e7" x="1007.783333" y="472.405664" style="fill: #ff1493; stroke: #ff1493"/>
     <use xlink:href="#mdbde8564e7" x="1037.338753" y="453.443581" style="fill: #ff1493; stroke: #ff1493"/>
     <use xlink:href="#mdbde8564e7" x="1055.063012" y="479.721256" style="fill: #ff1493; stroke: #ff1493"/>
     <use xlink:href="#mdbde8564e7" x="1072.7743" y="484.302504" style="fill: #ff1493; stroke: #ff1493"/>
     <use xlink:href="#mdbde8564e7" x="1064.583957" y="480.60984" style="fill: #ff1493; stroke: #ff1493"/>
     <use xlink:href="#mdbde8564e7" x="1082.308215" y="498.881462" style="fill: #ff1493; stroke: #ff1493"/>
     <use xlink:href="#mdbde8564e7" x="1071.470904" y="481.286161" style="fill: #ff1493; stroke: #ff1493"/>
     <use xlink:href="#mdbde8564e7" x="1089.208162" y="489.859621" style="fill: #ff1493; stroke: #ff1493"/>
     <use xlink:href="#mdbde8564e7" x="1092.41579" y="489.80016" style="fill: #ff1493; stroke: #ff1493"/>
    </g>
   </g>
   <g id="matplotlib.axis_3">
    <g id="xtick_10">
     <g id="line2d_43">
      <path d="M 109.949117 513.019557 
L 109.949117 397.382618 
" clip-path="url(#p03e587fe7f)" style="fill: none; stroke: #b0b0b0; stroke-width: 0.8; stroke-linecap: square"/>
     </g>
     <g id="line2d_44">
      <g>
       <use xlink:href="#m51379a9b53" x="109.949117" y="513.019557" style="stroke: #000000; stroke-width: 0.8"/>
      </g>
     </g>
     <g id="text_9">
      <!-- $\mathdefault{460}$ -->
      <g transform="translate(93.500545 536.623963) scale(0.24 -0.24)">
       <use xlink:href="#CMR17-34" transform="scale(0.996264)"/>
       <use xlink:href="#CMR17-36" transform="translate(45.690477 0) scale(0.996264)"/>
       <use xlink:href="#CMR17-30" transform="translate(91.380954 0) scale(0.996264)"/>
      </g>
     </g>
    </g>
    <g id="xtick_11">
     <g id="line2d_45">
      <path d="M 230.140277 513.019557 
L 230.140277 397.382618 
" clip-path="url(#p03e587fe7f)" style="fill: none; stroke: #b0b0b0; stroke-width: 0.8; stroke-linecap: square"/>
     </g>
     <g id="line2d_46">
      <g>
       <use xlink:href="#m51379a9b53" x="230.140277" y="513.019557" style="stroke: #000000; stroke-width: 0.8"/>
      </g>
     </g>
     <g id="text_10">
      <!-- $\mathdefault{480}$ -->
      <g transform="translate(213.691706 536.623963) scale(0.24 -0.24)">
       <use xlink:href="#CMR17-34" transform="scale(0.996264)"/>
       <use xlink:href="#CMR17-38" transform="translate(45.690477 0) scale(0.996264)"/>
       <use xlink:href="#CMR17-30" transform="translate(91.380954 0) scale(0.996264)"/>
      </g>
     </g>
    </g>
    <g id="xtick_12">
     <g id="line2d_47">
      <path d="M 350.331438 513.019557 
L 350.331438 397.382618 
" clip-path="url(#p03e587fe7f)" style="fill: none; stroke: #b0b0b0; stroke-width: 0.8; stroke-linecap: square"/>
     </g>
     <g id="line2d_48">
      <g>
       <use xlink:href="#m51379a9b53" x="350.331438" y="513.019557" style="stroke: #000000; stroke-width: 0.8"/>
      </g>
     </g>
     <g id="text_11">
      <!-- $\mathdefault{500}$ -->
      <g transform="translate(333.882867 536.623963) scale(0.24 -0.24)">
       <defs>
        <path id="CMR17-35" d="M 730 3692 
C 794 3666 1056 3584 1325 3584 
C 1920 3584 2246 3911 2432 4100 
C 2432 4157 2432 4192 2394 4192 
C 2387 4192 2374 4192 2323 4163 
C 2099 4058 1837 3973 1517 3973 
C 1325 3973 1037 3999 723 4139 
C 653 4171 640 4171 634 4171 
C 602 4171 595 4164 595 4037 
L 595 2203 
C 595 2089 595 2057 659 2057 
C 691 2057 704 2070 736 2114 
C 941 2401 1222 2522 1542 2522 
C 1766 2522 2246 2382 2246 1289 
C 2246 1085 2246 715 2054 421 
C 1894 159 1645 25 1370 25 
C 947 25 518 320 403 814 
C 429 807 480 795 506 795 
C 589 795 749 840 749 1038 
C 749 1210 627 1280 506 1280 
C 358 1280 262 1190 262 1011 
C 262 454 704 -128 1382 -128 
C 2042 -128 2669 440 2669 1264 
C 2669 2030 2170 2624 1549 2624 
C 1222 2624 947 2503 730 2274 
L 730 3692 
z
" transform="scale(0.015625)"/>
       </defs>
       <use xlink:href="#CMR17-35" transform="scale(0.996264)"/>
       <use xlink:href="#CMR17-30" transform="translate(45.690477 0) scale(0.996264)"/>
       <use xlink:href="#CMR17-30" transform="translate(91.380954 0) scale(0.996264)"/>
      </g>
     </g>
    </g>
    <g id="xtick_13">
     <g id="line2d_49">
      <path d="M 470.522599 513.019557 
L 470.522599 397.382618 
" clip-path="url(#p03e587fe7f)" style="fill: none; stroke: #b0b0b0; stroke-width: 0.8; stroke-linecap: square"/>
     </g>
     <g id="line2d_50">
      <g>
       <use xlink:href="#m51379a9b53" x="470.522599" y="513.019557" style="stroke: #000000; stroke-width: 0.8"/>
      </g>
     </g>
     <g id="text_12">
      <!-- $\mathdefault{520}$ -->
      <g transform="translate(454.074027 536.623963) scale(0.24 -0.24)">
       <use xlink:href="#CMR17-35" transform="scale(0.996264)"/>
       <use xlink:href="#CMR17-32" transform="translate(45.690477 0) scale(0.996264)"/>
       <use xlink:href="#CMR17-30" transform="translate(91.380954 0) scale(0.996264)"/>
      </g>
     </g>
    </g>
    <g id="xtick_14">
     <g id="line2d_51">
      <path d="M 590.71376 513.019557 
L 590.71376 397.382618 
" clip-path="url(#p03e587fe7f)" style="fill: none; stroke: #b0b0b0; stroke-width: 0.8; stroke-linecap: square"/>
     </g>
     <g id="line2d_52">
      <g>
       <use xlink:href="#m51379a9b53" x="590.71376" y="513.019557" style="stroke: #000000; stroke-width: 0.8"/>
      </g>
     </g>
     <g id="text_13">
      <!-- $\mathdefault{540}$ -->
      <g transform="translate(574.265188 536.623963) scale(0.24 -0.24)">
       <use xlink:href="#CMR17-35" transform="scale(0.996264)"/>
       <use xlink:href="#CMR17-34" transform="translate(45.690477 0) scale(0.996264)"/>
       <use xlink:href="#CMR17-30" transform="translate(91.380954 0) scale(0.996264)"/>
      </g>
     </g>
    </g>
    <g id="xtick_15">
     <g id="line2d_53">
      <path d="M 710.904921 513.019557 
L 710.904921 397.382618 
" clip-path="url(#p03e587fe7f)" style="fill: none; stroke: #b0b0b0; stroke-width: 0.8; stroke-linecap: square"/>
     </g>
     <g id="line2d_54">
      <g>
       <use xlink:href="#m51379a9b53" x="710.904921" y="513.019557" style="stroke: #000000; stroke-width: 0.8"/>
      </g>
     </g>
     <g id="text_14">
      <!-- $\mathdefault{560}$ -->
      <g transform="translate(694.456349 536.623963) scale(0.24 -0.24)">
       <use xlink:href="#CMR17-35" transform="scale(0.996264)"/>
       <use xlink:href="#CMR17-36" transform="translate(45.690477 0) scale(0.996264)"/>
       <use xlink:href="#CMR17-30" transform="translate(91.380954 0) scale(0.996264)"/>
      </g>
     </g>
    </g>
    <g id="xtick_16">
     <g id="line2d_55">
      <path d="M 831.096082 513.019557 
L 831.096082 397.382618 
" clip-path="url(#p03e587fe7f)" style="fill: none; stroke: #b0b0b0; stroke-width: 0.8; stroke-linecap: square"/>
     </g>
     <g id="line2d_56">
      <g>
       <use xlink:href="#m51379a9b53" x="831.096082" y="513.019557" style="stroke: #000000; stroke-width: 0.8"/>
      </g>
     </g>
     <g id="text_15">
      <!-- $\mathdefault{580}$ -->
      <g transform="translate(814.64751 536.623963) scale(0.24 -0.24)">
       <use xlink:href="#CMR17-35" transform="scale(0.996264)"/>
       <use xlink:href="#CMR17-38" transform="translate(45.690477 0) scale(0.996264)"/>
       <use xlink:href="#CMR17-30" transform="translate(91.380954 0) scale(0.996264)"/>
      </g>
     </g>
    </g>
    <g id="xtick_17">
     <g id="line2d_57">
      <path d="M 951.287243 513.019557 
L 951.287243 397.382618 
" clip-path="url(#p03e587fe7f)" style="fill: none; stroke: #b0b0b0; stroke-width: 0.8; stroke-linecap: square"/>
     </g>
     <g id="line2d_58">
      <g>
       <use xlink:href="#m51379a9b53" x="951.287243" y="513.019557" style="stroke: #000000; stroke-width: 0.8"/>
      </g>
     </g>
     <g id="text_16">
      <!-- $\mathdefault{600}$ -->
      <g transform="translate(934.838671 536.623963) scale(0.24 -0.24)">
       <use xlink:href="#CMR17-36" transform="scale(0.996264)"/>
       <use xlink:href="#CMR17-30" transform="translate(45.690477 0) scale(0.996264)"/>
       <use xlink:href="#CMR17-30" transform="translate(91.380954 0) scale(0.996264)"/>
      </g>
     </g>
    </g>
    <g id="xtick_18">
     <g id="line2d_59">
      <path d="M 1071.478404 513.019557 
L 1071.478404 397.382618 
" clip-path="url(#p03e587fe7f)" style="fill: none; stroke: #b0b0b0; stroke-width: 0.8; stroke-linecap: square"/>
     </g>
     <g id="line2d_60">
      <g>
       <use xlink:href="#m51379a9b53" x="1071.478404" y="513.019557" style="stroke: #000000; stroke-width: 0.8"/>
      </g>
     </g>
     <g id="text_17">
      <!-- $\mathdefault{620}$ -->
      <g transform="translate(1055.029832 536.623963) scale(0.24 -0.24)">
       <use xlink:href="#CMR17-36" transform="scale(0.996264)"/>
       <use xlink:href="#CMR17-32" transform="translate(45.690477 0) scale(0.996264)"/>
       <use xlink:href="#CMR17-30" transform="translate(91.380954 0) scale(0.996264)"/>
      </g>
     </g>
    </g>
    <g id="text_18">
     <!-- \textbf{Transition Frequency / MHz} -->
     <g transform="translate(463.252898 560.21868) scale(0.2 -0.2)">
      <defs>
       <path id="CMBX12-54" d="M 4608 4305 
L 390 4305 
L 262 2797 
L 531 2797 
C 589 3491 640 4032 1562 4032 
L 2080 4032 
L 2080 267 
L 1114 267 
L 1114 0 
C 1626 0 2285 0 2502 0 
C 2893 0 3379 0 3891 0 
L 3891 267 
L 2925 267 
L 2925 4032 
L 3437 4032 
C 4358 4032 4410 3497 4467 2797 
L 4736 2797 
L 4608 4305 
z
" transform="scale(0.015625)"/>
       <path id="CMBX12-46" d="M 4032 4306 
L 243 4306 
L 243 4032 
L 922 4032 
L 922 267 
L 243 267 
L 243 0 
C 429 0 1158 0 1395 0 
C 1734 0 2304 0 2618 0 
L 2618 267 
L 1766 267 
L 1766 2030 
L 2118 2030 
C 2733 2030 2784 1748 2784 1280 
L 3053 1280 
L 3053 3042 
L 2784 3042 
C 2784 2581 2733 2304 2118 2304 
L 1766 2304 
L 1766 4032 
L 2682 4032 
C 3699 4032 3859 3576 3949 2821 
L 4218 2821 
L 4032 4306 
z
" transform="scale(0.015625)"/>
       <path id="CMBX12-71" d="M 3328 2853 
L 3091 2853 
L 2752 2327 
C 2528 2651 2214 2853 1792 2853 
C 909 2853 243 2309 243 1410 
C 243 505 883 -32 1728 -32 
C 1971 -32 2298 19 2630 330 
L 2630 -955 
L 2189 -955 
L 2189 -1228 
C 2336 -1216 2797 -1216 2976 -1216 
C 3155 -1216 3622 -1216 3770 -1228 
L 3770 -955 
L 3328 -955 
L 3328 2853 
z
M 2662 759 
C 2394 259 2016 178 1805 178 
C 1395 178 1011 551 1011 1404 
C 1011 2327 1498 2624 1875 2624 
C 2374 2624 2662 2112 2662 1821 
L 2662 759 
z
" transform="scale(0.015625)"/>
       <path id="CMBX12-75" d="M 2259 2859 
L 2259 2560 
C 2656 2560 2701 2560 2701 2312 
L 2701 1056 
C 2701 569 2413 178 1914 178 
C 1434 178 1408 337 1408 684 
L 1408 2859 
L 269 2859 
L 269 2560 
C 666 2560 710 2560 710 2312 
L 710 794 
C 710 153 1139 -32 1824 -32 
C 1978 -32 2451 -32 2726 496 
L 2733 496 
L 2733 0 
L 3840 0 
L 3840 292 
C 3443 292 3398 292 3398 540 
L 3398 2859 
L 2259 2859 
z
" transform="scale(0.015625)"/>
       <path id="CMBX12-79" d="M 3168 2421 
C 3206 2509 3232 2560 3642 2560 
L 3642 2827 
C 3424 2827 3398 2827 3136 2827 
C 2963 2827 2950 2827 2586 2827 
L 2586 2560 
C 2592 2560 2893 2560 2893 2478 
C 2893 2459 2874 2421 2867 2402 
L 2118 805 
L 1299 2560 
L 1651 2560 
L 1651 2833 
C 1498 2827 1062 2827 883 2827 
C 698 2827 320 2827 154 2833 
L 154 2560 
L 563 2560 
L 1747 20 
C 1715 -56 1626 -240 1594 -316 
C 1459 -601 1254 -1038 806 -1038 
C 781 -1038 704 -1038 634 -1000 
C 646 -993 838 -917 838 -676 
C 838 -468 685 -335 493 -335 
C 294 -335 141 -469 141 -684 
C 141 -982 422 -1248 806 -1248 
C 1331 -1248 1677 -779 1805 -500 
L 3168 2421 
z
" transform="scale(0.015625)"/>
       <path id="CMBX12-2f" d="M 3162 4475 
C 3194 4551 3194 4577 3194 4590 
C 3194 4704 3104 4768 3021 4768 
C 2899 4768 2874 4691 2835 4602 
L 429 -1307 
C 397 -1383 397 -1409 397 -1421 
C 397 -1536 486 -1600 570 -1600 
C 691 -1600 717 -1530 755 -1434 
L 3162 4475 
z
" transform="scale(0.015625)"/>
       <path id="CMBX12-4d" d="M 3411 797 
L 1875 4218 
C 1818 4352 1760 4352 1626 4352 
L 262 4352 
L 262 4078 
L 941 4078 
L 941 444 
C 941 304 934 298 768 272 
C 653 260 525 260 410 260 
L 262 260 
L 262 -13 
C 410 0 909 0 1088 0 
C 1267 0 1773 0 1920 -13 
L 1920 260 
L 1773 260 
C 1600 260 1587 260 1434 279 
C 1248 305 1242 311 1242 451 
L 1242 4002 
L 1248 4002 
L 2989 134 
C 3021 64 3059 0 3168 0 
C 3277 0 3315 64 3347 134 
L 5120 4078 
L 5126 4078 
L 5126 260 
L 4448 260 
L 4448 -13 
C 4621 0 5286 0 5504 0 
C 5722 0 6387 0 6560 -13 
L 6560 260 
L 5882 260 
L 5882 4078 
L 6560 4078 
L 6560 4352 
L 5197 4352 
C 5062 4352 5005 4352 4947 4218 
L 3411 797 
z
" transform="scale(0.015625)"/>
       <path id="CMBX12-48" d="M 4704 4085 
L 5382 4085 
L 5382 4352 
C 5197 4352 4512 4352 4282 4352 
C 4051 4352 3366 4352 3181 4352 
L 3181 4085 
L 3859 4085 
L 3859 2385 
L 1766 2385 
L 1766 4085 
L 2445 4085 
L 2445 4352 
C 2259 4352 1574 4352 1344 4352 
C 1114 4352 429 4352 243 4352 
L 243 4085 
L 922 4085 
L 922 267 
L 243 267 
L 243 0 
C 429 0 1114 0 1344 0 
C 1574 0 2259 0 2445 0 
L 2445 267 
L 1766 267 
L 1766 2112 
L 3859 2112 
L 3859 267 
L 3181 267 
L 3181 0 
C 3366 0 4051 0 4282 0 
C 4512 0 5197 0 5382 0 
L 5382 267 
L 4704 267 
L 4704 4085 
z
" transform="scale(0.015625)"/>
       <path id="CMBX12-7a" d="M 2816 2575 
C 2874 2644 2874 2657 2874 2695 
C 2874 2816 2810 2816 2688 2816 
L 371 2816 
L 301 1725 
L 570 1725 
C 608 2327 749 2606 1459 2606 
L 2035 2606 
L 256 253 
C 198 184 198 172 198 127 
C 198 0 256 0 384 0 
L 2784 0 
L 2893 1256 
L 2624 1256 
C 2573 584 2432 229 1626 229 
L 1043 229 
L 2816 2575 
z
" transform="scale(0.015625)"/>
      </defs>
      <use xlink:href="#CMBX12-54" transform="scale(0.996264)"/>
      <use xlink:href="#CMBX12-72" transform="translate(68.608395 0) scale(0.996264)"/>
      <use xlink:href="#CMBX12-61" transform="translate(114.385903 0) scale(0.996264)"/>
      <use xlink:href="#CMBX12-6e" transform="translate(168.869091 0) scale(0.996264)"/>
      <use xlink:href="#CMBX12-73" transform="translate(231.135591 0) scale(0.996264)"/>
      <use xlink:href="#CMBX12-69" transform="translate(275.344928 0) scale(0.996264)"/>
      <use xlink:href="#CMBX12-74" transform="translate(306.478179 0) scale(0.996264)"/>
      <use xlink:href="#CMBX12-69" transform="translate(350.064729 0) scale(0.996264)"/>
      <use xlink:href="#CMBX12-6f" transform="translate(381.19798 0) scale(0.996264)"/>
      <use xlink:href="#CMBX12-6e" transform="translate(437.23783 0) scale(0.996264)"/>
      <use xlink:href="#CMBX12-46" transform="translate(536.864231 0) scale(0.996264)"/>
      <use xlink:href="#CMBX12-72" transform="translate(597.977676 0) scale(0.996264)"/>
      <use xlink:href="#CMBX12-65" transform="translate(643.755184 0) scale(0.996264)"/>
      <use xlink:href="#CMBX12-71" transform="translate(694.894451 0) scale(0.996264)"/>
      <use xlink:href="#CMBX12-75" transform="translate(754.047627 0) scale(0.996264)"/>
      <use xlink:href="#CMBX12-65" transform="translate(816.314127 0) scale(0.996264)"/>
      <use xlink:href="#CMBX12-6e" transform="translate(867.453394 0) scale(0.996264)"/>
      <use xlink:href="#CMBX12-63" transform="translate(929.719895 0) scale(0.996264)"/>
      <use xlink:href="#CMBX12-79" transform="translate(979.533095 0) scale(0.996264)"/>
      <use xlink:href="#CMBX12-2f" transform="translate(1076.046171 0) scale(0.996264)"/>
      <use xlink:href="#CMBX12-4d" transform="translate(1169.445922 0) scale(0.996264)"/>
      <use xlink:href="#CMBX12-48" transform="translate(1275.760348 0) scale(0.996264)"/>
      <use xlink:href="#CMBX12-7a" transform="translate(1363.394823 0) scale(0.996264)"/>
     </g>
    </g>
   </g>
   <g id="matplotlib.axis_4">
    <g id="ytick_7">
     <g id="line2d_61">
      <path d="M 67.947382 508.10496 
L 1141.2 508.10496 
" clip-path="url(#p03e587fe7f)" style="fill: none; stroke: #b0b0b0; stroke-width: 0.8; stroke-linecap: square"/>
     </g>
     <g id="line2d_62">
      <g>
       <use xlink:href="#mdeabfbb20d" x="67.947382" y="508.10496" style="stroke: #000000; stroke-width: 0.8"/>
      </g>
     </g>
     <g id="text_19">
      <!-- $\mathdefault{0.0}$ -->
      <g transform="translate(32.51263 516.407162) scale(0.24 -0.24)">
       <use xlink:href="#CMR17-30" transform="scale(0.996264)"/>
       <use xlink:href="#CMMI12-3a" transform="translate(45.690477 0) scale(0.996264)"/>
       <use xlink:href="#CMR17-30" transform="translate(72.787654 0) scale(0.996264)"/>
      </g>
     </g>
    </g>
    <g id="ytick_8">
     <g id="line2d_63">
      <path d="M 67.947382 441.470172 
L 1141.2 441.470172 
" clip-path="url(#p03e587fe7f)" style="fill: none; stroke: #b0b0b0; stroke-width: 0.8; stroke-linecap: square"/>
     </g>
     <g id="line2d_64">
      <g>
       <use xlink:href="#mdeabfbb20d" x="67.947382" y="441.470172" style="stroke: #000000; stroke-width: 0.8"/>
      </g>
     </g>
     <g id="text_20">
      <!-- $\mathdefault{2.5}$ -->
      <g transform="translate(32.51263 449.772375) scale(0.24 -0.24)">
       <use xlink:href="#CMR17-32" transform="scale(0.996264)"/>
       <use xlink:href="#CMMI12-3a" transform="translate(45.690477 0) scale(0.996264)"/>
       <use xlink:href="#CMR17-35" transform="translate(72.787654 0) scale(0.996264)"/>
      </g>
     </g>
    </g>
    <g id="text_21">
     <!-- \textbf{Percent Error} -->
     <g transform="translate(24.636997 523.037027) rotate(-90) scale(0.2 -0.2)">
      <defs>
       <path id="CMBX12-50" d="M 1766 1934 
L 2854 1934 
C 3923 1934 4518 2474 4518 3128 
C 4518 3812 3910 4352 2854 4352 
L 243 4352 
L 243 4078 
L 922 4078 
L 922 267 
L 243 267 
L 243 0 
C 429 0 1114 0 1344 0 
C 1574 0 2259 0 2445 0 
L 2445 267 
L 1766 267 
L 1766 1934 
z
M 2624 4078 
C 3616 4078 3616 3558 3616 3127 
C 3616 2709 3616 2176 2624 2176 
L 1734 2176 
L 1734 4078 
L 2624 4078 
z
" transform="scale(0.015625)"/>
       <path id="CMBX12-45" d="M 4518 1722 
L 4250 1722 
C 4115 771 3878 273 2765 273 
L 1766 273 
L 1766 2112 
L 2144 2112 
C 2758 2112 2822 1853 2822 1375 
L 3091 1375 
L 3091 3136 
L 2822 3136 
C 2822 2655 2758 2385 2144 2385 
L 1766 2385 
L 1766 4078 
L 2765 4078 
C 3744 4078 3955 3659 4051 2828 
L 4320 2828 
L 4134 4352 
L 243 4352 
L 243 4078 
L 922 4078 
L 922 273 
L 243 273 
L 243 0 
L 4243 0 
L 4518 1722 
z
" transform="scale(0.015625)"/>
      </defs>
      <use xlink:href="#CMBX12-50" transform="scale(0.996264)"/>
      <use xlink:href="#CMBX12-65" transform="translate(73.451486 0) scale(0.996264)"/>
      <use xlink:href="#CMBX12-72" transform="translate(124.590753 0) scale(0.996264)"/>
      <use xlink:href="#CMBX12-63" transform="translate(170.36826 0) scale(0.996264)"/>
      <use xlink:href="#CMBX12-65" transform="translate(220.181461 0) scale(0.996264)"/>
      <use xlink:href="#CMBX12-6e" transform="translate(271.320728 0) scale(0.996264)"/>
      <use xlink:href="#CMBX12-74" transform="translate(330.473903 0) scale(0.996264)"/>
      <use xlink:href="#CMBX12-45" transform="translate(411.420354 0) scale(0.996264)"/>
      <use xlink:href="#CMBX12-72" transform="translate(484.9871 0) scale(0.996264)"/>
      <use xlink:href="#CMBX12-72" transform="translate(530.764607 0) scale(0.996264)"/>
      <use xlink:href="#CMBX12-6f" transform="translate(576.542114 0) scale(0.996264)"/>
      <use xlink:href="#CMBX12-72" transform="translate(632.581965 0) scale(0.996264)"/>
     </g>
    </g>
   </g>
   <g id="patch_8">
    <path d="M 67.947382 513.019557 
L 67.947382 397.382618 
" style="fill: none; stroke: #000000; stroke-width: 0.8; stroke-linejoin: miter; stroke-linecap: square"/>
   </g>
   <g id="patch_9">
    <path d="M 1141.2 513.019557 
L 1141.2 397.382618 
" style="fill: none; stroke: #000000; stroke-width: 0.8; stroke-linejoin: miter; stroke-linecap: square"/>
   </g>
   <g id="patch_10">
    <path d="M 67.947382 513.019557 
L 1141.2 513.019557 
" style="fill: none; stroke: #000000; stroke-width: 0.8; stroke-linejoin: miter; stroke-linecap: square"/>
   </g>
   <g id="patch_11">
    <path d="M 67.947382 397.382618 
L 1141.2 397.382618 
" style="fill: none; stroke: #000000; stroke-width: 0.8; stroke-linejoin: miter; stroke-linecap: square"/>
   </g>
  </g>
 </g>
 <defs>
  <clipPath id="p4ec734b561">
   <rect x="67.947382" y="36.171799" width="1073.252618" height="346.910819"/>
  </clipPath>
  <clipPath id="p03e587fe7f">
   <rect x="67.947382" y="397.382618" width="1073.252618" height="115.63694"/>
  </clipPath>
 </defs>
</svg>
