<?xml version="1.0" encoding="utf-8" standalone="no"?>
<!DOCTYPE svg PUBLIC "-//W3C//DTD SVG 1.1//EN"
  "http://www.w3.org/Graphics/SVG/1.1/DTD/svg11.dtd">
<svg xmlns:xlink="http://www.w3.org/1999/xlink" width="460.8pt" height="345.6pt" viewBox="0 0 460.8 345.6" xmlns="http://www.w3.org/2000/svg" version="1.1">
 <metadata>
  <rdf:RDF xmlns:dc="http://purl.org/dc/elements/1.1/" xmlns:cc="http://creativecommons.org/ns#" xmlns:rdf="http://www.w3.org/1999/02/22-rdf-syntax-ns#">
   <cc:Work>
    <dc:type rdf:resource="http://purl.org/dc/dcmitype/StillImage"/>
    <dc:date>2025-07-06T02:33:21.827318</dc:date>
    <dc:format>image/svg+xml</dc:format>
    <dc:creator>
     <cc:Agent>
      <dc:title>Matplotlib v3.10.1, https://matplotlib.org/</dc:title>
     </cc:Agent>
    </dc:creator>
   </cc:Work>
  </rdf:RDF>
 </metadata>
 <defs>
  <style type="text/css">*{stroke-linejoin: round; stroke-linecap: butt}</style>
 </defs>
 <g id="figure_1">
  <g id="patch_1">
   <path d="M 0 345.6 
L 460.8 345.6 
L 460.8 0 
L 0 0 
z
" style="fill: #ffffff"/>
  </g>
  <g id="axes_1">
   <g id="patch_2">
    <path d="M 57.6 307.584 
L 414.72 307.584 
L 414.72 41.472 
L 57.6 41.472 
z
" style="fill: #ffffff"/>
   </g>
   <g id="matplotlib.axis_1">
    <g id="xtick_1">
     <g id="line2d_1">
      <path d="M 132.278713 307.584 
L 132.278713 41.472 
" clip-path="url(#p986ad3ae5e)" style="fill: none; stroke: #b0b0b0; stroke-opacity: 0.8; stroke-width: 0.8; stroke-linecap: square"/>
     </g>
     <g id="line2d_2">
      <defs>
       <path id="m5419493847" d="M 0 0 
L 0 3.5 
" style="stroke: #000000; stroke-width: 0.8"/>
      </defs>
      <g>
       <use xlink:href="#m5419493847" x="132.278713" y="307.584" style="stroke: #000000; stroke-width: 0.8"/>
      </g>
     </g>
     <g id="text_1">
      <!-- $\mathdefault{−500}$ -->
      <g transform="translate(110.822826 328.420997) scale(0.2 -0.2)">
       <defs>
        <path id="CMSY10-0" d="M 4218 1472 
C 4326 1472 4442 1472 4442 1600 
C 4442 1728 4326 1728 4218 1728 
L 755 1728 
C 646 1728 531 1728 531 1600 
C 531 1472 646 1472 755 1472 
L 4218 1472 
z
" transform="scale(0.015625)"/>
        <path id="CMR17-35" d="M 730 3692 
C 794 3666 1056 3584 1325 3584 
C 1920 3584 2246 3911 2432 4100 
C 2432 4157 2432 4192 2394 4192 
C 2387 4192 2374 4192 2323 4163 
C 2099 4058 1837 3973 1517 3973 
C 1325 3973 1037 3999 723 4139 
C 653 4171 640 4171 634 4171 
C 602 4171 595 4164 595 4037 
L 595 2203 
C 595 2089 595 2057 659 2057 
C 691 2057 704 2070 736 2114 
C 941 2401 1222 2522 1542 2522 
C 1766 2522 2246 2382 2246 1289 
C 2246 1085 2246 715 2054 421 
C 1894 159 1645 25 1370 25 
C 947 25 518 320 403 814 
C 429 807 480 795 506 795 
C 589 795 749 840 749 1038 
C 749 1210 627 1280 506 1280 
C 358 1280 262 1190 262 1011 
C 262 454 704 -128 1382 -128 
C 2042 -128 2669 440 2669 1264 
C 2669 2030 2170 2624 1549 2624 
C 1222 2624 947 2503 730 2274 
L 730 3692 
z
" transform="scale(0.015625)"/>
        <path id="CMR17-30" d="M 2688 2025 
C 2688 2416 2682 3080 2413 3591 
C 2176 4039 1798 4198 1466 4198 
C 1158 4198 768 4058 525 3597 
C 269 3118 243 2524 243 2025 
C 243 1661 250 1106 448 619 
C 723 -39 1216 -128 1466 -128 
C 1760 -128 2208 -7 2470 600 
C 2662 1042 2688 1559 2688 2025 
z
M 1466 -26 
C 1056 -26 813 325 723 812 
C 653 1188 653 1738 653 2096 
C 653 2588 653 2997 736 3387 
C 858 3929 1216 4096 1466 4096 
C 1728 4096 2067 3923 2189 3400 
C 2272 3036 2278 2607 2278 2096 
C 2278 1680 2278 1169 2202 792 
C 2067 95 1690 -26 1466 -26 
z
" transform="scale(0.015625)"/>
       </defs>
       <use xlink:href="#CMSY10-0" transform="scale(0.996264)"/>
       <use xlink:href="#CMR17-35" transform="translate(77.487468 0) scale(0.996264)"/>
       <use xlink:href="#CMR17-30" transform="translate(123.177945 0) scale(0.996264)"/>
       <use xlink:href="#CMR17-30" transform="translate(168.868422 0) scale(0.996264)"/>
      </g>
     </g>
    </g>
    <g id="xtick_2">
     <g id="line2d_3">
      <path d="M 226.013646 307.584 
L 226.013646 41.472 
" clip-path="url(#p986ad3ae5e)" style="fill: none; stroke: #b0b0b0; stroke-opacity: 0.8; stroke-width: 0.8; stroke-linecap: square"/>
     </g>
     <g id="line2d_4">
      <g>
       <use xlink:href="#m5419493847" x="226.013646" y="307.584" style="stroke: #000000; stroke-width: 0.8"/>
      </g>
     </g>
     <g id="text_2">
      <!-- $\mathdefault{0}$ -->
      <g transform="translate(221.444598 328.420997) scale(0.2 -0.2)">
       <use xlink:href="#CMR17-30" transform="scale(0.996264)"/>
      </g>
     </g>
    </g>
    <g id="xtick_3">
     <g id="line2d_5">
      <path d="M 319.748578 307.584 
L 319.748578 41.472 
" clip-path="url(#p986ad3ae5e)" style="fill: none; stroke: #b0b0b0; stroke-opacity: 0.8; stroke-width: 0.8; stroke-linecap: square"/>
     </g>
     <g id="line2d_6">
      <g>
       <use xlink:href="#m5419493847" x="319.748578" y="307.584" style="stroke: #000000; stroke-width: 0.8"/>
      </g>
     </g>
     <g id="text_3">
      <!-- $\mathdefault{500}$ -->
      <g transform="translate(306.041435 328.420997) scale(0.2 -0.2)">
       <use xlink:href="#CMR17-35" transform="scale(0.996264)"/>
       <use xlink:href="#CMR17-30" transform="translate(45.690477 0) scale(0.996264)"/>
       <use xlink:href="#CMR17-30" transform="translate(91.380954 0) scale(0.996264)"/>
      </g>
     </g>
    </g>
    <g id="xtick_4">
     <g id="line2d_7">
      <path d="M 413.483511 307.584 
L 413.483511 41.472 
" clip-path="url(#p986ad3ae5e)" style="fill: none; stroke: #b0b0b0; stroke-opacity: 0.8; stroke-width: 0.8; stroke-linecap: square"/>
     </g>
     <g id="line2d_8">
      <g>
       <use xlink:href="#m5419493847" x="413.483511" y="307.584" style="stroke: #000000; stroke-width: 0.8"/>
      </g>
     </g>
     <g id="text_4">
      <!-- $\mathdefault{1000}$ -->
      <g transform="translate(395.20732 328.420997) scale(0.2 -0.2)">
       <defs>
        <path id="CMR17-31" d="M 1702 4058 
C 1702 4192 1696 4192 1606 4192 
C 1357 3916 979 3827 621 3827 
C 602 3827 570 3827 563 3808 
C 557 3795 557 3782 557 3648 
C 755 3648 1088 3686 1344 3839 
L 1344 461 
C 1344 236 1331 160 781 160 
L 589 160 
L 589 0 
C 896 0 1216 0 1523 0 
C 1830 0 2150 0 2458 0 
L 2458 160 
L 2266 160 
C 1715 160 1702 230 1702 458 
L 1702 4058 
z
" transform="scale(0.015625)"/>
       </defs>
       <use xlink:href="#CMR17-31" transform="scale(0.996264)"/>
       <use xlink:href="#CMR17-30" transform="translate(45.690477 0) scale(0.996264)"/>
       <use xlink:href="#CMR17-30" transform="translate(91.380954 0) scale(0.996264)"/>
       <use xlink:href="#CMR17-30" transform="translate(137.071431 0) scale(0.996264)"/>
      </g>
     </g>
    </g>
    <g id="text_5">
     <!-- \textbf{Frequency Deviation (Hz)} -->
     <g transform="translate(108.559766 351.240591) scale(0.2 -0.2)">
      <defs>
       <path id="CMBX12-46" d="M 4032 4306 
L 243 4306 
L 243 4032 
L 922 4032 
L 922 267 
L 243 267 
L 243 0 
C 429 0 1158 0 1395 0 
C 1734 0 2304 0 2618 0 
L 2618 267 
L 1766 267 
L 1766 2030 
L 2118 2030 
C 2733 2030 2784 1748 2784 1280 
L 3053 1280 
L 3053 3042 
L 2784 3042 
C 2784 2581 2733 2304 2118 2304 
L 1766 2304 
L 1766 4032 
L 2682 4032 
C 3699 4032 3859 3576 3949 2821 
L 4218 2821 
L 4032 4306 
z
" transform="scale(0.015625)"/>
       <path id="CMBX12-72" d="M 1331 1411 
C 1331 1619 1376 2624 2125 2624 
C 2035 2555 1990 2448 1990 2336 
C 1990 2079 2202 1972 2362 1972 
C 2522 1972 2733 2079 2733 2337 
C 2733 2658 2400 2834 2093 2834 
C 1587 2834 1370 2401 1280 2137 
L 1274 2137 
L 1274 2816 
L 224 2816 
L 224 2517 
C 621 2517 666 2517 666 2270 
L 666 260 
L 224 260 
L 224 -13 
C 371 0 851 0 1030 0 
C 1216 0 1734 0 1888 -13 
L 1888 260 
L 1331 260 
L 1331 1411 
z
" transform="scale(0.015625)"/>
       <path id="CMBX12-65" d="M 2893 1408 
C 3040 1408 3078 1408 3078 1567 
C 3078 1758 3034 2233 2739 2532 
C 2470 2798 2112 2880 1741 2880 
C 742 2880 198 2233 198 1434 
C 198 545 858 -32 1824 -32 
C 2790 -32 3078 640 3078 748 
C 3078 843 2982 843 2944 843 
C 2842 843 2835 824 2797 742 
C 2630 330 2208 197 1901 197 
C 973 197 966 1053 966 1408 
L 2893 1408 
z
M 966 1593 
C 979 1852 986 2100 1120 2328 
C 1242 2531 1466 2670 1741 2670 
C 2426 2670 2483 1909 2490 1593 
L 966 1593 
z
" transform="scale(0.015625)"/>
       <path id="CMBX12-71" d="M 3328 2853 
L 3091 2853 
L 2752 2327 
C 2528 2651 2214 2853 1792 2853 
C 909 2853 243 2309 243 1410 
C 243 505 883 -32 1728 -32 
C 1971 -32 2298 19 2630 330 
L 2630 -955 
L 2189 -955 
L 2189 -1228 
C 2336 -1216 2797 -1216 2976 -1216 
C 3155 -1216 3622 -1216 3770 -1228 
L 3770 -955 
L 3328 -955 
L 3328 2853 
z
M 2662 759 
C 2394 259 2016 178 1805 178 
C 1395 178 1011 551 1011 1404 
C 1011 2327 1498 2624 1875 2624 
C 2374 2624 2662 2112 2662 1821 
L 2662 759 
z
" transform="scale(0.015625)"/>
       <path id="CMBX12-75" d="M 2259 2859 
L 2259 2560 
C 2656 2560 2701 2560 2701 2312 
L 2701 1056 
C 2701 569 2413 178 1914 178 
C 1434 178 1408 337 1408 684 
L 1408 2859 
L 269 2859 
L 269 2560 
C 666 2560 710 2560 710 2312 
L 710 794 
C 710 153 1139 -32 1824 -32 
C 1978 -32 2451 -32 2726 496 
L 2733 496 
L 2733 0 
L 3840 0 
L 3840 292 
C 3443 292 3398 292 3398 540 
L 3398 2859 
L 2259 2859 
z
" transform="scale(0.015625)"/>
       <path id="CMBX12-6e" d="M 3398 1924 
C 3398 2525 3136 2834 2432 2834 
C 1971 2834 1574 2615 1357 2143 
L 1350 2143 
L 1350 2816 
L 269 2816 
L 269 2517 
C 666 2517 710 2517 710 2270 
L 710 260 
L 269 260 
L 269 -13 
C 416 0 877 0 1056 0 
C 1235 0 1702 0 1850 -13 
L 1850 260 
L 1408 260 
L 1408 1607 
C 1408 2289 1920 2624 2330 2624 
C 2566 2624 2701 2473 2701 1993 
L 2701 260 
L 2259 260 
L 2259 -13 
C 2406 0 2867 0 3046 0 
C 3226 0 3693 0 3840 -13 
L 3840 260 
L 3398 260 
L 3398 1924 
z
" transform="scale(0.015625)"/>
       <path id="CMBX12-63" d="M 2995 753 
C 2995 829 2925 829 2861 829 
C 2758 829 2752 823 2720 747 
C 2675 625 2502 197 1914 197 
C 1011 197 1011 1166 1011 1453 
C 1011 1829 1018 2664 1856 2664 
C 1901 2664 2278 2664 2278 2632 
C 2278 2624 2272 2618 2259 2612 
C 2240 2593 2157 2496 2157 2334 
C 2157 2064 2374 1954 2534 1954 
C 2669 1954 2912 2039 2912 2346 
C 2912 2880 2176 2880 1830 2880 
C 691 2880 243 2145 243 1414 
C 243 552 851 -32 1792 -32 
C 2797 -32 2995 708 2995 753 
z
" transform="scale(0.015625)"/>
       <path id="CMBX12-79" d="M 3168 2421 
C 3206 2509 3232 2560 3642 2560 
L 3642 2827 
C 3424 2827 3398 2827 3136 2827 
C 2963 2827 2950 2827 2586 2827 
L 2586 2560 
C 2592 2560 2893 2560 2893 2478 
C 2893 2459 2874 2421 2867 2402 
L 2118 805 
L 1299 2560 
L 1651 2560 
L 1651 2833 
C 1498 2827 1062 2827 883 2827 
C 698 2827 320 2827 154 2833 
L 154 2560 
L 563 2560 
L 1747 20 
C 1715 -56 1626 -240 1594 -316 
C 1459 -601 1254 -1038 806 -1038 
C 781 -1038 704 -1038 634 -1000 
C 646 -993 838 -917 838 -676 
C 838 -468 685 -335 493 -335 
C 294 -335 141 -469 141 -684 
C 141 -982 422 -1248 806 -1248 
C 1331 -1248 1677 -779 1805 -500 
L 3168 2421 
z
" transform="scale(0.015625)"/>
       <path id="CMBX12-44" d="M 243 4370 
L 243 4096 
L 922 4096 
L 922 273 
L 243 273 
L 243 0 
L 2938 0 
C 4166 0 5114 783 5114 2147 
C 5114 3587 4141 4370 2938 4370 
L 243 4370 
z
M 1734 273 
L 1734 4096 
L 2694 4096 
C 3251 4096 3699 3880 3936 3548 
C 4122 3287 4243 2975 4243 2153 
C 4243 1407 4147 1077 3923 777 
C 3699 483 3270 273 2694 273 
L 1734 273 
z
" transform="scale(0.015625)"/>
       <path id="CMBX12-76" d="M 3168 2402 
C 3213 2498 3238 2549 3642 2549 
L 3642 2816 
C 3411 2816 3398 2816 3136 2816 
C 2963 2816 2950 2816 2586 2816 
L 2586 2549 
C 2758 2549 2899 2517 2899 2472 
C 2899 2466 2899 2460 2867 2396 
L 2118 763 
L 1293 2549 
L 1645 2549 
L 1645 2822 
C 1498 2816 1050 2816 877 2816 
C 691 2816 320 2816 154 2822 
L 154 2549 
L 557 2549 
L 1683 121 
C 1741 0 1754 -32 1901 -32 
C 2003 -32 2054 -19 2112 108 
L 3168 2402 
z
" transform="scale(0.015625)"/>
       <path id="CMBX12-69" d="M 1427 3958 
C 1427 4219 1216 4416 966 4416 
C 704 4416 506 4200 506 3958 
C 506 3716 704 3500 966 3500 
C 1216 3500 1427 3697 1427 3958 
z
M 301 2816 
L 301 2517 
C 678 2517 723 2517 723 2270 
L 723 260 
L 282 260 
L 282 -13 
C 429 0 870 0 1043 0 
C 1222 0 1632 0 1786 -13 
L 1786 260 
L 1389 260 
L 1389 2816 
L 301 2816 
z
" transform="scale(0.015625)"/>
       <path id="CMBX12-61" d="M 2944 1898 
C 2944 2484 2477 2879 1574 2879 
C 1216 2879 461 2879 461 2334 
C 461 2061 666 1945 838 1945 
C 1030 1945 1216 2079 1216 2323 
C 1216 2445 1171 2559 1062 2630 
C 1274 2688 1427 2688 1549 2688 
C 1984 2688 2246 2445 2246 1919 
L 2246 1663 
C 1235 1663 218 1382 218 676 
C 218 95 960 -32 1402 -32 
C 1894 -32 2208 233 2336 510 
C 2336 274 2336 0 2982 0 
L 3309 0 
C 3443 0 3494 0 3494 145 
C 3494 273 3437 273 3347 273 
C 2944 273 2944 374 2944 522 
L 2944 1898 
z
M 2246 882 
C 2246 291 1709 178 1504 178 
C 1190 178 928 390 928 686 
C 928 1273 1619 1472 2246 1472 
L 2246 882 
z
" transform="scale(0.015625)"/>
       <path id="CMBX12-74" d="M 1350 2560 
L 2272 2560 
L 2272 2833 
L 1350 2833 
L 1350 4032 
L 1082 4032 
C 1075 3405 768 2776 134 2776 
L 134 2560 
L 653 2560 
L 653 789 
C 653 114 1178 -32 1638 -32 
C 2112 -32 2394 325 2394 795 
L 2394 1133 
L 2125 1133 
L 2125 802 
C 2125 381 1933 197 1734 197 
C 1350 197 1350 624 1350 770 
L 1350 2560 
z
" transform="scale(0.015625)"/>
       <path id="CMBX12-6f" d="M 3392 1395 
C 3392 2252 2803 2880 1798 2880 
C 755 2880 198 2220 198 1395 
C 198 565 787 -32 1792 -32 
C 2835 -32 3392 596 3392 1395 
z
M 1798 197 
C 966 197 966 939 966 1459 
C 966 1757 966 2074 1088 2303 
C 1229 2556 1517 2670 1792 2670 
C 2157 2670 2387 2499 2496 2322 
C 2624 2093 2624 1763 2624 1459 
C 2624 932 2624 197 1798 197 
z
" transform="scale(0.015625)"/>
       <path id="CMBX12-28" d="M 2394 -1524 
C 2394 -1498 2394 -1485 2272 -1371 
C 1555 -659 1280 461 1280 1580 
C 1280 2834 1594 3865 2310 4583 
C 2387 4659 2394 4666 2394 4691 
C 2394 4768 2317 4768 2285 4768 
C 2227 4768 2214 4768 2048 4634 
C 1126 3903 691 2732 691 1588 
C 691 417 1133 -722 2042 -1460 
C 2208 -1600 2221 -1600 2285 -1600 
C 2317 -1600 2394 -1600 2394 -1524 
z
" transform="scale(0.015625)"/>
       <path id="CMBX12-48" d="M 4704 4085 
L 5382 4085 
L 5382 4352 
C 5197 4352 4512 4352 4282 4352 
C 4051 4352 3366 4352 3181 4352 
L 3181 4085 
L 3859 4085 
L 3859 2385 
L 1766 2385 
L 1766 4085 
L 2445 4085 
L 2445 4352 
C 2259 4352 1574 4352 1344 4352 
C 1114 4352 429 4352 243 4352 
L 243 4085 
L 922 4085 
L 922 267 
L 243 267 
L 243 0 
C 429 0 1114 0 1344 0 
C 1574 0 2259 0 2445 0 
L 2445 267 
L 1766 267 
L 1766 2112 
L 3859 2112 
L 3859 267 
L 3181 267 
L 3181 0 
C 3366 0 4051 0 4282 0 
C 4512 0 5197 0 5382 0 
L 5382 267 
L 4704 267 
L 4704 4085 
z
" transform="scale(0.015625)"/>
       <path id="CMBX12-7a" d="M 2816 2575 
C 2874 2644 2874 2657 2874 2695 
C 2874 2816 2810 2816 2688 2816 
L 371 2816 
L 301 1725 
L 570 1725 
C 608 2327 749 2606 1459 2606 
L 2035 2606 
L 256 253 
C 198 184 198 172 198 127 
C 198 0 256 0 384 0 
L 2784 0 
L 2893 1256 
L 2624 1256 
C 2573 584 2432 229 1626 229 
L 1043 229 
L 2816 2575 
z
" transform="scale(0.015625)"/>
       <path id="CMBX12-29" d="M 2099 1581 
C 2099 2751 1658 3890 749 4628 
C 582 4768 570 4768 506 4768 
C 474 4768 397 4768 397 4692 
C 397 4667 397 4654 518 4540 
C 1235 3827 1510 2708 1510 1588 
C 1510 334 1197 -696 480 -1415 
C 403 -1492 397 -1498 397 -1524 
C 397 -1600 474 -1600 506 -1600 
C 563 -1600 576 -1600 742 -1466 
C 1664 -735 2099 436 2099 1581 
z
" transform="scale(0.015625)"/>
      </defs>
      <use xlink:href="#CMBX12-46" transform="scale(0.996264)"/>
      <use xlink:href="#CMBX12-72" transform="translate(61.113445 0) scale(0.996264)"/>
      <use xlink:href="#CMBX12-65" transform="translate(106.890953 0) scale(0.996264)"/>
      <use xlink:href="#CMBX12-71" transform="translate(158.03022 0) scale(0.996264)"/>
      <use xlink:href="#CMBX12-75" transform="translate(217.183396 0) scale(0.996264)"/>
      <use xlink:href="#CMBX12-65" transform="translate(279.449896 0) scale(0.996264)"/>
      <use xlink:href="#CMBX12-6e" transform="translate(330.589163 0) scale(0.996264)"/>
      <use xlink:href="#CMBX12-63" transform="translate(392.855664 0) scale(0.996264)"/>
      <use xlink:href="#CMBX12-79" transform="translate(442.668864 0) scale(0.996264)"/>
      <use xlink:href="#CMBX12-44" transform="translate(539.18194 0) scale(0.996264)"/>
      <use xlink:href="#CMBX12-65" transform="translate(625.086726 0) scale(0.996264)"/>
      <use xlink:href="#CMBX12-76" transform="translate(676.225993 0) scale(0.996264)"/>
      <use xlink:href="#CMBX12-69" transform="translate(735.379169 0) scale(0.996264)"/>
      <use xlink:href="#CMBX12-61" transform="translate(766.512419 0) scale(0.996264)"/>
      <use xlink:href="#CMBX12-74" transform="translate(820.995607 0) scale(0.996264)"/>
      <use xlink:href="#CMBX12-69" transform="translate(864.582158 0) scale(0.996264)"/>
      <use xlink:href="#CMBX12-6f" transform="translate(895.715408 0) scale(0.996264)"/>
      <use xlink:href="#CMBX12-6e" transform="translate(951.755259 0) scale(0.996264)"/>
      <use xlink:href="#CMBX12-28" transform="translate(1051.38166 0) scale(0.996264)"/>
      <use xlink:href="#CMBX12-48" transform="translate(1094.96821 0) scale(0.996264)"/>
      <use xlink:href="#CMBX12-7a" transform="translate(1182.602685 0) scale(0.996264)"/>
      <use xlink:href="#CMBX12-29" transform="translate(1232.415885 0) scale(0.996264)"/>
     </g>
    </g>
   </g>
   <g id="matplotlib.axis_2">
    <g id="ytick_1">
     <g id="line2d_9">
      <path d="M 57.6 295.926484 
L 414.72 295.926484 
" clip-path="url(#p986ad3ae5e)" style="fill: none; stroke: #b0b0b0; stroke-opacity: 0.8; stroke-width: 0.8; stroke-linecap: square"/>
     </g>
     <g id="line2d_10">
      <defs>
       <path id="mbb2f0ce0c1" d="M 0 0 
L -3.5 0 
" style="stroke: #000000; stroke-width: 0.8"/>
      </defs>
      <g>
       <use xlink:href="#mbb2f0ce0c1" x="57.6" y="295.926484" style="stroke: #000000; stroke-width: 0.8"/>
      </g>
     </g>
     <g id="text_6">
      <!-- $\mathdefault{0.000}$ -->
      <g transform="translate(8.628183 302.844982) scale(0.2 -0.2)">
       <defs>
        <path id="CMMI12-3a" d="M 1178 307 
C 1178 492 1024 619 870 619 
C 685 619 557 466 557 313 
C 557 128 710 0 864 0 
C 1050 0 1178 153 1178 307 
z
" transform="scale(0.015625)"/>
       </defs>
       <use xlink:href="#CMR17-30" transform="scale(0.996264)"/>
       <use xlink:href="#CMMI12-3a" transform="translate(45.690477 0) scale(0.996264)"/>
       <use xlink:href="#CMR17-30" transform="translate(72.787654 0) scale(0.996264)"/>
       <use xlink:href="#CMR17-30" transform="translate(118.478131 0) scale(0.996264)"/>
       <use xlink:href="#CMR17-30" transform="translate(164.168608 0) scale(0.996264)"/>
      </g>
     </g>
    </g>
    <g id="ytick_2">
     <g id="line2d_11">
      <path d="M 57.6 243.258475 
L 414.72 243.258475 
" clip-path="url(#p986ad3ae5e)" style="fill: none; stroke: #b0b0b0; stroke-opacity: 0.8; stroke-width: 0.8; stroke-linecap: square"/>
     </g>
     <g id="line2d_12">
      <g>
       <use xlink:href="#mbb2f0ce0c1" x="57.6" y="243.258475" style="stroke: #000000; stroke-width: 0.8"/>
      </g>
     </g>
     <g id="text_7">
      <!-- $\mathdefault{0.001}$ -->
      <g transform="translate(8.628183 250.176974) scale(0.2 -0.2)">
       <use xlink:href="#CMR17-30" transform="scale(0.996264)"/>
       <use xlink:href="#CMMI12-3a" transform="translate(45.690477 0) scale(0.996264)"/>
       <use xlink:href="#CMR17-30" transform="translate(72.787654 0) scale(0.996264)"/>
       <use xlink:href="#CMR17-30" transform="translate(118.478131 0) scale(0.996264)"/>
       <use xlink:href="#CMR17-31" transform="translate(164.168608 0) scale(0.996264)"/>
      </g>
     </g>
    </g>
    <g id="ytick_3">
     <g id="line2d_13">
      <path d="M 57.6 190.590467 
L 414.72 190.590467 
" clip-path="url(#p986ad3ae5e)" style="fill: none; stroke: #b0b0b0; stroke-opacity: 0.8; stroke-width: 0.8; stroke-linecap: square"/>
     </g>
     <g id="line2d_14">
      <g>
       <use xlink:href="#mbb2f0ce0c1" x="57.6" y="190.590467" style="stroke: #000000; stroke-width: 0.8"/>
      </g>
     </g>
     <g id="text_8">
      <!-- $\mathdefault{0.002}$ -->
      <g transform="translate(8.628183 197.508965) scale(0.2 -0.2)">
       <defs>
        <path id="CMR17-32" d="M 2669 989 
L 2554 989 
C 2490 536 2438 459 2413 420 
C 2381 369 1920 369 1830 369 
L 602 369 
C 832 619 1280 1072 1824 1597 
C 2214 1967 2669 2402 2669 3035 
C 2669 3790 2067 4224 1395 4224 
C 691 4224 262 3604 262 3030 
C 262 2780 448 2748 525 2748 
C 589 2748 781 2787 781 3010 
C 781 3207 614 3264 525 3264 
C 486 3264 448 3258 422 3245 
C 544 3790 915 4058 1306 4058 
C 1862 4058 2227 3617 2227 3035 
C 2227 2479 1901 2000 1536 1584 
L 262 146 
L 262 0 
L 2515 0 
L 2669 989 
z
" transform="scale(0.015625)"/>
       </defs>
       <use xlink:href="#CMR17-30" transform="scale(0.996264)"/>
       <use xlink:href="#CMMI12-3a" transform="translate(45.690477 0) scale(0.996264)"/>
       <use xlink:href="#CMR17-30" transform="translate(72.787654 0) scale(0.996264)"/>
       <use xlink:href="#CMR17-30" transform="translate(118.478131 0) scale(0.996264)"/>
       <use xlink:href="#CMR17-32" transform="translate(164.168608 0) scale(0.996264)"/>
      </g>
     </g>
    </g>
    <g id="ytick_4">
     <g id="line2d_15">
      <path d="M 57.6 137.922459 
L 414.72 137.922459 
" clip-path="url(#p986ad3ae5e)" style="fill: none; stroke: #b0b0b0; stroke-opacity: 0.8; stroke-width: 0.8; stroke-linecap: square"/>
     </g>
     <g id="line2d_16">
      <g>
       <use xlink:href="#mbb2f0ce0c1" x="57.6" y="137.922459" style="stroke: #000000; stroke-width: 0.8"/>
      </g>
     </g>
     <g id="text_9">
      <!-- $\mathdefault{0.003}$ -->
      <g transform="translate(8.628183 144.840957) scale(0.2 -0.2)">
       <defs>
        <path id="CMR17-33" d="M 1414 2157 
C 1984 2157 2234 1662 2234 1090 
C 2234 320 1824 25 1453 25 
C 1114 25 563 194 390 693 
C 422 680 454 680 486 680 
C 640 680 755 782 755 948 
C 755 1133 614 1216 486 1216 
C 378 1216 211 1165 211 926 
C 211 335 787 -128 1466 -128 
C 2176 -128 2720 430 2720 1085 
C 2720 1707 2208 2157 1600 2227 
C 2086 2328 2554 2756 2554 3329 
C 2554 3820 2048 4179 1472 4179 
C 890 4179 378 3829 378 3329 
C 378 3110 544 3072 627 3072 
C 762 3072 877 3155 877 3321 
C 877 3486 762 3569 627 3569 
C 602 3569 570 3569 544 3557 
C 730 3959 1235 4032 1459 4032 
C 1683 4032 2106 3925 2106 3320 
C 2106 3143 2080 2828 1862 2550 
C 1670 2304 1453 2304 1242 2284 
C 1210 2284 1062 2269 1037 2269 
C 992 2263 966 2257 966 2208 
C 966 2163 973 2157 1101 2157 
L 1414 2157 
z
" transform="scale(0.015625)"/>
       </defs>
       <use xlink:href="#CMR17-30" transform="scale(0.996264)"/>
       <use xlink:href="#CMMI12-3a" transform="translate(45.690477 0) scale(0.996264)"/>
       <use xlink:href="#CMR17-30" transform="translate(72.787654 0) scale(0.996264)"/>
       <use xlink:href="#CMR17-30" transform="translate(118.478131 0) scale(0.996264)"/>
       <use xlink:href="#CMR17-33" transform="translate(164.168608 0) scale(0.996264)"/>
      </g>
     </g>
    </g>
    <g id="ytick_5">
     <g id="line2d_17">
      <path d="M 57.6 85.25445 
L 414.72 85.25445 
" clip-path="url(#p986ad3ae5e)" style="fill: none; stroke: #b0b0b0; stroke-opacity: 0.8; stroke-width: 0.8; stroke-linecap: square"/>
     </g>
     <g id="line2d_18">
      <g>
       <use xlink:href="#mbb2f0ce0c1" x="57.6" y="85.25445" style="stroke: #000000; stroke-width: 0.8"/>
      </g>
     </g>
     <g id="text_10">
      <!-- $\mathdefault{0.004}$ -->
      <g transform="translate(8.628183 92.172948) scale(0.2 -0.2)">
       <defs>
        <path id="CMR17-34" d="M 2150 4122 
C 2150 4256 2144 4256 2029 4256 
L 128 1254 
L 128 1088 
L 1779 1088 
L 1779 457 
C 1779 224 1766 160 1318 160 
L 1197 160 
L 1197 0 
C 1402 0 1747 0 1965 0 
C 2182 0 2528 0 2733 0 
L 2733 160 
L 2611 160 
C 2163 160 2150 224 2150 457 
L 2150 1088 
L 2803 1088 
L 2803 1254 
L 2150 1254 
L 2150 4122 
z
M 1798 3703 
L 1798 1254 
L 256 1254 
L 1798 3703 
z
" transform="scale(0.015625)"/>
       </defs>
       <use xlink:href="#CMR17-30" transform="scale(0.996264)"/>
       <use xlink:href="#CMMI12-3a" transform="translate(45.690477 0) scale(0.996264)"/>
       <use xlink:href="#CMR17-30" transform="translate(72.787654 0) scale(0.996264)"/>
       <use xlink:href="#CMR17-30" transform="translate(118.478131 0) scale(0.996264)"/>
       <use xlink:href="#CMR17-34" transform="translate(164.168608 0) scale(0.996264)"/>
      </g>
     </g>
    </g>
    <g id="text_11">
     <!-- \textbf{Probability Density (1/Hz)} -->
     <g transform="translate(-0.353137 308.140418) rotate(-90) scale(0.2 -0.2)">
      <defs>
       <path id="CMBX12-50" d="M 1766 1934 
L 2854 1934 
C 3923 1934 4518 2474 4518 3128 
C 4518 3812 3910 4352 2854 4352 
L 243 4352 
L 243 4078 
L 922 4078 
L 922 267 
L 243 267 
L 243 0 
C 429 0 1114 0 1344 0 
C 1574 0 2259 0 2445 0 
L 2445 267 
L 1766 267 
L 1766 1934 
z
M 2624 4078 
C 3616 4078 3616 3558 3616 3127 
C 3616 2709 3616 2176 2624 2176 
L 1734 2176 
L 1734 4078 
L 2624 4078 
z
" transform="scale(0.015625)"/>
       <path id="CMBX12-62" d="M 1331 4416 
L 224 4416 
L 224 4117 
C 621 4117 666 4117 666 3867 
L 666 0 
L 934 0 
C 1043 123 1152 247 1254 376 
C 1581 38 1933 -32 2189 -32 
C 3072 -32 3750 504 3750 1431 
C 3750 2305 3149 2880 2272 2880 
C 1894 2880 1594 2759 1331 2555 
L 1331 4416 
z
M 1363 2248 
C 1587 2555 1920 2670 2189 2670 
C 2982 2670 2982 1859 2982 1437 
C 2982 1149 2982 785 2829 548 
C 2630 241 2330 178 2125 178 
C 1690 178 1453 484 1363 625 
L 1363 2248 
z
" transform="scale(0.015625)"/>
       <path id="CMBX12-6c" d="M 1389 4416 
L 282 4416 
L 282 4117 
C 678 4117 723 4117 723 3866 
L 723 260 
L 282 260 
L 282 -13 
C 429 0 883 0 1056 0 
C 1229 0 1683 0 1830 -13 
L 1830 260 
L 1389 260 
L 1389 4416 
z
" transform="scale(0.015625)"/>
       <path id="CMBX12-73" d="M 2413 2715 
C 2413 2836 2413 2880 2317 2880 
C 2278 2880 2266 2880 2170 2823 
C 2144 2804 2074 2759 2042 2740 
C 1862 2842 1626 2880 1395 2880 
C 1203 2880 243 2880 243 2056 
C 243 1389 1037 1250 1235 1218 
C 1408 1187 1619 1148 1645 1148 
C 1901 1091 2157 932 2157 666 
C 2157 178 1574 178 1440 178 
C 1114 178 710 279 531 896 
C 493 1023 486 1023 378 1023 
C 243 1023 243 1004 243 858 
L 243 132 
C 243 12 243 -32 339 -32 
C 384 -32 397 -32 525 70 
L 691 191 
C 979 -32 1325 -32 1440 -32 
C 1792 -32 2592 44 2592 888 
C 2592 1192 2426 1402 2298 1516 
C 2035 1731 1818 1770 1472 1833 
C 1062 1903 678 1973 678 2277 
C 678 2689 1248 2689 1382 2689 
C 2093 2689 2131 2245 2144 2087 
C 2150 2005 2202 2005 2278 2005 
C 2413 2005 2413 2024 2413 2170 
L 2413 2715 
z
" transform="scale(0.015625)"/>
       <path id="CMBX12-31" d="M 2214 3975 
C 2214 4160 2202 4160 1997 4160 
C 1523 3776 813 3776 672 3776 
L 550 3776 
L 550 3503 
L 672 3503 
C 896 3503 1235 3541 1491 3624 
L 1491 267 
L 602 267 
L 602 0 
C 870 0 1542 0 1843 0 
C 2144 0 2822 0 3091 0 
L 3091 267 
L 2214 267 
L 2214 3975 
z
" transform="scale(0.015625)"/>
       <path id="CMBX12-2f" d="M 3162 4475 
C 3194 4551 3194 4577 3194 4590 
C 3194 4704 3104 4768 3021 4768 
C 2899 4768 2874 4691 2835 4602 
L 429 -1307 
C 397 -1383 397 -1409 397 -1421 
C 397 -1536 486 -1600 570 -1600 
C 691 -1600 717 -1530 755 -1434 
L 3162 4475 
z
" transform="scale(0.015625)"/>
      </defs>
      <use xlink:href="#CMBX12-50" transform="scale(0.996264)"/>
      <use xlink:href="#CMBX12-72" transform="translate(76.564811 0) scale(0.996264)"/>
      <use xlink:href="#CMBX12-6f" transform="translate(122.342318 0) scale(0.996264)"/>
      <use xlink:href="#CMBX12-62" transform="translate(178.382169 0) scale(0.996264)"/>
      <use xlink:href="#CMBX12-61" transform="translate(240.648669 0) scale(0.996264)"/>
      <use xlink:href="#CMBX12-62" transform="translate(295.131857 0) scale(0.996264)"/>
      <use xlink:href="#CMBX12-69" transform="translate(357.398358 0) scale(0.996264)"/>
      <use xlink:href="#CMBX12-6c" transform="translate(388.531608 0) scale(0.996264)"/>
      <use xlink:href="#CMBX12-69" transform="translate(419.664858 0) scale(0.996264)"/>
      <use xlink:href="#CMBX12-74" transform="translate(450.798109 0) scale(0.996264)"/>
      <use xlink:href="#CMBX12-79" transform="translate(491.271334 0) scale(0.996264)"/>
      <use xlink:href="#CMBX12-44" transform="translate(587.78441 0) scale(0.996264)"/>
      <use xlink:href="#CMBX12-65" transform="translate(673.689196 0) scale(0.996264)"/>
      <use xlink:href="#CMBX12-6e" transform="translate(724.828463 0) scale(0.996264)"/>
      <use xlink:href="#CMBX12-73" transform="translate(787.094964 0) scale(0.996264)"/>
      <use xlink:href="#CMBX12-69" transform="translate(831.304301 0) scale(0.996264)"/>
      <use xlink:href="#CMBX12-74" transform="translate(862.437551 0) scale(0.996264)"/>
      <use xlink:href="#CMBX12-79" transform="translate(902.910776 0) scale(0.996264)"/>
      <use xlink:href="#CMBX12-28" transform="translate(999.423852 0) scale(0.996264)"/>
      <use xlink:href="#CMBX12-31" transform="translate(1043.010403 0) scale(0.996264)"/>
      <use xlink:href="#CMBX12-2f" transform="translate(1099.050253 0) scale(0.996264)"/>
      <use xlink:href="#CMBX12-48" transform="translate(1155.090104 0) scale(0.996264)"/>
      <use xlink:href="#CMBX12-7a" transform="translate(1242.724579 0) scale(0.996264)"/>
      <use xlink:href="#CMBX12-29" transform="translate(1292.537779 0) scale(0.996264)"/>
     </g>
    </g>
   </g>
   <g id="line2d_19">
    <path d="M 73.832727 295.375316 
L 106.33068 295.026804 
L 126.80439 294.600342 
L 140.778509 294.101078 
L 150.852875 293.533884 
L 158.652383 292.877946 
L 164.502015 292.172591 
L 169.051728 291.414377 
L 172.626503 290.613762 
L 175.551319 289.754076 
L 178.151155 288.763274 
L 180.426011 287.649173 
L 182.375889 286.444369 
L 184.000786 285.210966 
L 185.625684 283.71458 
L 187.250581 281.892947 
L 188.875479 279.67215 
L 190.175397 277.550759 
L 191.475315 275.069715 
L 192.775233 272.175282 
L 194.075152 268.81019 
L 195.37507 264.91485 
L 196.674988 260.429014 
L 198.299885 253.902151 
L 199.924783 246.256163 
L 201.549681 237.405688 
L 203.174578 227.295706 
L 204.799476 215.912945 
L 206.749353 200.633705 
L 209.02421 180.828275 
L 211.949025 153.129824 
L 217.148698 103.54372 
L 219.098575 87.23115 
L 220.723473 75.519411 
L 222.023391 67.694805 
L 222.998329 62.85535 
L 223.973268 58.974626 
L 224.948206 56.108087 
L 225.598165 54.781568 
L 226.248124 53.933112 
L 226.898084 53.568232 
L 227.223063 53.568 
L 227.548043 53.689306 
L 228.198002 54.295543 
L 228.847961 55.383001 
L 229.49792 56.944622 
L 230.472858 60.15324 
L 231.447797 64.359125 
L 232.422735 69.502448 
L 233.722654 77.692519 
L 235.347551 89.787183 
L 237.297428 106.438629 
L 239.897265 130.923815 
L 245.421916 183.760077 
L 247.696773 203.286956 
L 249.64665 218.281273 
L 251.596527 231.484933 
L 253.221425 241.087891 
L 254.846323 249.448944 
L 256.47122 256.636576 
L 258.096118 262.745197 
L 259.721016 267.884835 
L 261.345913 272.172301 
L 262.970811 275.724102 
L 264.595708 278.65119 
L 266.220606 281.05541 
L 267.845504 283.027465 
L 269.470401 284.646084 
L 271.095299 285.978117 
L 273.045176 287.27596 
L 274.995053 288.318187 
L 277.26991 289.290045 
L 279.869746 290.163694 
L 283.119541 291.005498 
L 287.019296 291.76808 
L 291.893989 292.475575 
L 298.0686 293.125208 
L 305.868108 293.704058 
L 315.942473 294.213774 
L 329.266634 294.653009 
L 347.790467 295.026785 
L 374.763767 295.332335 
L 398.487273 295.488 
L 398.487273 295.488 
" clip-path="url(#p986ad3ae5e)" style="fill: none; stroke: #ff0000; stroke-width: 2; stroke-linecap: square"/>
   </g>
   <g id="patch_3">
    <path d="M 57.6 307.584 
L 57.6 41.472 
" style="fill: none; stroke: #000000; stroke-width: 0.8; stroke-linejoin: miter; stroke-linecap: square"/>
   </g>
   <g id="patch_4">
    <path d="M 414.72 307.584 
L 414.72 41.472 
" style="fill: none; stroke: #000000; stroke-width: 0.8; stroke-linejoin: miter; stroke-linecap: square"/>
   </g>
   <g id="patch_5">
    <path d="M 57.6 307.584 
L 414.72 307.584 
" style="fill: none; stroke: #000000; stroke-width: 0.8; stroke-linejoin: miter; stroke-linecap: square"/>
   </g>
   <g id="patch_6">
    <path d="M 57.6 41.472 
L 414.72 41.472 
" style="fill: none; stroke: #000000; stroke-width: 0.8; stroke-linejoin: miter; stroke-linecap: square"/>
   </g>
   <g id="text_12">
    <!-- \textbf{Calibration Noise} -->
    <g transform="translate(141.475797 35.472) scale(0.22 -0.22)">
     <defs>
      <path id="CMBX12-43" d="M 4794 4252 
C 4794 4398 4794 4417 4653 4417 
L 4173 3959 
C 3814 4263 3386 4416 2912 4416 
C 1382 4416 397 3497 397 2167 
C 397 862 1350 -81 2918 -81 
C 4058 -81 4794 691 4794 1439 
C 4794 1547 4755 1547 4659 1547 
C 4595 1547 4531 1547 4525 1484 
C 4467 522 3642 192 3066 192 
C 2650 192 2086 307 1728 705 
C 1504 946 1299 1293 1299 2167 
C 1299 2788 1395 3250 1696 3604 
C 2106 4079 2746 4143 3053 4143 
C 3533 4143 4307 3876 4499 2762 
C 4512 2705 4570 2705 4646 2705 
C 4794 2705 4794 2718 4794 2870 
L 4794 4252 
z
" transform="scale(0.015625)"/>
      <path id="CMBX12-4e" d="M 1856 4282 
C 1792 4352 1786 4352 1658 4352 
L 243 4352 
L 243 4085 
L 922 4085 
L 922 445 
C 922 304 915 298 749 272 
C 634 260 506 260 390 260 
L 243 260 
L 243 -13 
C 390 0 890 0 1069 0 
C 1248 0 1754 0 1901 -13 
L 1901 260 
L 1754 260 
C 1581 260 1568 260 1414 279 
C 1229 305 1222 311 1222 451 
L 1222 3868 
L 4390 83 
C 4461 6 4467 0 4550 0 
C 4704 0 4704 38 4704 184 
L 4704 3900 
C 4704 4040 4710 4047 4877 4072 
C 4992 4085 5120 4085 5235 4085 
L 5382 4085 
L 5382 4359 
C 5235 4352 4736 4352 4557 4352 
C 4378 4352 3872 4352 3725 4359 
L 3725 4085 
L 3872 4085 
C 4045 4085 4058 4085 4211 4066 
C 4397 4041 4403 4034 4403 3893 
L 4403 1229 
L 1856 4282 
z
" transform="scale(0.015625)"/>
     </defs>
     <use xlink:href="#CMBX12-43" transform="scale(0.996264)"/>
     <use xlink:href="#CMBX12-61" transform="translate(80.946451 0) scale(0.996264)"/>
     <use xlink:href="#CMBX12-6c" transform="translate(135.429639 0) scale(0.996264)"/>
     <use xlink:href="#CMBX12-69" transform="translate(166.562889 0) scale(0.996264)"/>
     <use xlink:href="#CMBX12-62" transform="translate(197.696139 0) scale(0.996264)"/>
     <use xlink:href="#CMBX12-72" transform="translate(259.96264 0) scale(0.996264)"/>
     <use xlink:href="#CMBX12-61" transform="translate(305.740147 0) scale(0.996264)"/>
     <use xlink:href="#CMBX12-74" transform="translate(360.223335 0) scale(0.996264)"/>
     <use xlink:href="#CMBX12-69" transform="translate(403.809886 0) scale(0.996264)"/>
     <use xlink:href="#CMBX12-6f" transform="translate(434.943136 0) scale(0.996264)"/>
     <use xlink:href="#CMBX12-6e" transform="translate(490.982987 0) scale(0.996264)"/>
     <use xlink:href="#CMBX12-4e" transform="translate(590.609388 0) scale(0.996264)"/>
     <use xlink:href="#CMBX12-6f" transform="translate(678.243863 0) scale(0.996264)"/>
     <use xlink:href="#CMBX12-69" transform="translate(734.283713 0) scale(0.996264)"/>
     <use xlink:href="#CMBX12-73" transform="translate(765.416964 0) scale(0.996264)"/>
     <use xlink:href="#CMBX12-65" transform="translate(809.626301 0) scale(0.996264)"/>
    </g>
   </g>
   <g id="legend_1">
    <g id="patch_7">
     <path d="M 190.467935 99.245389 
L 402.12 99.245389 
Q 405.72 99.245389 405.72 95.645389 
L 405.72 54.072 
Q 405.72 50.472 402.12 50.472 
L 190.467935 50.472 
Q 186.867935 50.472 186.867935 54.072 
L 186.867935 95.645389 
Q 186.867935 99.245389 190.467935 99.245389 
z
" style="fill: #ffffff; opacity: 0.8; stroke: #cccccc; stroke-linejoin: miter"/>
    </g>
    <g id="line2d_20">
     <path d="M 194.067935 74.785344 
L 212.067935 74.785344 
L 230.067935 74.785344 
" style="fill: none; stroke: #ff0000; stroke-width: 2; stroke-linecap: square"/>
    </g>
    <g id="text_13">
     <!-- \textbf{Voigt Profile} -->
     <g transform="translate(244.467935 70.1253) scale(0.18 -0.18)">
      <defs>
       <path id="CMBX12-56" d="M 4634 3951 
C 4672 4033 4698 4096 5171 4096 
L 5280 4096 
L 5280 4363 
C 5082 4363 4621 4363 4570 4363 
C 4390 4363 3936 4363 3789 4370 
L 3789 4096 
C 3930 4096 4166 4096 4346 4026 
L 4314 3938 
L 3002 975 
L 1619 4096 
L 2214 4096 
L 2214 4363 
C 2010 4363 1395 4363 1152 4363 
C 947 4363 314 4363 154 4370 
L 154 4096 
L 730 4096 
L 2496 100 
C 2554 -26 2611 -32 2714 -32 
C 2816 -32 2880 -32 2938 100 
L 4634 3951 
z
" transform="scale(0.015625)"/>
       <path id="CMBX12-67" d="M 832 1189 
C 1139 1024 1498 1024 1594 1024 
C 2477 1024 2829 1514 2829 1960 
C 2829 2285 2643 2515 2566 2578 
C 2752 2676 2906 2700 3014 2713 
C 2995 2682 2976 2658 2976 2578 
C 2976 2450 3066 2334 3232 2334 
C 3398 2334 3488 2455 3488 2588 
C 3488 2741 3373 2944 3104 2944 
C 2829 2944 2566 2803 2432 2682 
C 2170 2834 1920 2891 1594 2891 
C 710 2891 358 2403 358 1957 
C 358 1760 422 1501 691 1285 
C 582 1161 467 933 467 699 
C 467 420 614 180 749 76 
C 595 39 198 -105 198 -461 
C 198 -830 614 -1248 1792 -1248 
C 2854 -1248 3392 -910 3392 -439 
C 3392 114 3021 295 2861 370 
C 2554 521 2144 521 1581 521 
C 1421 521 1139 521 1107 527 
C 832 575 755 829 755 957 
C 755 1010 762 1107 832 1189 
z
M 1594 1227 
C 1037 1227 1037 1665 1037 1957 
C 1037 2250 1037 2688 1594 2688 
C 2150 2688 2150 2250 2150 1957 
C 2150 1665 2150 1227 1594 1227 
z
M 1952 -64 
C 2419 -64 2867 -145 2867 -467 
C 2867 -685 2643 -1045 1798 -1045 
C 954 -1045 723 -697 723 -461 
C 723 -64 1126 -64 1222 -64 
L 1952 -64 
z
" transform="scale(0.015625)"/>
       <path id="CMBX12-c" d="M 2221 2841 
L 2221 2841 
L 1299 2841 
L 1299 3461 
C 1299 4162 2054 4224 2310 4224 
C 2381 4224 2611 4224 2803 4098 
C 2605 4034 2522 3882 2522 3718 
C 2522 3485 2694 3333 2912 3333 
C 3123 3333 3302 3479 3302 3719 
C 3302 4067 3014 4434 2368 4434 
C 1638 4434 666 4218 666 3454 
L 666 2816 
L 192 2816 
L 192 2543 
L 666 2543 
L 666 260 
L 224 260 
L 224 -13 
C 371 0 826 0 998 0 
C 1171 0 1626 0 1773 -13 
L 1773 260 
L 1331 260 
L 1331 2543 
L 2464 2543 
C 2624 2543 2662 2536 2662 2313 
L 2662 260 
L 2221 260 
L 2221 -13 
C 2368 0 2822 0 2995 0 
C 3168 0 3622 0 3770 -13 
L 3770 260 
L 3328 260 
L 3328 2841 
L 2221 2841 
z
" transform="scale(0.015625)"/>
      </defs>
      <use xlink:href="#CMBX12-56" transform="scale(0.996264)"/>
      <use xlink:href="#CMBX12-6f" transform="translate(75.29642 0) scale(0.996264)"/>
      <use xlink:href="#CMBX12-69" transform="translate(131.33627 0) scale(0.996264)"/>
      <use xlink:href="#CMBX12-67" transform="translate(162.46952 0) scale(0.996264)"/>
      <use xlink:href="#CMBX12-74" transform="translate(218.509371 0) scale(0.996264)"/>
      <use xlink:href="#CMBX12-50" transform="translate(299.455822 0) scale(0.996264)"/>
      <use xlink:href="#CMBX12-72" transform="translate(376.020632 0) scale(0.996264)"/>
      <use xlink:href="#CMBX12-6f" transform="translate(421.79814 0) scale(0.996264)"/>
      <use xlink:href="#CMBX12-c" transform="translate(477.83799 0) scale(0.996264)"/>
      <use xlink:href="#CMBX12-6c" transform="translate(540.104491 0) scale(0.996264)"/>
      <use xlink:href="#CMBX12-65" transform="translate(571.237741 0) scale(0.996264)"/>
     </g>
     <!-- \textbf{FWHM} \boldmath$\approx 185\,\mathrm{Hz}$ -->
     <g transform="translate(244.467935 88.557324) scale(0.18 -0.18)">
      <defs>
       <path id="CMBX12-57" d="M 6694 3963 
C 6739 4077 6752 4077 7290 4077 
L 7290 4363 
C 6970 4363 6957 4363 6592 4363 
C 6406 4363 5939 4363 5786 4370 
L 5786 4096 
C 5862 4096 6426 4096 6426 4007 
C 6426 4001 6426 3988 6400 3931 
L 5325 1108 
L 4179 4096 
L 4787 4096 
L 4787 4363 
C 4582 4363 3987 4363 3744 4363 
C 3546 4363 2925 4363 2771 4370 
L 2771 4096 
L 3309 4096 
L 3571 3413 
L 2694 1108 
L 1555 4096 
L 2157 4096 
L 2157 4363 
C 1971 4363 1344 4363 1114 4363 
C 909 4363 301 4363 141 4370 
L 141 4096 
L 678 4096 
L 2202 119 
C 2240 12 2259 -32 2400 -32 
C 2541 -32 2560 12 2598 113 
L 3712 3032 
L 4832 113 
C 4870 12 4890 -32 5030 -32 
C 5152 -32 5184 -7 5229 114 
L 6694 3963 
z
" transform="scale(0.015625)"/>
       <path id="CMBX12-4d" d="M 3411 797 
L 1875 4218 
C 1818 4352 1760 4352 1626 4352 
L 262 4352 
L 262 4078 
L 941 4078 
L 941 444 
C 941 304 934 298 768 272 
C 653 260 525 260 410 260 
L 262 260 
L 262 -13 
C 410 0 909 0 1088 0 
C 1267 0 1773 0 1920 -13 
L 1920 260 
L 1773 260 
C 1600 260 1587 260 1434 279 
C 1248 305 1242 311 1242 451 
L 1242 4002 
L 1248 4002 
L 2989 134 
C 3021 64 3059 0 3168 0 
C 3277 0 3315 64 3347 134 
L 5120 4078 
L 5126 4078 
L 5126 260 
L 4448 260 
L 4448 -13 
C 4621 0 5286 0 5504 0 
C 5722 0 6387 0 6560 -13 
L 6560 260 
L 5882 260 
L 5882 4078 
L 6560 4078 
L 6560 4352 
L 5197 4352 
C 5062 4352 5005 4352 4947 4218 
L 3411 797 
z
" transform="scale(0.015625)"/>
       <path id="CMBSY10-19" d="M 2765 2413 
C 3245 2138 3616 1926 4077 1926 
C 4787 1926 5306 2406 5306 3066 
C 5306 3238 5242 3354 5171 3354 
C 5056 3354 5037 3169 5030 3047 
C 5011 2823 4646 2470 4077 2470 
C 3661 2470 3270 2688 2950 2867 
C 2470 3142 2099 3354 1638 3354 
C 928 3354 410 2874 410 2214 
C 410 2080 454 1926 550 1926 
C 614 1926 672 2016 685 2176 
C 717 2586 1229 2810 1638 2810 
C 2054 2810 2445 2592 2765 2413 
z
M 2950 1156 
C 2470 1431 2099 1641 1638 1641 
C 928 1641 410 1162 410 505 
C 410 371 454 218 550 218 
C 614 218 672 307 685 466 
C 717 874 1229 1097 1638 1097 
C 2054 1097 2445 880 2765 702 
C 3245 428 3616 218 4077 218 
C 4787 218 5306 697 5306 1354 
C 5306 1494 5254 1641 5165 1641 
C 5056 1641 5037 1442 5030 1334 
C 5011 1112 4646 762 4077 762 
C 3661 762 3270 978 2950 1156 
z
" transform="scale(0.015625)"/>
       <path id="CMBX12-38" d="M 2413 2363 
C 2733 2529 3091 2765 3091 3264 
C 3091 3922 2502 4203 1805 4203 
C 954 4203 499 3718 499 3098 
C 499 2754 672 2370 1146 2121 
C 422 1801 301 1361 301 1029 
C 301 294 941 -64 1786 -64 
C 2733 -64 3290 446 3290 1188 
C 3290 1884 2739 2185 2413 2363 
z
M 1261 3025 
C 1133 3096 954 3243 954 3455 
C 954 3968 1638 3968 1786 3968 
C 2330 3968 2637 3682 2637 3262 
C 2637 3001 2522 2727 2157 2517 
L 1261 3025 
z
M 1408 1958 
L 2291 1455 
C 2502 1334 2778 1182 2778 858 
C 2778 349 2266 190 1805 190 
C 1171 190 813 527 813 1029 
C 813 1493 1101 1786 1408 1958 
z
" transform="scale(0.015625)"/>
       <path id="CMBX12-35" d="M 986 3315 
C 1203 3264 1376 3264 1472 3264 
C 1626 3264 1990 3264 2419 3527 
C 2618 3647 2950 3936 2950 4083 
C 2950 4115 2950 4192 2874 4192 
C 2867 4192 2854 4192 2790 4159 
C 2496 4054 2182 3982 1824 3982 
C 1459 3982 1152 4052 851 4160 
C 806 4173 787 4186 768 4186 
C 691 4186 691 4122 691 4014 
L 691 2163 
C 691 2042 691 1972 819 1972 
C 883 1972 896 1979 947 2042 
C 1024 2132 1254 2414 1798 2414 
C 2387 2414 2387 1815 2387 1312 
C 2387 852 2387 190 1600 190 
C 1363 190 960 279 742 640 
C 1082 640 1165 895 1165 1035 
C 1165 1264 998 1435 762 1435 
C 570 1435 358 1321 358 1022 
C 358 470 864 -64 1626 -64 
C 2611 -64 3232 503 3232 1293 
C 3232 2070 2701 2624 1824 2624 
C 1568 2624 1261 2573 986 2369 
L 986 3315 
z
" transform="scale(0.015625)"/>
      </defs>
      <use xlink:href="#CMBX12-46" transform="scale(0.996264)"/>
      <use xlink:href="#CMBX12-57" transform="translate(70.453421 0) scale(0.996264)"/>
      <use xlink:href="#CMBX12-48" transform="translate(186.223065 0) scale(0.996264)"/>
      <use xlink:href="#CMBX12-4d" transform="translate(273.85754 0) scale(0.996264)"/>
      <use xlink:href="#CMBSY10-19" transform="translate(410.247932 0) scale(0.996264)"/>
      <use xlink:href="#CMBX12-31" transform="translate(531.182671 0) scale(0.996264)"/>
      <use xlink:href="#CMBX12-38" transform="translate(587.222522 0) scale(0.996264)"/>
      <use xlink:href="#CMBX12-35" transform="translate(643.262372 0) scale(0.996264)"/>
      <use xlink:href="#CMBX12-48" transform="translate(718.397182 0) scale(0.996264)"/>
      <use xlink:href="#CMBX12-7a" transform="translate(806.031657 0) scale(0.996264)"/>
     </g>
    </g>
   </g>
  </g>
 </g>
 <defs>
  <clipPath id="p986ad3ae5e">
   <rect x="57.6" y="41.472" width="357.12" height="266.112"/>
  </clipPath>
 </defs>
</svg>
